<svg width="332" height="204" viewBox="0 0 332 204" fill="none" xmlns="http://www.w3.org/2000/svg">
<path d="M24.5663 81.8977C19.5341 86.0049 27.7687 122.057 27.7687 122.057C27.7687 122.057 29.5986 177.048 33.4871 179.558C37.3757 182.068 46.0678 179.33 49.4989 178.873C52.93 178.417 49.9564 144.418 44.9241 131.869C39.8918 119.319 43.7804 101.065 43.7804 101.065L71.0004 106.313C71.0004 106.313 54.5312 120.232 55.2174 123.198C55.9036 126.164 73.5165 136.204 76.7189 136.66C79.9212 137.117 86.0972 118.406 91.5869 105.628C97.0767 92.8502 54.0737 84.6358 54.0737 84.6358L48.1265 73.4551C48.1265 73.4551 29.5986 77.7905 24.5663 81.8977Z" fill="#2F2E41"/>
<path d="M38.228 180.505C38.228 180.505 36.5681 186.3 38.228 186.3C39.8878 186.3 42.9309 187.956 47.6338 187.404C52.3368 186.852 50.9535 181.057 47.6338 180.229C44.3141 179.401 45.144 172.778 45.144 172.778C44.0375 170.57 38.7812 173.33 38.7812 173.33L38.228 180.505Z" fill="#2F2E41"/>
<path d="M61.7932 134.419C61.7932 134.419 58.9456 139.734 60.5681 140.083C62.1906 140.433 64.8152 142.691 69.5291 143.141C74.2429 143.591 74.116 137.635 71.0459 136.127C67.9759 134.62 70.1873 128.32 70.1873 128.32C69.5724 125.929 63.8509 127.521 63.8509 127.521L61.7932 134.419Z" fill="#2F2E41"/>
<path d="M27.6559 32.4967C28.1133 33.4094 26.0547 44.8183 26.0547 44.8183L27.8846 48.0128C27.8846 48.0128 38.4066 43.9056 36.8054 43.2211C35.2043 42.5365 35.433 34.094 35.433 34.094C35.433 34.094 27.1984 31.584 27.6559 32.4967Z" fill="#FFB9B9"/>
<path d="M31.6147 36.0121C39.3604 36.0121 45.6396 29.7484 45.6396 22.0217C45.6396 14.295 39.3604 8.03125 31.6147 8.03125C23.869 8.03125 17.5898 14.295 17.5898 22.0217C17.5898 29.7484 23.869 36.0121 31.6147 36.0121Z" fill="#2F2E41"/>
<path d="M30.6471 14.715C33.8523 14.715 36.4505 12.1231 36.4505 8.92586C36.4505 5.72861 33.8523 3.13672 30.6471 3.13672C27.442 3.13672 24.8438 5.72861 24.8438 8.92586C24.8438 12.1231 27.442 14.715 30.6471 14.715Z" fill="#2F2E41"/>
<path d="M33.1855 11.547C33.3864 11.5678 33.5882 11.5783 33.7901 11.5783C34.5522 11.5783 35.3068 11.4286 36.0109 11.1376C36.715 10.8467 37.3548 10.4203 37.8937 9.8827C38.4326 9.34513 38.8601 8.70694 39.1517 8.00457C39.4434 7.3022 39.5935 6.5494 39.5935 5.78915C39.5935 5.02891 39.4434 4.27611 39.1517 3.57374C38.8601 2.87137 38.4326 2.23318 37.8937 1.6956C37.3548 1.15803 36.715 0.731605 36.0109 0.440673C35.3068 0.149741 34.5522 -2.2657e-08 33.7901 0C33.5882 5.18006e-05 33.3864 0.0104986 33.1855 0.0312996C34.6122 0.180413 35.933 0.85133 36.8931 1.91461C37.8531 2.97788 38.3844 4.35816 38.3844 5.78915C38.3844 7.22014 37.8531 8.60043 36.8931 9.6637C35.933 10.727 34.6122 11.3979 33.1855 11.547Z" fill="#2F2E41"/>
<path d="M31.9996 38.4286C37.3055 38.4286 41.6067 34.138 41.6067 28.8452C41.6067 23.5524 37.3055 19.2617 31.9996 19.2617C26.6938 19.2617 22.3926 23.5524 22.3926 28.8452C22.3926 34.138 26.6938 38.4286 31.9996 38.4286Z" fill="#FFB9B9"/>
<path d="M18.1621 43.563C15.1885 44.2475 10.1562 51.5492 10.1562 51.5492L18.1621 59.5354C18.1621 59.5354 23.8806 80.9841 24.5668 81.8968C29.0625 87.8763 49.2707 74.5951 49.2707 74.5951C49.2707 74.5951 48.4701 68.0921 48.9276 64.8976C49.3676 61.8252 47.212 55.6564 47.212 55.6564C47.212 55.6564 54.7605 52.4619 53.1593 49.2674C51.5581 46.0729 41.7223 38.7712 37.605 41.2812C33.4877 43.7911 25.2531 41.2812 25.2531 41.2812C25.2531 41.2812 21.1358 42.8784 18.1621 43.563Z" fill="#6092FF"/>
<path d="M76.6035 89.5409C76.6035 89.5409 89.6416 100.722 92.844 98.4399C96.0464 96.1581 80.4921 88.1719 80.4921 88.1719L76.6035 89.5409Z" fill="#FFB9B9"/>
<path d="M18.0472 85.6621C19.8771 87.7157 28.5692 82.4676 27.4549 80.137C26.3405 77.8063 19.4196 82.4676 19.4196 82.4676C19.4196 82.4676 16.2173 83.6085 18.0472 85.6621Z" fill="#FFB9B9"/>
<path d="M18.1618 54.7435L8.55474 72.5414C8.55474 72.5414 19.5342 81.6685 20.9066 81.8967C22.2791 82.1248 18.1618 88.0575 18.1618 88.0575C18.1618 88.0575 5.80985 79.3867 1.00632 75.0513C-3.7972 70.716 10.1559 51.549 10.1559 51.549L14.2732 49.0391L18.1618 54.7435Z" fill="#6092FF"/>
<path d="M46.0684 54.0596L57.2766 71.4011C57.2766 71.4011 74.432 90.568 76.7194 91.4807C79.0068 92.3934 81.7517 88.0581 81.7517 88.0581L61.1652 63.1867L53.388 49.2678L50.4144 48.127L46.0684 54.0596Z" fill="#6092FF"/>
<path d="M31.6137 23.2482C36.9556 23.2482 41.2861 20.6563 41.2861 17.4591C41.2861 14.2618 36.9556 11.6699 31.6137 11.6699C26.2719 11.6699 21.9414 14.2618 21.9414 17.4591C21.9414 20.6563 26.2719 23.2482 31.6137 23.2482Z" fill="#2F2E41"/>
<g filter="url(#filter0_dd_432_28748)">
<rect x="102.938" y="80.8145" width="208.895" height="43.1793" rx="4.66803" fill="white"/>
<g clip-path="url(#clip0_432_28748)">
<path d="M113.457 85.5465V85.5523C113.463 85.581 113.463 85.6155 113.463 85.65V89.7949C113.457 89.8179 113.44 89.8237 113.423 89.8352C113.302 89.8926 113.187 89.9444 113.066 89.9961C112.9 90.0709 112.727 90.1513 112.56 90.2261L111.957 90.502C111.79 90.5768 111.623 90.6515 111.462 90.7262C111.267 90.8182 111.066 90.9044 110.87 90.9964C110.703 91.0711 110.537 91.1516 110.364 91.2264C110.226 91.2896 110.088 91.3471 109.956 91.4103C109.945 91.4161 109.933 91.4218 109.922 91.4218C109.916 91.4218 109.916 91.4218 109.91 91.4161L110.065 91.1574C110.364 90.663 110.658 90.1743 110.956 89.6799C111.273 89.151 111.595 88.6222 111.911 88.0933C112.204 87.6046 112.503 87.116 112.796 86.6273C113.009 86.2709 113.227 85.9145 113.44 85.558C113.446 85.5465 113.451 85.5408 113.451 85.5293H113.457C113.451 85.535 113.457 85.5408 113.457 85.5465Z" fill="#8A92B2"/>
<path d="M116.987 91.4157L116.992 91.4214L116.147 91.9216L113.491 93.491C113.48 93.4968 113.468 93.5025 113.463 93.5083C113.445 93.5083 113.445 93.491 113.445 93.4853V93.4335V89.8808C113.445 89.8635 113.445 89.8405 113.451 89.8233C113.457 89.8003 113.474 89.806 113.491 89.8118C113.566 89.8463 113.647 89.8808 113.721 89.9153C113.945 90.0187 114.17 90.1222 114.394 90.2199C114.589 90.3062 114.779 90.3982 114.974 90.4844C115.17 90.5706 115.365 90.6626 115.561 90.7488C115.728 90.8236 115.9 90.9041 116.067 90.9788C116.233 91.0535 116.406 91.134 116.573 91.2087C116.705 91.2662 116.837 91.3295 116.969 91.387C116.969 91.4042 116.975 91.41 116.987 91.4157Z" fill="#454A75"/>
<path d="M113.457 97.0782C113.457 97.0839 113.451 97.0897 113.451 97.0954H113.446C113.446 97.0839 113.434 97.0782 113.428 97.0667C113.072 96.5665 112.716 96.0607 112.359 95.5605C111.997 95.0489 111.629 94.5315 111.267 94.0198C110.916 93.5254 110.56 93.0253 110.209 92.5309C110.117 92.3987 110.025 92.2722 109.933 92.14C109.927 92.1285 109.922 92.1227 109.91 92.1055C109.927 92.1055 109.939 92.117 109.945 92.1227C110.445 92.4159 110.939 92.7091 111.439 93.0023C112.014 93.3415 112.583 93.6806 113.158 94.0198L113.451 94.1923C113.463 94.2038 113.463 94.2153 113.463 94.2268V96.9977C113.463 97.0265 113.463 97.0552 113.457 97.0782Z" fill="#8A92B2"/>
<path d="M109.904 91.4278V91.4221C110.088 91.3416 110.266 91.2553 110.45 91.1749C110.686 91.0656 110.922 90.9622 111.158 90.8529C111.336 90.7724 111.52 90.6862 111.698 90.6057C111.962 90.485 112.221 90.37 112.486 90.2493C112.664 90.1688 112.842 90.0883 113.026 90.0021C113.152 89.9446 113.285 89.8871 113.411 89.8296C113.423 89.8239 113.44 89.8181 113.446 89.8066C113.451 89.8066 113.451 89.8124 113.446 89.8181V93.4686C113.446 93.4859 113.44 93.5031 113.451 93.5146C113.44 93.5319 113.428 93.5146 113.423 93.5089C113.371 93.4801 113.319 93.4514 113.267 93.4169C112.158 92.7615 111.043 92.1004 109.933 91.4451C109.927 91.4393 109.916 91.4336 109.904 91.4278Z" fill="#62688F"/>
<path d="M116.975 92.1055H116.981C116.981 92.117 116.969 92.1285 116.964 92.14C115.906 93.6289 114.848 95.1236 113.79 96.6125C113.681 96.7678 113.566 96.923 113.457 97.0782C113.451 97.0724 113.451 97.0667 113.451 97.0609V97.0265V94.2383V94.1865C113.693 94.0428 113.928 93.9048 114.17 93.7611C115.101 93.2092 116.032 92.6631 116.958 92.1112C116.964 92.117 116.969 92.1112 116.975 92.1055Z" fill="#62688F"/>
<path d="M113.451 89.8184V89.8069V89.7724V85.5987C113.451 85.5815 113.445 85.57 113.457 85.5527C114.624 87.4901 115.791 89.4217 116.952 91.359C116.963 91.3763 116.981 91.3993 116.986 91.4223C116.906 91.3935 116.831 91.3533 116.757 91.3188C116.665 91.2785 116.567 91.2326 116.475 91.1923C116.417 91.1636 116.354 91.1406 116.297 91.1118C116.199 91.0658 116.101 91.0256 116.003 90.9796C115.946 90.9566 115.888 90.9279 115.831 90.8991L115.452 90.7267C115.388 90.6979 115.325 90.6692 115.256 90.6404L114.98 90.5197C114.923 90.4967 114.865 90.468 114.808 90.4392L114.428 90.2668C114.365 90.238 114.302 90.2093 114.233 90.1805L113.957 90.0598C113.894 90.0311 113.836 90.0023 113.773 89.9736C113.664 89.9218 113.554 89.8701 113.439 89.8241C113.457 89.8184 113.451 89.8184 113.451 89.8184Z" fill="#62688F"/>
</g>
<path d="M128.461 88.1V88.8842H125.267V90.5752H128.134V91.3431H125.267V93.0341H128.461V93.8184H124.425V88.1H128.461ZM129.183 88.1H133.766V88.8842H131.928V93.8184H131.086V88.8842H129.183V88.1ZM135.358 88.1V90.5752H138.422V88.1H139.271V93.8184H138.422V91.335H135.358V93.8184H134.517V88.1H135.358Z" fill="black"/>
<path d="M140.205 93.8184L142.337 88.1H143.137L141.005 93.8184H140.205Z" fill="black"/>
<path d="M143.667 88.1H148.25V88.8842H146.412V93.8184H145.571V88.8842H143.667V88.1ZM149.001 93.8184V88.1H151.509C152.054 88.1 152.5 88.2825 152.849 88.6473C153.203 89.0122 153.38 89.4479 153.38 89.9544C153.38 90.3628 153.26 90.7223 153.02 91.0327C152.781 91.3377 152.473 91.5419 152.097 91.6454L153.453 93.8184H152.498L151.199 91.7434H149.843V93.8184H149.001ZM151.452 91C151.773 91 152.037 90.902 152.244 90.7059C152.457 90.5044 152.563 90.2458 152.563 89.9299C152.563 89.6249 152.468 89.3717 152.277 89.1702C152.086 88.9632 151.83 88.8597 151.509 88.8597H149.843V91H151.452ZM153.463 88.1H154.369L155.946 91.0082L157.523 88.1H158.429L156.379 91.9395V93.8184H155.529V91.9558L153.463 88.1Z" fill="#3E4353"/>
<path d="M108.003 110.855L107.605 110.94V119.325H164.789V107.784L164.392 106.507C163.995 105.231 163.2 102.677 162.406 102.25C161.612 101.823 160.818 103.522 160.024 104.626C159.229 105.731 158.435 106.24 157.641 107.453C156.847 108.665 156.053 110.581 155.258 109.304C154.464 108.027 153.67 103.557 152.876 101.344C152.081 99.1312 151.287 99.1745 150.493 100.034C149.699 100.894 148.905 102.57 148.11 105.332C147.316 108.094 146.522 111.941 145.728 112.732C144.934 113.523 144.139 111.258 143.345 111.359C142.551 111.459 141.757 113.926 140.962 114.56C140.168 115.194 139.374 113.994 138.58 114.298C137.786 114.601 136.991 116.407 136.197 114.853C135.403 113.299 134.609 108.385 133.815 107.031C133.02 105.677 132.226 107.884 131.432 110.371C130.638 112.857 129.843 115.625 129.049 116.739C128.255 117.853 127.461 117.313 126.667 116.016C125.872 114.719 125.078 112.664 124.284 112.464C123.49 112.265 122.696 113.919 121.901 114.577C121.107 115.235 120.313 114.896 119.519 113.129C118.724 111.362 117.93 108.166 117.136 106.636C116.342 105.106 115.548 105.242 114.753 106.102C113.959 106.962 113.165 108.547 112.371 109.389C111.577 110.231 110.782 110.33 109.988 110.465C109.194 110.599 108.4 110.77 108.003 110.855Z" fill="url(#paint0_linear_432_28748)" fill-opacity="0.8"/>
<path d="M107.605 110.94L108.003 110.855C108.4 110.77 109.194 110.599 109.988 110.465C110.782 110.33 111.577 110.231 112.371 109.389C113.165 108.547 113.959 106.962 114.753 106.102C115.548 105.242 116.342 105.106 117.136 106.636C117.93 108.166 118.724 111.362 119.519 113.129C120.313 114.896 121.107 115.235 121.901 114.577C122.696 113.919 123.49 112.265 124.284 112.464C125.078 112.664 125.872 114.719 126.667 116.016C127.461 117.313 128.255 117.853 129.049 116.739C129.843 115.625 130.638 112.857 131.432 110.371C132.226 107.884 133.02 105.677 133.815 107.031C134.609 108.385 135.403 113.299 136.197 114.853C136.991 116.407 137.786 114.601 138.58 114.298C139.374 113.994 140.168 115.194 140.962 114.56C141.757 113.926 142.551 111.459 143.345 111.359C144.139 111.258 144.934 113.523 145.728 112.732C146.522 111.941 147.316 108.094 148.11 105.332C148.905 102.57 149.699 100.894 150.493 100.034C151.287 99.1745 152.081 99.1312 152.876 101.344C153.67 103.557 154.464 108.027 155.258 109.304C156.053 110.581 156.847 108.665 157.641 107.453C158.435 106.24 159.229 105.731 160.024 104.626C160.818 103.522 161.612 101.823 162.406 102.25C163.2 102.677 163.995 105.231 164.392 106.507L164.789 107.784" stroke="#2DAE5E" stroke-width="0.583504" stroke-linecap="round"/>
<path d="M192.504 95.9663C192.515 96.3802 192.637 96.696 192.872 96.9139C193.111 97.1263 193.419 97.257 193.795 97.306V95.2882C192.542 95.0377 191.916 94.5176 191.916 93.728C191.916 93.2923 192.093 92.9247 192.447 92.6251C192.801 92.3202 193.25 92.1513 193.795 92.1187V91.5468H194.268V92.1268C194.824 92.1758 195.281 92.361 195.641 92.6823C196 92.9982 196.188 93.4203 196.204 93.9485L195.494 93.9404C195.472 93.5809 195.347 93.3059 195.118 93.1153C194.889 92.9247 194.606 92.8076 194.268 92.764V94.7409C194.857 94.8281 195.325 95.0051 195.674 95.2719C196.027 95.5333 196.204 95.8955 196.204 96.3584C196.204 96.8268 196.033 97.208 195.69 97.5021C195.347 97.7907 194.873 97.9459 194.268 97.9677V98.6212H193.795V97.9432C193.223 97.8833 192.746 97.6927 192.365 97.3714C191.989 97.0446 191.801 96.5762 191.801 95.9663H192.504ZM195.183 97.0609C195.407 96.8921 195.518 96.6634 195.518 96.3747C195.518 96.1079 195.409 95.9009 195.192 95.7539C194.974 95.6014 194.666 95.4843 194.268 95.4026V97.3305C194.65 97.3196 194.955 97.2298 195.183 97.0609ZM192.594 93.7034C192.594 94.1664 192.994 94.4795 193.795 94.6429V92.7477C193.419 92.7695 193.125 92.8729 192.912 93.0581C192.7 93.2433 192.594 93.4584 192.594 93.7034Z" fill="#07080C"/>
<path d="M199.403 97.9023V92.8457H197.785V92.184H200.097V97.9023H199.403ZM200.962 94.0711C200.962 93.5319 201.15 93.0717 201.525 92.6905C201.907 92.3038 202.391 92.1105 202.979 92.1105C203.644 92.1105 204.178 92.3692 204.581 92.8865C204.984 93.3985 205.185 94.101 205.185 94.9942C205.185 95.8928 204.986 96.6144 204.589 97.159C204.197 97.6981 203.663 97.9677 202.988 97.9677C202.476 97.9677 202.045 97.8152 201.697 97.5102C201.354 97.2053 201.13 96.8213 201.027 96.3584H201.738C201.814 96.6252 201.961 96.854 202.179 97.0446C202.402 97.2352 202.674 97.3305 202.996 97.3305C203.464 97.3305 203.829 97.1263 204.09 96.7178C204.357 96.3039 204.496 95.8083 204.507 95.2311C204.507 95.0187 204.504 94.8934 204.499 94.8553C204.417 95.1766 204.229 95.4462 203.935 95.664C203.641 95.8764 203.306 95.9826 202.93 95.9826C202.919 95.9826 202.909 95.9826 202.898 95.9826C202.337 95.9772 201.874 95.792 201.509 95.4271C201.144 95.0568 200.962 94.6048 200.962 94.0711ZM202.056 94.986C202.318 95.242 202.631 95.3699 202.996 95.3699C203.355 95.3699 203.666 95.2447 203.927 94.9942C204.188 94.7382 204.319 94.4278 204.319 94.0629C204.319 93.6926 204.188 93.3794 203.927 93.1234C203.671 92.8675 203.361 92.7395 202.996 92.7395C202.631 92.7395 202.318 92.8675 202.056 93.1234C201.795 93.3794 201.664 93.6926 201.664 94.0629C201.664 94.4278 201.795 94.7355 202.056 94.986ZM206.487 92.9192C206.896 92.3801 207.449 92.1105 208.146 92.1105C208.837 92.1105 209.39 92.3828 209.804 92.9274C210.218 93.4665 210.425 94.1718 210.425 95.0432C210.425 95.9091 210.221 96.6116 209.812 97.1508C209.398 97.6954 208.843 97.9677 208.146 97.9677C207.449 97.9677 206.896 97.7008 206.487 97.1671C206.079 96.628 205.875 95.9227 205.875 95.0513C205.875 94.1745 206.079 93.4638 206.487 92.9192ZM206.569 95.0513C206.569 95.7103 206.713 96.2495 207.002 96.6688C207.291 97.0827 207.672 97.2897 208.146 97.2897C208.63 97.2897 209.014 97.08 209.298 96.6606C209.586 96.2359 209.73 95.6967 209.73 95.0432C209.73 94.3896 209.586 93.8505 209.298 93.4257C209.009 92.9955 208.625 92.7803 208.146 92.7803C207.661 92.7803 207.277 92.9955 206.994 93.4257C206.711 93.8505 206.569 94.3924 206.569 95.0513ZM211.73 92.9192C212.127 92.3801 212.661 92.1105 213.331 92.1105C213.832 92.1105 214.257 92.263 214.605 92.5679C214.959 92.8729 215.188 93.2541 215.291 93.7116H214.581C214.51 93.4502 214.363 93.2242 214.139 93.0336C213.916 92.8375 213.641 92.7395 213.314 92.7395C212.841 92.7395 212.468 92.9492 212.195 93.3685C211.928 93.7824 211.795 94.2971 211.795 94.9125L211.811 95.2311C211.909 94.9043 212.105 94.6347 212.399 94.4223C212.699 94.2045 213.05 94.0956 213.453 94.0956C213.998 94.101 214.45 94.2916 214.809 94.6674C215.174 95.0377 215.357 95.4843 215.357 96.0071C215.357 96.5572 215.174 97.0228 214.809 97.404C214.444 97.7798 213.96 97.9677 213.355 97.9677C212.685 97.9677 212.146 97.7145 211.738 97.208C211.335 96.696 211.133 95.9881 211.133 95.084C211.133 94.1854 211.332 93.4638 211.73 92.9192ZM211.991 96.0153C211.991 96.3911 212.119 96.7042 212.375 96.9547C212.625 97.2053 212.939 97.3305 213.314 97.3305C213.69 97.3305 214.006 97.2053 214.262 96.9547C214.523 96.7042 214.654 96.3911 214.654 96.0153C214.654 95.645 214.523 95.3318 214.262 95.0758C214.006 94.8144 213.69 94.6837 213.314 94.6837C212.944 94.6837 212.631 94.8117 212.375 95.0677C212.119 95.3236 211.991 95.6395 211.991 96.0153ZM216.047 96.2849C216.047 95.9418 216.148 95.6504 216.349 95.4108C216.551 95.1712 216.815 94.9996 217.142 94.8961C216.869 94.7927 216.638 94.6347 216.447 94.4223C216.257 94.2099 216.161 93.9376 216.161 93.6054C216.161 93.1534 216.36 92.7912 216.758 92.5189C217.155 92.2466 217.635 92.1105 218.196 92.1105C218.751 92.1105 219.228 92.2466 219.625 92.5189C220.023 92.7912 220.221 93.1534 220.221 93.6054C220.221 93.9376 220.123 94.2127 219.927 94.4305C219.737 94.6429 219.508 94.7981 219.241 94.8961C219.568 94.9996 219.832 95.1712 220.034 95.4108C220.241 95.6504 220.344 95.9418 220.344 96.2849C220.344 96.7641 220.145 97.1644 219.748 97.4857C219.345 97.807 218.827 97.9677 218.196 97.9677C217.564 97.9677 217.046 97.807 216.643 97.4857C216.246 97.1644 216.047 96.7641 216.047 96.2849ZM216.766 96.2685C216.766 96.6007 216.905 96.8622 217.183 97.0528C217.455 97.2488 217.793 97.3468 218.196 97.3468C218.599 97.3468 218.936 97.2515 219.209 97.0609C219.486 96.8649 219.625 96.6007 219.625 96.2685C219.625 95.9418 219.494 95.6749 219.233 95.468C218.977 95.261 218.631 95.1575 218.196 95.1575C217.76 95.1575 217.411 95.261 217.15 95.468C216.894 95.6749 216.766 95.9418 216.766 96.2685ZM217.256 94.3815C217.507 94.5775 217.82 94.6756 218.196 94.6756C218.566 94.6756 218.876 94.5803 219.127 94.3896C219.383 94.1936 219.511 93.9512 219.511 93.6626C219.511 93.3849 219.383 93.1588 219.127 92.9846C218.876 92.8103 218.566 92.7232 218.196 92.7232C217.831 92.7232 217.52 92.813 217.264 92.9927C217.008 93.167 216.88 93.3903 216.88 93.6626C216.88 93.9458 217.006 94.1854 217.256 94.3815ZM221.075 97.1099C221.167 97.0119 221.284 96.9629 221.426 96.9629C221.568 96.9629 221.687 97.0119 221.785 97.1099C221.883 97.208 221.932 97.3278 221.932 97.4694C221.932 97.611 221.883 97.7308 221.785 97.8288C221.687 97.9214 221.568 97.9677 221.426 97.9677C221.29 97.9677 221.173 97.9187 221.075 97.8207C220.977 97.7226 220.928 97.6055 220.928 97.4694C220.928 97.3278 220.977 97.208 221.075 97.1099ZM223.161 92.9192C223.569 92.3801 224.122 92.1105 224.819 92.1105C225.511 92.1105 226.063 92.3828 226.477 92.9274C226.891 93.4665 227.098 94.1718 227.098 95.0432C227.098 95.9091 226.894 96.6116 226.485 97.1508C226.071 97.6954 225.516 97.9677 224.819 97.9677C224.122 97.9677 223.569 97.7008 223.161 97.1671C222.752 96.628 222.548 95.9227 222.548 95.0513C222.548 94.1745 222.752 93.4638 223.161 92.9192ZM223.242 95.0513C223.242 95.7103 223.387 96.2495 223.675 96.6688C223.964 97.0827 224.345 97.2897 224.819 97.2897C225.304 97.2897 225.688 97.08 225.971 96.6606C226.259 96.2359 226.404 95.6967 226.404 95.0432C226.404 94.3896 226.259 93.8505 225.971 93.4257C225.682 92.9955 225.298 92.7803 224.819 92.7803C224.334 92.7803 223.95 92.9955 223.667 93.4257C223.384 93.8505 223.242 94.3924 223.242 95.0513ZM228.362 92.9192C228.77 92.3801 229.323 92.1105 230.02 92.1105C230.712 92.1105 231.265 92.3828 231.679 92.9274C232.092 93.4665 232.299 94.1718 232.299 95.0432C232.299 95.9091 232.095 96.6116 231.687 97.1508C231.273 97.6954 230.717 97.9677 230.02 97.9677C229.323 97.9677 228.77 97.7008 228.362 97.1671C227.953 96.628 227.749 95.9227 227.749 95.0513C227.749 94.1745 227.953 93.4638 228.362 92.9192ZM228.444 95.0513C228.444 95.7103 228.588 96.2495 228.877 96.6688C229.165 97.0827 229.546 97.2897 230.02 97.2897C230.505 97.2897 230.889 97.08 231.172 96.6606C231.461 96.2359 231.605 95.6967 231.605 95.0432C231.605 94.3896 231.461 93.8505 231.172 93.4257C230.883 92.9955 230.5 92.7803 230.02 92.7803C229.536 92.7803 229.152 92.9955 228.868 93.4257C228.585 93.8505 228.444 94.3924 228.444 95.0513Z" fill="#07080C"/>
<path d="M200.261 108.522L197.309 105.57L194.357 108.522M197.309 112.33V105.653" stroke="#2DAE5E" stroke-width="0.875256" stroke-miterlimit="10" stroke-linecap="round" stroke-linejoin="round"/>
<path d="M205.064 108.934V107.512H205.693V108.934H207.156V109.563H205.693V110.984L205.064 110.992V109.571H203.594V108.934H205.064ZM209.412 111.572V106.516H207.795V105.854H210.107V111.572H209.412ZM211.037 110.78C211.129 110.682 211.246 110.633 211.388 110.633C211.53 110.633 211.649 110.682 211.747 110.78C211.845 110.878 211.894 110.998 211.894 111.139C211.894 111.281 211.845 111.401 211.747 111.499C211.649 111.591 211.53 111.638 211.388 111.638C211.252 111.638 211.135 111.589 211.037 111.491C210.939 111.393 210.89 111.275 210.89 111.139C210.89 110.998 210.939 110.878 211.037 110.78ZM212.631 107.578C212.664 107.017 212.86 106.578 213.22 106.262C213.585 105.941 214.028 105.78 214.551 105.78C215.052 105.78 215.48 105.927 215.834 106.222C216.193 106.516 216.373 106.93 216.373 107.463C216.373 107.719 216.31 107.962 216.185 108.19C216.065 108.419 215.872 108.678 215.605 108.966L213.832 110.902H216.463L216.455 111.572H212.762V111.09L215.099 108.55C215.218 108.414 215.311 108.302 215.376 108.215C215.447 108.128 215.512 108.016 215.572 107.88C215.638 107.744 215.673 107.61 215.679 107.48C215.679 107.474 215.679 107.466 215.679 107.455C215.679 107.15 215.572 106.9 215.36 106.704C215.148 106.507 214.878 106.409 214.551 106.409C214.208 106.409 213.925 106.518 213.702 106.736C213.484 106.954 213.359 107.234 213.326 107.578H212.631ZM216.929 109.865L219.347 105.854H220.524V109.783H221.389V110.396H220.524V111.572H219.829V110.396L216.929 110.404V109.865ZM217.681 109.791L219.829 109.783V106.295L217.681 109.791ZM224.739 110.486C224.739 110.159 224.853 109.881 225.082 109.653C225.316 109.424 225.594 109.309 225.915 109.309C226.237 109.309 226.512 109.424 226.74 109.653C226.975 109.881 227.092 110.159 227.092 110.486C227.092 110.807 226.975 111.085 226.74 111.319C226.512 111.548 226.237 111.662 225.915 111.662C225.589 111.662 225.311 111.548 225.082 111.319C224.853 111.085 224.739 110.807 224.739 110.486ZM222.46 106.099C222.688 105.87 222.964 105.756 223.285 105.756C223.606 105.756 223.881 105.87 224.11 106.099C224.344 106.328 224.461 106.605 224.461 106.932C224.461 107.254 224.344 107.529 224.11 107.757C223.881 107.986 223.606 108.1 223.285 108.1C222.958 108.1 222.68 107.986 222.452 107.757C222.223 107.529 222.108 107.254 222.108 106.932C222.108 106.605 222.226 106.328 222.46 106.099ZM222.296 111.572L226.512 105.854H227.083L222.868 111.572H222.296ZM222.574 106.932C222.574 107.128 222.645 107.294 222.787 107.431C222.923 107.567 223.089 107.635 223.285 107.635C223.481 107.635 223.647 107.567 223.783 107.431C223.919 107.294 223.987 107.128 223.987 106.932C223.987 106.731 223.919 106.562 223.783 106.426C223.652 106.284 223.486 106.213 223.285 106.213C223.083 106.213 222.915 106.284 222.778 106.426C222.642 106.562 222.574 106.731 222.574 106.932ZM225.417 110.992C225.553 111.128 225.719 111.196 225.915 111.196C226.111 111.196 226.277 111.128 226.414 110.992C226.555 110.856 226.626 110.69 226.626 110.494C226.626 110.292 226.558 110.124 226.422 109.987C226.286 109.846 226.117 109.775 225.915 109.775C225.714 109.775 225.545 109.846 225.409 109.987C225.278 110.124 225.213 110.292 225.213 110.494C225.213 110.69 225.281 110.856 225.417 110.992Z" fill="#2DAE5E"/>
<rect x="260.16" y="94.4023" width="47.0041" height="16.0021" rx="4.66803" fill="#DFE0E8"/>
<path d="M268.345 99.0029V103.904H267.617V99.0029H268.345ZM267.652 97.6935C267.741 97.6048 267.851 97.5604 267.981 97.5604C268.112 97.5604 268.224 97.6071 268.317 97.7005C268.411 97.7892 268.457 97.8989 268.457 98.0296C268.457 98.1603 268.411 98.27 268.317 98.3587C268.224 98.452 268.112 98.4987 267.981 98.4987C267.851 98.4987 267.739 98.4544 267.645 98.3657C267.557 98.2723 267.512 98.1603 267.512 98.0296C267.512 97.8989 267.559 97.7868 267.652 97.6935ZM269.083 101.23C269.083 100.889 269.226 100.62 269.51 100.424C269.8 100.228 270.159 100.13 270.589 100.13C271.135 100.13 271.616 100.268 272.031 100.543V101.223C271.499 100.896 271.018 100.732 270.589 100.732C270.365 100.732 270.178 100.777 270.029 100.865C269.879 100.954 269.805 101.073 269.805 101.223C269.805 101.297 269.826 101.36 269.868 101.412C269.91 101.463 269.977 101.51 270.071 101.552C270.169 101.589 270.26 101.619 270.344 101.643C270.432 101.666 270.558 101.694 270.722 101.727C270.806 101.745 270.871 101.759 270.918 101.769C271.357 101.871 271.674 102.016 271.87 102.203C272.071 102.385 272.174 102.611 272.178 102.882C272.178 103.227 272.045 103.491 271.779 103.673C271.513 103.851 271.189 103.946 270.806 103.96L270.743 104.121C270.845 104.145 270.948 104.175 271.051 104.212C271.154 104.25 271.261 104.322 271.373 104.429C271.49 104.537 271.548 104.661 271.548 104.801C271.548 104.95 271.483 105.071 271.352 105.165C271.221 105.258 271.065 105.316 270.883 105.34C270.705 105.368 270.54 105.382 270.386 105.382C270.232 105.382 270.11 105.372 270.022 105.354V104.885C270.143 104.903 270.262 104.913 270.379 104.913C270.481 104.913 270.61 104.901 270.764 104.878C270.923 104.854 271.002 104.791 271.002 104.689C271.002 104.595 270.923 104.523 270.764 104.471C270.605 104.42 270.458 104.387 270.323 104.373L270.463 103.946C270.001 103.9 269.562 103.734 269.146 103.449V102.714C269.31 102.873 269.538 103.017 269.833 103.148C270.131 103.279 270.421 103.344 270.701 103.344C270.911 103.344 271.088 103.302 271.233 103.218C271.382 103.129 271.457 103.015 271.457 102.875C271.457 102.609 271.123 102.413 270.456 102.287C269.984 102.193 269.636 102.067 269.412 101.909C269.193 101.745 269.083 101.519 269.083 101.23ZM272.779 103.904V99.0029H273.479V103.904H272.779ZM274.71 100.69C275.079 100.317 275.527 100.13 276.055 100.13C276.521 100.13 276.93 100.287 277.28 100.599C277.635 100.907 277.847 101.29 277.917 101.748C277.94 101.86 277.952 101.965 277.952 102.063C277.952 102.147 277.943 102.226 277.924 102.301H274.843C274.885 102.614 275.018 102.866 275.242 103.057C275.471 103.244 275.742 103.337 276.055 103.337C276.269 103.337 276.475 103.29 276.671 103.197C276.872 103.099 277.035 102.968 277.161 102.805L277.784 102.966C277.635 103.265 277.399 103.505 277.077 103.687C276.755 103.869 276.414 103.96 276.055 103.96C275.518 103.96 275.065 103.774 274.696 103.4C274.332 103.027 274.15 102.576 274.15 102.049C274.15 101.517 274.337 101.064 274.71 100.69ZM274.843 101.762H277.238C277.191 101.477 277.058 101.239 276.839 101.047C276.619 100.851 276.356 100.753 276.048 100.753C275.735 100.753 275.466 100.851 275.242 101.047C275.018 101.239 274.885 101.477 274.843 101.762ZM278.543 100.193H279.243V100.739C279.495 100.333 279.855 100.13 280.321 100.13C280.578 100.13 280.812 100.196 281.022 100.326C281.232 100.457 281.395 100.646 281.512 100.893C281.638 100.655 281.815 100.469 282.044 100.333C282.273 100.198 282.52 100.13 282.786 100.13C283.169 100.13 283.496 100.266 283.766 100.536C284.037 100.807 284.173 101.176 284.173 101.643V103.904H283.472V101.825C283.472 101.493 283.4 101.234 283.255 101.047C283.111 100.861 282.91 100.767 282.653 100.767C282.364 100.767 282.137 100.868 281.974 101.068C281.811 101.269 281.722 101.514 281.708 101.804V103.904H281.008V101.825C281.008 101.493 280.933 101.234 280.784 101.047C280.639 100.861 280.441 100.767 280.188 100.767C279.885 100.767 279.652 100.877 279.488 101.096C279.325 101.316 279.243 101.584 279.243 101.902V103.904H278.543V100.193ZM286.607 99.0029H287.384L288.735 101.496L290.087 99.0029H290.864L289.107 102.294V103.904H288.378V102.308L286.607 99.0029ZM291.032 100.683C291.391 100.315 291.828 100.13 292.341 100.13C292.888 100.13 293.315 100.347 293.623 100.781V100.193H294.323V103.904H293.623V103.316C293.483 103.517 293.301 103.676 293.077 103.792C292.857 103.904 292.612 103.96 292.341 103.96C291.828 103.96 291.389 103.774 291.025 103.4C290.666 103.022 290.486 102.572 290.486 102.049C290.486 101.512 290.668 101.057 291.032 100.683ZM291.144 102.049C291.144 102.399 291.265 102.7 291.508 102.952C291.756 103.199 292.054 103.323 292.404 103.323C292.75 103.323 293.046 103.197 293.294 102.945C293.541 102.693 293.665 102.394 293.665 102.049C293.665 101.699 293.541 101.398 293.294 101.145C293.046 100.893 292.75 100.767 292.404 100.767C292.05 100.767 291.751 100.893 291.508 101.145C291.265 101.393 291.144 101.694 291.144 102.049ZM295.097 100.193H295.797V100.774C296.101 100.35 296.528 100.137 297.079 100.137C297.588 100.137 298.024 100.326 298.388 100.704C298.752 101.078 298.934 101.526 298.934 102.049C298.934 102.581 298.752 103.034 298.388 103.407C298.029 103.776 297.592 103.96 297.079 103.96C296.808 103.96 296.561 103.904 296.336 103.792C296.117 103.676 295.937 103.517 295.797 103.316V105.375H295.097V100.193ZM295.755 102.049C295.755 102.399 295.879 102.7 296.126 102.952C296.369 103.204 296.666 103.33 297.016 103.33C297.366 103.33 297.662 103.204 297.905 102.952C298.152 102.7 298.276 102.399 298.276 102.049C298.276 101.694 298.155 101.393 297.912 101.145C297.669 100.893 297.37 100.767 297.016 100.767C296.67 100.767 296.374 100.893 296.126 101.145C295.879 101.398 295.755 101.699 295.755 102.049Z" fill="#00124D"/>
<rect x="103.229" y="81.1062" width="208.311" height="42.5958" rx="4.37628" stroke="#F7F8FC" stroke-width="0.583504"/>
</g>
<g filter="url(#filter1_dd_432_28748)">
<rect x="59.8789" y="143.133" width="208.895" height="43.1793" rx="4.66803" fill="white"/>
<g clip-path="url(#clip1_432_28748)">
<path d="M74.5075 148.771H76.1942L72.6841 152.247C71.4129 153.505 69.352 153.505 68.0799 152.247L64.5684 148.771H66.2564L68.9232 151.412C69.3118 151.795 69.8354 152.009 70.381 152.009C70.9265 152.009 71.4501 151.795 71.8387 151.412L74.5075 148.771Z" fill="#23292F"/>
<path d="M66.2347 158.436H64.5469L68.0798 154.94C69.351 153.682 71.4119 153.682 72.684 154.94L76.217 158.436H74.5303L71.8407 155.775C71.4521 155.392 70.9285 155.177 70.3829 155.177C69.8374 155.177 69.3138 155.392 68.9252 155.775L66.2347 158.436Z" fill="#23292F"/>
</g>
<path d="M81.2197 156.137L83.0577 153.278L81.2197 150.418H82.1836L83.8011 152.918L85.4186 150.418H86.3744L84.5363 153.278L86.3744 156.137H85.4186L83.8011 153.637L82.1836 156.137H81.2197ZM87.1186 156.137V150.418H89.6265C90.1711 150.418 90.6177 150.601 90.9662 150.966C91.3202 151.331 91.4972 151.766 91.4972 152.273C91.4972 152.681 91.3774 153.041 91.1378 153.351C90.8981 153.656 90.5904 153.86 90.2147 153.964L91.5707 156.137H90.6149L89.3161 154.062H87.96V156.137H87.1186ZM89.5693 153.318C89.8906 153.318 90.1548 153.22 90.3617 153.024C90.5741 152.823 90.6803 152.564 90.6803 152.248C90.6803 151.943 90.585 151.69 90.3944 151.489C90.2038 151.282 89.9478 151.178 89.6265 151.178H87.96V153.318H89.5693ZM92.328 156.137V150.418H94.8359C95.3859 150.418 95.8352 150.601 96.1838 150.966C96.5323 151.331 96.7066 151.774 96.7066 152.297C96.7066 152.831 96.5323 153.278 96.1838 153.637C95.8352 153.996 95.3859 154.176 94.8359 154.176H93.1775V156.137H92.328ZM93.1775 153.416H94.7868C95.1299 153.416 95.3995 153.308 95.5956 153.09C95.7916 152.872 95.8897 152.602 95.8897 152.281C95.8897 151.96 95.7916 151.698 95.5956 151.497C95.3995 151.29 95.1299 151.186 94.7868 151.186H93.1775V153.416Z" fill="black"/>
<path d="M98.1462 156.137L100.278 150.418H101.079L98.9467 156.137H98.1462Z" fill="black"/>
<path d="M101.609 150.418H106.191V151.203H104.353V156.137H103.512V151.203H101.609V150.418ZM106.943 156.137V150.418H109.451C109.995 150.418 110.442 150.601 110.79 150.966C111.144 151.331 111.321 151.766 111.321 152.273C111.321 152.681 111.201 153.041 110.962 153.351C110.722 153.656 110.415 153.86 110.039 153.964L111.395 156.137H110.439L109.14 154.062H107.784V156.137H106.943ZM109.393 153.318C109.715 153.318 109.979 153.22 110.186 153.024C110.398 152.823 110.504 152.564 110.504 152.248C110.504 151.943 110.409 151.69 110.218 151.489C110.028 151.282 109.772 151.178 109.451 151.178H107.784V153.318H109.393ZM111.404 150.418H112.311L113.887 153.327L115.464 150.418H116.371L114.32 154.258V156.137H113.471V154.274L111.404 150.418Z" fill="#3E4353"/>
<path d="M64.944 173.173L64.5469 173.259V181.644H121.73V170.102L121.333 168.826C120.936 167.549 120.142 164.996 119.348 164.568C118.553 164.141 117.759 165.84 116.965 166.945C116.171 168.049 115.377 168.558 114.582 169.771C113.788 170.984 112.994 172.899 112.2 171.622C111.406 170.345 110.611 165.876 109.817 163.663C109.023 161.45 108.229 161.493 107.434 162.353C106.64 163.212 105.846 164.889 105.052 167.651C104.258 170.412 103.463 174.26 102.669 175.051C101.875 175.842 101.081 173.576 100.287 173.677C99.4923 173.778 98.6981 176.244 97.9039 176.878C97.1097 177.512 96.3154 176.313 95.5212 176.616C94.727 176.919 93.9328 178.725 93.1386 177.171C92.3444 175.617 91.5502 170.703 90.7559 169.35C89.9617 167.996 89.1675 170.202 88.3733 172.689C87.5791 175.176 86.7849 177.943 85.9907 179.057C85.1964 180.171 84.4022 179.632 83.608 178.334C82.8138 177.037 82.0196 174.983 81.2254 174.783C80.4312 174.583 79.6369 176.238 78.8427 176.896C78.0485 177.554 77.2543 177.215 76.4601 175.447C75.6659 173.68 74.8717 170.485 74.0774 168.955C73.2832 167.425 72.489 167.56 71.6948 168.42C70.9006 169.28 70.1064 170.865 69.3122 171.707C68.5179 172.549 67.7237 172.648 66.9295 172.783C66.1353 172.918 65.3411 173.088 64.944 173.173Z" fill="url(#paint1_linear_432_28748)" fill-opacity="0.8"/>
<path d="M64.5469 173.259L64.944 173.173C65.3411 173.088 66.1353 172.918 66.9295 172.783C67.7237 172.648 68.5179 172.549 69.3122 171.707C70.1064 170.865 70.9006 169.28 71.6948 168.42C72.489 167.56 73.2832 167.425 74.0774 168.955C74.8717 170.485 75.6659 173.68 76.4601 175.447C77.2543 177.215 78.0485 177.554 78.8427 176.896C79.6369 176.238 80.4312 174.583 81.2254 174.783C82.0196 174.983 82.8138 177.037 83.608 178.334C84.4022 179.632 85.1964 180.171 85.9907 179.057C86.7849 177.943 87.5791 175.176 88.3733 172.689C89.1675 170.202 89.9617 167.996 90.7559 169.35C91.5502 170.703 92.3444 175.617 93.1386 177.171C93.9328 178.725 94.727 176.919 95.5212 176.616C96.3154 176.313 97.1097 177.512 97.9039 176.878C98.6981 176.244 99.4923 173.778 100.287 173.677C101.081 173.576 101.875 175.842 102.669 175.051C103.463 174.26 104.258 170.412 105.052 167.651C105.846 164.889 106.64 163.212 107.434 162.353C108.229 161.493 109.023 161.45 109.817 163.663C110.611 165.876 111.406 170.345 112.2 171.622C112.994 172.899 113.788 170.984 114.582 169.771C115.377 168.558 116.171 168.049 116.965 166.945C117.759 165.84 118.553 164.141 119.348 164.568C120.142 164.996 120.936 167.549 121.333 168.826L121.73 170.102" stroke="#2DAE5E" stroke-width="0.583504" stroke-linecap="round"/>
<path d="M149.445 158.285C149.456 158.699 149.579 159.014 149.813 159.232C150.053 159.445 150.36 159.575 150.736 159.624V157.607C149.483 157.356 148.857 156.836 148.857 156.046C148.857 155.611 149.034 155.243 149.388 154.943C149.742 154.639 150.191 154.47 150.736 154.437V153.865H151.21V154.445C151.765 154.494 152.223 154.679 152.582 155.001C152.942 155.317 153.13 155.739 153.146 156.267L152.435 156.259C152.413 155.899 152.288 155.624 152.059 155.434C151.831 155.243 151.547 155.126 151.21 155.082V157.059C151.798 157.146 152.266 157.323 152.615 157.59C152.969 157.852 153.146 158.214 153.146 158.677C153.146 159.145 152.974 159.526 152.631 159.82C152.288 160.109 151.814 160.264 151.21 160.286V160.94H150.736V160.262C150.164 160.202 149.688 160.011 149.306 159.69C148.931 159.363 148.743 158.895 148.743 158.285H149.445ZM152.125 159.379C152.348 159.21 152.46 158.982 152.46 158.693C152.46 158.426 152.351 158.219 152.133 158.072C151.915 157.92 151.607 157.803 151.21 157.721V159.649C151.591 159.638 151.896 159.548 152.125 159.379ZM149.535 156.022C149.535 156.485 149.935 156.798 150.736 156.961V155.066C150.36 155.088 150.066 155.191 149.854 155.376C149.641 155.562 149.535 155.777 149.535 156.022Z" fill="#07080C"/>
<path d="M156.344 160.221V155.164H154.726V154.502H157.038V160.221H156.344ZM157.903 156.389C157.903 155.85 158.091 155.39 158.467 155.009C158.848 154.622 159.333 154.429 159.921 154.429C160.585 154.429 161.119 154.688 161.522 155.205C161.925 155.717 162.126 156.419 162.126 157.313C162.126 158.211 161.928 158.933 161.53 159.477C161.138 160.016 160.604 160.286 159.929 160.286C159.417 160.286 158.987 160.134 158.638 159.829C158.295 159.524 158.072 159.14 157.968 158.677H158.679C158.755 158.944 158.902 159.172 159.12 159.363C159.344 159.554 159.616 159.649 159.937 159.649C160.406 159.649 160.77 159.445 161.032 159.036C161.299 158.622 161.438 158.127 161.448 157.549C161.448 157.337 161.446 157.212 161.44 157.174C161.359 157.495 161.171 157.765 160.877 157.982C160.583 158.195 160.248 158.301 159.872 158.301C159.861 158.301 159.85 158.301 159.839 158.301C159.278 158.296 158.815 158.11 158.45 157.745C158.085 157.375 157.903 156.923 157.903 156.389ZM158.998 157.304C159.259 157.56 159.572 157.688 159.937 157.688C160.297 157.688 160.607 157.563 160.868 157.313C161.13 157.057 161.261 156.746 161.261 156.381C161.261 156.011 161.13 155.698 160.868 155.442C160.612 155.186 160.302 155.058 159.937 155.058C159.572 155.058 159.259 155.186 158.998 155.442C158.736 155.698 158.606 156.011 158.606 156.381C158.606 156.746 158.736 157.054 158.998 157.304ZM163.429 155.238C163.837 154.698 164.39 154.429 165.087 154.429C165.779 154.429 166.332 154.701 166.745 155.246C167.159 155.785 167.366 156.49 167.366 157.362C167.366 158.227 167.162 158.93 166.754 159.469C166.34 160.014 165.784 160.286 165.087 160.286C164.39 160.286 163.837 160.019 163.429 159.485C163.02 158.946 162.816 158.241 162.816 157.37C162.816 156.493 163.02 155.782 163.429 155.238ZM163.51 157.37C163.51 158.029 163.655 158.568 163.943 158.987C164.232 159.401 164.613 159.608 165.087 159.608C165.572 159.608 165.956 159.398 166.239 158.979C166.528 158.554 166.672 158.015 166.672 157.362C166.672 156.708 166.528 156.169 166.239 155.744C165.95 155.314 165.566 155.099 165.087 155.099C164.602 155.099 164.218 155.314 163.935 155.744C163.652 156.169 163.51 156.711 163.51 157.37ZM168.671 155.238C169.069 154.698 169.602 154.429 170.272 154.429C170.773 154.429 171.198 154.581 171.547 154.886C171.901 155.191 172.129 155.573 172.233 156.03H171.522C171.451 155.769 171.304 155.543 171.081 155.352C170.858 155.156 170.583 155.058 170.256 155.058C169.782 155.058 169.409 155.268 169.137 155.687C168.87 156.101 168.736 156.615 168.736 157.231L168.753 157.549C168.851 157.223 169.047 156.953 169.341 156.741C169.64 156.523 169.992 156.414 170.395 156.414C170.939 156.419 171.391 156.61 171.751 156.986C172.116 157.356 172.298 157.803 172.298 158.325C172.298 158.876 172.116 159.341 171.751 159.722C171.386 160.098 170.901 160.286 170.297 160.286C169.627 160.286 169.088 160.033 168.679 159.526C168.276 159.014 168.075 158.306 168.075 157.402C168.075 156.504 168.273 155.782 168.671 155.238ZM168.932 158.334C168.932 158.709 169.06 159.023 169.316 159.273C169.567 159.524 169.88 159.649 170.256 159.649C170.632 159.649 170.947 159.524 171.203 159.273C171.465 159.023 171.596 158.709 171.596 158.334C171.596 157.963 171.465 157.65 171.203 157.394C170.947 157.133 170.632 157.002 170.256 157.002C169.885 157.002 169.572 157.13 169.316 157.386C169.06 157.642 168.932 157.958 168.932 158.334ZM172.988 158.603C172.988 158.26 173.089 157.969 173.291 157.729C173.492 157.49 173.756 157.318 174.083 157.214C173.811 157.111 173.579 156.953 173.389 156.741C173.198 156.528 173.103 156.256 173.103 155.924C173.103 155.472 173.302 155.11 173.699 154.837C174.097 154.565 174.576 154.429 175.137 154.429C175.692 154.429 176.169 154.565 176.567 154.837C176.964 155.11 177.163 155.472 177.163 155.924C177.163 156.256 177.065 156.531 176.869 156.749C176.678 156.961 176.449 157.116 176.183 157.214C176.509 157.318 176.773 157.49 176.975 157.729C177.182 157.969 177.285 158.26 177.285 158.603C177.285 159.082 177.087 159.483 176.689 159.804C176.286 160.125 175.769 160.286 175.137 160.286C174.505 160.286 173.988 160.125 173.585 159.804C173.187 159.483 172.988 159.082 172.988 158.603ZM173.707 158.587C173.707 158.919 173.846 159.181 174.124 159.371C174.396 159.567 174.734 159.665 175.137 159.665C175.54 159.665 175.878 159.57 176.15 159.379C176.428 159.183 176.567 158.919 176.567 158.587C176.567 158.26 176.436 157.993 176.174 157.786C175.918 157.579 175.573 157.476 175.137 157.476C174.701 157.476 174.353 157.579 174.091 157.786C173.835 157.993 173.707 158.26 173.707 158.587ZM174.198 156.7C174.448 156.896 174.761 156.994 175.137 156.994C175.507 156.994 175.818 156.899 176.068 156.708C176.324 156.512 176.452 156.27 176.452 155.981C176.452 155.703 176.324 155.477 176.068 155.303C175.818 155.129 175.507 155.042 175.137 155.042C174.772 155.042 174.462 155.131 174.206 155.311C173.95 155.485 173.822 155.709 173.822 155.981C173.822 156.264 173.947 156.504 174.198 156.7ZM178.016 159.428C178.109 159.33 178.226 159.281 178.367 159.281C178.509 159.281 178.629 159.33 178.727 159.428C178.825 159.526 178.874 159.646 178.874 159.788C178.874 159.929 178.825 160.049 178.727 160.147C178.629 160.24 178.509 160.286 178.367 160.286C178.231 160.286 178.114 160.237 178.016 160.139C177.918 160.041 177.869 159.924 177.869 159.788C177.869 159.646 177.918 159.526 178.016 159.428ZM180.102 155.238C180.51 154.698 181.063 154.429 181.76 154.429C182.452 154.429 183.005 154.701 183.419 155.246C183.832 155.785 184.039 156.49 184.039 157.362C184.039 158.227 183.835 158.93 183.427 159.469C183.013 160.014 182.457 160.286 181.76 160.286C181.063 160.286 180.51 160.019 180.102 159.485C179.694 158.946 179.489 158.241 179.489 157.37C179.489 156.493 179.694 155.782 180.102 155.238ZM180.184 157.37C180.184 158.029 180.328 158.568 180.617 158.987C180.905 159.401 181.286 159.608 181.76 159.608C182.245 159.608 182.629 159.398 182.912 158.979C183.201 158.554 183.345 158.015 183.345 157.362C183.345 156.708 183.201 156.169 182.912 155.744C182.623 155.314 182.24 155.099 181.76 155.099C181.276 155.099 180.892 155.314 180.608 155.744C180.325 156.169 180.184 156.711 180.184 157.37ZM185.303 155.238C185.712 154.698 186.265 154.429 186.962 154.429C187.653 154.429 188.206 154.701 188.62 155.246C189.034 155.785 189.241 156.49 189.241 157.362C189.241 158.227 189.037 158.93 188.628 159.469C188.214 160.014 187.659 160.286 186.962 160.286C186.265 160.286 185.712 160.019 185.303 159.485C184.895 158.946 184.691 158.241 184.691 157.37C184.691 156.493 184.895 155.782 185.303 155.238ZM185.385 157.37C185.385 158.029 185.529 158.568 185.818 158.987C186.107 159.401 186.488 159.608 186.962 159.608C187.446 159.608 187.83 159.398 188.114 158.979C188.402 158.554 188.546 158.015 188.546 157.362C188.546 156.708 188.402 156.169 188.114 155.744C187.825 155.314 187.441 155.099 186.962 155.099C186.477 155.099 186.093 155.314 185.81 155.744C185.527 156.169 185.385 156.711 185.385 157.37Z" fill="#07080C"/>
<path d="M157.202 170.84L154.25 167.889L151.299 170.84M154.25 174.648V167.971" stroke="#2DAE5E" stroke-width="0.875256" stroke-miterlimit="10" stroke-linecap="round" stroke-linejoin="round"/>
<path d="M162.006 171.252V169.831H162.635V171.252H164.097V171.881H162.635V173.302L162.006 173.311V171.889H160.535V171.252H162.006ZM166.354 173.891V168.834H164.736V168.172H167.048V173.891H166.354ZM167.978 173.098C168.071 173 168.188 172.951 168.329 172.951C168.471 172.951 168.591 173 168.689 173.098C168.787 173.196 168.836 173.316 168.836 173.458C168.836 173.599 168.787 173.719 168.689 173.817C168.591 173.91 168.471 173.956 168.329 173.956C168.193 173.956 168.076 173.907 167.978 173.809C167.88 173.711 167.831 173.594 167.831 173.458C167.831 173.316 167.88 173.196 167.978 173.098ZM169.573 169.896C169.606 169.335 169.802 168.897 170.161 168.581C170.526 168.259 170.97 168.099 171.493 168.099C171.994 168.099 172.421 168.246 172.775 168.54C173.135 168.834 173.314 169.248 173.314 169.782C173.314 170.038 173.252 170.28 173.126 170.509C173.007 170.737 172.813 170.996 172.546 171.285L170.774 173.221H173.404L173.396 173.891H169.704V173.409L172.04 170.868C172.16 170.732 172.252 170.62 172.318 170.533C172.388 170.446 172.454 170.334 172.514 170.198C172.579 170.062 172.615 169.929 172.62 169.798C172.62 169.792 172.62 169.784 172.62 169.773C172.62 169.468 172.514 169.218 172.301 169.022C172.089 168.826 171.819 168.728 171.493 168.728C171.15 168.728 170.866 168.837 170.643 169.055C170.425 169.272 170.3 169.553 170.267 169.896H169.573ZM173.871 172.183L176.289 168.172H177.465V172.102H178.331V172.714H177.465V173.891H176.771V172.714L173.871 172.722V172.183ZM174.622 172.11L176.771 172.102V168.613L174.622 172.11ZM181.68 172.804C181.68 172.477 181.795 172.2 182.023 171.971C182.258 171.742 182.535 171.628 182.857 171.628C183.178 171.628 183.453 171.742 183.682 171.971C183.916 172.2 184.033 172.477 184.033 172.804C184.033 173.125 183.916 173.403 183.682 173.637C183.453 173.866 183.178 173.98 182.857 173.98C182.53 173.98 182.252 173.866 182.023 173.637C181.795 173.403 181.68 173.125 181.68 172.804ZM179.401 168.417C179.63 168.189 179.905 168.074 180.226 168.074C180.548 168.074 180.823 168.189 181.051 168.417C181.285 168.646 181.403 168.924 181.403 169.251C181.403 169.572 181.285 169.847 181.051 170.076C180.823 170.304 180.548 170.419 180.226 170.419C179.899 170.419 179.622 170.304 179.393 170.076C179.164 169.847 179.05 169.572 179.05 169.251C179.05 168.924 179.167 168.646 179.401 168.417ZM179.238 173.891L183.453 168.172H184.025L179.81 173.891H179.238ZM179.516 169.251C179.516 169.447 179.586 169.613 179.728 169.749C179.864 169.885 180.03 169.953 180.226 169.953C180.422 169.953 180.588 169.885 180.725 169.749C180.861 169.613 180.929 169.447 180.929 169.251C180.929 169.049 180.861 168.88 180.725 168.744C180.594 168.603 180.428 168.532 180.226 168.532C180.025 168.532 179.856 168.603 179.72 168.744C179.584 168.88 179.516 169.049 179.516 169.251ZM182.358 173.311C182.495 173.447 182.661 173.515 182.857 173.515C183.053 173.515 183.219 173.447 183.355 173.311C183.497 173.174 183.567 173.008 183.567 172.812C183.567 172.611 183.499 172.442 183.363 172.306C183.227 172.164 183.058 172.093 182.857 172.093C182.655 172.093 182.486 172.164 182.35 172.306C182.219 172.442 182.154 172.611 182.154 172.812C182.154 173.008 182.222 173.174 182.358 173.311Z" fill="#2DAE5E"/>
<rect x="217.102" y="156.721" width="47.0041" height="16.0021" rx="4.66803" fill="#DFE0E8"/>
<path d="M225.287 161.321V166.223H224.559V161.321H225.287ZM224.594 160.012C224.682 159.923 224.792 159.879 224.923 159.879C225.053 159.879 225.165 159.925 225.259 160.019C225.352 160.108 225.399 160.217 225.399 160.348C225.399 160.479 225.352 160.588 225.259 160.677C225.165 160.77 225.053 160.817 224.923 160.817C224.792 160.817 224.68 160.773 224.587 160.684C224.498 160.591 224.454 160.479 224.454 160.348C224.454 160.217 224.5 160.105 224.594 160.012ZM226.025 163.548C226.025 163.207 226.167 162.939 226.452 162.743C226.741 162.547 227.101 162.449 227.53 162.449C228.076 162.449 228.557 162.586 228.973 162.862V163.541C228.44 163.214 227.96 163.051 227.53 163.051C227.306 163.051 227.119 163.095 226.97 163.184C226.821 163.272 226.746 163.391 226.746 163.541C226.746 163.616 226.767 163.679 226.809 163.73C226.851 163.781 226.919 163.828 227.012 163.87C227.11 163.907 227.201 163.938 227.285 163.961C227.374 163.984 227.5 164.012 227.663 164.045C227.747 164.064 227.813 164.078 227.859 164.087C228.298 164.19 228.615 164.334 228.812 164.521C229.012 164.703 229.115 164.93 229.12 165.2C229.12 165.546 228.987 165.81 228.72 165.992C228.454 166.169 228.13 166.265 227.747 166.279L227.684 166.44C227.787 166.463 227.89 166.493 227.992 166.531C228.095 166.568 228.202 166.64 228.314 166.748C228.431 166.855 228.489 166.979 228.489 167.119C228.489 167.268 228.424 167.39 228.293 167.483C228.163 167.576 228.006 167.635 227.824 167.658C227.647 167.686 227.481 167.7 227.327 167.7C227.173 167.7 227.052 167.691 226.963 167.672V167.203C227.084 167.222 227.203 167.231 227.32 167.231C227.423 167.231 227.551 167.219 227.705 167.196C227.864 167.173 227.943 167.11 227.943 167.007C227.943 166.914 227.864 166.841 227.705 166.79C227.546 166.738 227.399 166.706 227.264 166.692L227.404 166.265C226.942 166.218 226.503 166.052 226.088 165.768V165.032C226.251 165.191 226.48 165.336 226.774 165.466C227.073 165.597 227.362 165.662 227.642 165.662C227.852 165.662 228.03 165.62 228.174 165.536C228.324 165.448 228.398 165.333 228.398 165.193C228.398 164.927 228.065 164.731 227.397 164.605C226.926 164.512 226.578 164.386 226.354 164.227C226.134 164.064 226.025 163.837 226.025 163.548ZM229.72 166.223V161.321H230.42V166.223H229.72ZM231.652 163.009C232.02 162.635 232.469 162.449 232.996 162.449C233.463 162.449 233.871 162.605 234.221 162.918C234.576 163.226 234.789 163.609 234.859 164.066C234.882 164.178 234.894 164.283 234.894 164.381C234.894 164.465 234.884 164.544 234.866 164.619H231.785C231.827 164.932 231.96 165.184 232.184 165.375C232.413 165.562 232.683 165.655 232.996 165.655C233.211 165.655 233.416 165.609 233.612 165.515C233.813 165.417 233.976 165.287 234.102 165.123L234.726 165.284C234.576 165.583 234.34 165.824 234.018 166.006C233.696 166.188 233.355 166.279 232.996 166.279C232.459 166.279 232.006 166.092 231.638 165.719C231.274 165.345 231.091 164.895 231.091 164.367C231.091 163.835 231.278 163.382 231.652 163.009ZM231.785 164.08H234.179C234.133 163.795 234 163.557 233.78 163.366C233.561 163.17 233.297 163.072 232.989 163.072C232.676 163.072 232.408 163.17 232.184 163.366C231.96 163.557 231.827 163.795 231.785 164.08ZM235.484 162.512H236.185V163.058C236.437 162.652 236.796 162.449 237.263 162.449C237.52 162.449 237.753 162.514 237.963 162.645C238.173 162.775 238.337 162.964 238.453 163.212C238.579 162.974 238.757 162.787 238.985 162.652C239.214 162.516 239.462 162.449 239.728 162.449C240.11 162.449 240.437 162.584 240.708 162.855C240.979 163.125 241.114 163.494 241.114 163.961V166.223H240.414V164.143C240.414 163.812 240.341 163.553 240.197 163.366C240.052 163.179 239.851 163.086 239.595 163.086C239.305 163.086 239.079 163.186 238.915 163.387C238.752 163.588 238.663 163.833 238.649 164.122V166.223H237.949V164.143C237.949 163.812 237.874 163.553 237.725 163.366C237.58 163.179 237.382 163.086 237.13 163.086C236.826 163.086 236.593 163.195 236.43 163.415C236.266 163.634 236.185 163.903 236.185 164.22V166.223H235.484V162.512ZM243.548 161.321H244.325L245.677 163.814L247.028 161.321H247.805L246.048 164.612V166.223H245.32V164.626L243.548 161.321ZM247.973 163.002C248.333 162.633 248.769 162.449 249.283 162.449C249.829 162.449 250.256 162.666 250.564 163.1V162.512H251.264V166.223H250.564V165.634C250.424 165.835 250.242 165.994 250.018 166.111C249.799 166.223 249.554 166.279 249.283 166.279C248.769 166.279 248.331 166.092 247.966 165.719C247.607 165.34 247.427 164.89 247.427 164.367C247.427 163.83 247.609 163.375 247.973 163.002ZM248.085 164.367C248.085 164.717 248.207 165.018 248.45 165.27C248.697 165.518 248.996 165.641 249.346 165.641C249.691 165.641 249.988 165.515 250.235 165.263C250.483 165.011 250.606 164.713 250.606 164.367C250.606 164.017 250.483 163.716 250.235 163.464C249.988 163.212 249.691 163.086 249.346 163.086C248.991 163.086 248.692 163.212 248.45 163.464C248.207 163.711 248.085 164.012 248.085 164.367ZM252.039 162.512H252.739V163.093C253.042 162.668 253.469 162.456 254.02 162.456C254.529 162.456 254.965 162.645 255.329 163.023C255.694 163.396 255.876 163.844 255.876 164.367C255.876 164.899 255.694 165.352 255.329 165.726C254.97 166.094 254.534 166.279 254.02 166.279C253.749 166.279 253.502 166.223 253.278 166.111C253.058 165.994 252.879 165.835 252.739 165.634V167.693H252.039V162.512ZM252.697 164.367C252.697 164.717 252.82 165.018 253.068 165.27C253.311 165.522 253.607 165.648 253.957 165.648C254.307 165.648 254.604 165.522 254.846 165.27C255.094 165.018 255.217 164.717 255.217 164.367C255.217 164.012 255.096 163.711 254.853 163.464C254.611 163.212 254.312 163.086 253.957 163.086C253.612 163.086 253.315 163.212 253.068 163.464C252.82 163.716 252.697 164.017 252.697 164.367Z" fill="#00124D"/>
<rect x="60.1707" y="143.425" width="208.311" height="42.5958" rx="4.37628" stroke="#F7F8FC" stroke-width="0.583504"/>
</g>
<g filter="url(#filter2_dd_432_28748)">
<rect x="77.2812" y="18.4941" width="208.895" height="43.1793" rx="4.66803" fill="white"/>
<g clip-path="url(#clip2_432_28748)">
<path d="M93.4356 30.4165C92.6563 33.5424 89.4902 35.4448 86.3639 34.6653C83.2389 33.886 81.3365 30.7197 82.1162 27.594C82.8951 24.4677 86.0612 22.5652 89.1866 23.3445C92.3126 24.1238 94.2149 27.2905 93.4355 30.4165L93.4356 30.4165H93.4356Z" fill="#F7931A"/>
<path d="M90.3572 28.1642C90.4734 27.3877 89.8822 26.9703 89.0738 26.6918L89.336 25.64L88.6957 25.4804L88.4405 26.5046C88.2721 26.4626 88.0993 26.423 87.9274 26.3838L88.1846 25.3529L87.5447 25.1934L87.2823 26.2449C87.143 26.2132 87.0062 26.1818 86.8734 26.1488L86.8742 26.1455L85.9912 25.925L85.8209 26.6089C85.8209 26.6089 86.2959 26.7178 86.2859 26.7245C86.5452 26.7892 86.5921 26.9608 86.5843 27.0969L86.2856 28.2952C86.3034 28.2997 86.3266 28.3063 86.3521 28.3165C86.3308 28.3112 86.308 28.3054 86.2845 28.2998L85.8657 29.9785C85.834 30.0572 85.7536 30.1755 85.5723 30.1306C85.5788 30.1399 85.107 30.0144 85.107 30.0144L84.7891 30.7474L85.6223 30.9551C85.7773 30.994 85.9292 31.0346 86.0788 31.0729L85.8139 32.1368L86.4534 32.2964L86.7158 31.2437C86.8905 31.2912 87.0601 31.3349 87.2261 31.3761L86.9646 32.4238L87.6049 32.5834L87.8698 31.5214C88.9617 31.7281 89.7827 31.6448 90.1282 30.6572C90.4067 29.8621 90.1144 29.4035 89.5399 29.1044C89.9583 29.0079 90.2735 28.7327 90.3575 28.1643L90.3573 28.1642L90.3572 28.1642ZM88.8943 30.2156C88.6964 31.0107 87.3577 30.5809 86.9237 30.4731L87.2753 29.0636C87.7093 29.172 89.1011 29.3864 88.8943 30.2156H88.8943ZM89.0923 28.1527C88.9118 28.8759 87.7976 28.5085 87.4361 28.4184L87.7549 27.14C88.1164 27.2301 89.2804 27.3983 89.0924 28.1527H89.0923Z" fill="white"/>
</g>
<path d="M101.318 25.7797C101.846 25.7797 102.265 25.9186 102.576 26.1963C102.886 26.4686 103.042 26.8226 103.042 27.2583C103.042 27.5578 102.968 27.8247 102.821 28.0589C102.679 28.2876 102.483 28.4564 102.233 28.5654C102.914 28.7995 103.254 29.2624 103.254 29.9541C103.254 30.4225 103.093 30.7982 102.772 31.0814C102.451 31.3592 102.009 31.498 101.449 31.498H98.7854V25.7797H101.318ZM99.6023 28.9575V30.7383H101.391C101.702 30.7383 101.947 30.6594 102.127 30.5014C102.306 30.338 102.396 30.1148 102.396 29.8316C102.396 29.5484 102.301 29.3332 102.11 29.1862C101.92 29.0337 101.672 28.9575 101.367 28.9575H99.6023ZM99.6023 26.5394V28.2713H101.261C101.555 28.2713 101.789 28.1896 101.963 28.0262C102.143 27.8628 102.233 27.6504 102.233 27.389C102.233 27.1385 102.148 26.9343 101.98 26.7763C101.811 26.6184 101.582 26.5394 101.293 26.5394H99.6023ZM103.734 25.7797H108.317V26.5639H106.479V31.498H105.638V26.5639H103.734V25.7797ZM109.499 26.5558C110.06 25.9839 110.741 25.698 111.541 25.698C112.124 25.698 112.647 25.8614 113.11 26.1882C113.573 26.5095 113.918 26.9343 114.147 27.4625L113.338 27.6913C113.175 27.3318 112.935 27.0459 112.619 26.8335C112.304 26.6157 111.944 26.5068 111.541 26.5068C111.536 26.5068 111.528 26.5068 111.517 26.5068C110.939 26.5068 110.457 26.711 110.071 27.1194C109.684 27.5224 109.491 28.0235 109.491 28.6225C109.491 29.2107 109.684 29.709 110.071 30.1175C110.463 30.5259 110.953 30.7302 111.541 30.7302C111.95 30.7302 112.306 30.6267 112.611 30.4197C112.922 30.2128 113.159 29.9296 113.322 29.5701L114.139 29.7907C113.916 30.3135 113.573 30.7356 113.11 31.0569C112.652 31.3782 112.129 31.5389 111.541 31.5389C110.735 31.5389 110.052 31.2557 109.491 30.6893C108.93 30.1175 108.649 29.4286 108.649 28.6225C108.649 27.8165 108.932 27.1276 109.499 26.5558Z" fill="black"/>
<path d="M115.549 31.498L117.681 25.7797H118.481L116.349 31.498H115.549Z" fill="black"/>
<path d="M119.011 25.7797H123.594V26.5639H121.756V31.498H120.914V26.5639H119.011V25.7797ZM124.345 31.498V25.7797H126.853C127.398 25.7797 127.844 25.9621 128.193 26.327C128.547 26.6919 128.724 27.1276 128.724 27.6341C128.724 28.0425 128.604 28.402 128.364 28.7124C128.125 29.0174 127.817 29.2216 127.441 29.3251L128.797 31.498H127.841L126.542 29.4231H125.186V31.498H124.345ZM126.796 28.6797C127.117 28.6797 127.381 28.5817 127.588 28.3856C127.801 28.1841 127.907 27.9254 127.907 27.6096C127.907 27.3046 127.811 27.0514 127.621 26.8499C127.43 26.6429 127.174 26.5394 126.853 26.5394H125.186V28.6797H126.796ZM128.806 25.7797H129.713L131.29 28.6879L132.866 25.7797H133.773L131.723 29.6192V31.498H130.873V29.6355L128.806 25.7797Z" fill="#3E4353"/>
<path d="M82.3463 48.5347L81.9492 48.6199V57.0052H139.133V45.4638L138.736 44.1871C138.338 42.9103 137.544 40.3569 136.75 39.9297C135.956 39.5025 135.162 41.2016 134.367 42.3059C133.573 43.4102 132.779 43.9198 131.985 45.1323C131.19 46.3448 130.396 48.2603 129.602 46.9833C128.808 45.7064 128.014 41.237 127.219 39.024C126.425 36.8109 125.631 36.8542 124.837 37.714C124.043 38.5738 123.248 40.2502 122.454 43.012C121.66 45.7738 120.866 49.6211 120.071 50.4121C119.277 51.2031 118.483 48.9377 117.689 49.0384C116.895 49.139 116.1 51.6057 115.306 52.2395C114.512 52.8732 113.718 51.674 112.924 51.9774C112.129 52.2807 111.335 54.0865 110.541 52.5325C109.747 50.9785 108.952 46.0647 108.158 44.7109C107.364 43.3572 106.57 45.5635 105.776 48.0503C104.981 50.5371 104.187 53.3044 103.393 54.4184C102.599 55.5323 101.805 54.9928 101.01 53.6958C100.216 52.3987 99.4219 50.344 98.6277 50.1441C97.8335 49.9443 97.0393 51.5992 96.2451 52.2571C95.4509 52.915 94.6566 52.5758 93.8624 50.8086C93.0682 49.0414 92.274 45.8462 91.4798 44.3162C90.6856 42.7862 89.8914 42.9214 89.0971 43.7816C88.3029 44.6417 87.5087 46.2268 86.7145 47.0688C85.9203 47.9107 85.1261 48.0096 84.3319 48.1443C83.5376 48.279 82.7434 48.4495 82.3463 48.5347Z" fill="url(#paint2_linear_432_28748)" fill-opacity="0.8"/>
<path d="M81.9492 48.6199L82.3463 48.5347C82.7434 48.4495 83.5376 48.279 84.3319 48.1443C85.1261 48.0096 85.9203 47.9107 86.7145 47.0688C87.5087 46.2268 88.3029 44.6417 89.0971 43.7816C89.8914 42.9214 90.6856 42.7862 91.4798 44.3162C92.274 45.8462 93.0682 49.0414 93.8624 50.8086C94.6566 52.5758 95.4509 52.915 96.2451 52.2571C97.0393 51.5992 97.8335 49.9443 98.6277 50.1441C99.4219 50.344 100.216 52.3987 101.01 53.6958C101.805 54.9928 102.599 55.5323 103.393 54.4184C104.187 53.3044 104.981 50.5371 105.776 48.0503C106.57 45.5635 107.364 43.3572 108.158 44.7109C108.952 46.0647 109.747 50.9785 110.541 52.5325C111.335 54.0865 112.129 52.2807 112.924 51.9774C113.718 51.674 114.512 52.8732 115.306 52.2395C116.1 51.6057 116.895 49.139 117.689 49.0384C118.483 48.9377 119.277 51.2031 120.071 50.4121C120.866 49.6211 121.66 45.7738 122.454 43.012C123.248 40.2502 124.043 38.5738 124.837 37.714C125.631 36.8542 126.425 36.8109 127.219 39.024C128.014 41.237 128.808 45.7064 129.602 46.9833C130.396 48.2603 131.19 46.3449 131.985 45.1323C132.779 43.9198 133.573 43.4102 134.367 42.3059C135.162 41.2016 135.956 39.5025 136.75 39.9297C137.544 40.3569 138.338 42.9103 138.736 44.1871L139.133 45.4638" stroke="#2DAE5E" stroke-width="0.583504" stroke-linecap="round"/>
<rect x="166.395" y="27.2461" width="40.8453" height="11.6701" rx="5.83504" fill="#EDEFF5"/>
<path d="M175.18 46.5355L172.229 43.584L169.277 46.5355M172.229 50.3433V43.6666" stroke="#2DAE5E" stroke-width="0.875256" stroke-miterlimit="10" stroke-linecap="round" stroke-linejoin="round"/>
<path d="M179.984 46.9473V45.5259H180.613V46.9473H182.075V47.5763H180.613V48.9978L179.984 49.0059V47.5845H178.514V46.9473H179.984ZM184.332 49.5859V44.5293H182.715V43.8676H185.027V49.5859H184.332ZM185.957 48.7935C186.049 48.6955 186.166 48.6465 186.308 48.6465C186.45 48.6465 186.569 48.6955 186.667 48.7935C186.765 48.8916 186.814 49.0114 186.814 49.153C186.814 49.2946 186.765 49.4144 186.667 49.5124C186.569 49.605 186.45 49.6513 186.308 49.6513C186.172 49.6513 186.055 49.6023 185.957 49.5042C185.859 49.4062 185.81 49.2891 185.81 49.153C185.81 49.0114 185.859 48.8916 185.957 48.7935ZM187.551 45.5913C187.584 45.0303 187.78 44.5919 188.14 44.276C188.504 43.9547 188.948 43.7941 189.471 43.7941C189.972 43.7941 190.4 43.9411 190.754 44.2352C191.113 44.5293 191.293 44.9432 191.293 45.4769C191.293 45.7329 191.23 45.9752 191.105 46.2039C190.985 46.4327 190.792 46.6914 190.525 46.98L188.752 48.9161H191.383L191.375 49.5859H187.682V49.104L190.018 46.5634C190.138 46.4272 190.231 46.3156 190.296 46.2285C190.367 46.1413 190.432 46.0297 190.492 45.8935C190.558 45.7574 190.593 45.6239 190.598 45.4932C190.598 45.4878 190.598 45.4796 190.598 45.4687C190.598 45.1638 190.492 44.9132 190.28 44.7172C190.067 44.5211 189.798 44.4231 189.471 44.4231C189.128 44.4231 188.845 44.532 188.622 44.7499C188.404 44.9677 188.278 45.2482 188.246 45.5913H187.551ZM191.849 47.8786L194.267 43.8676H195.443V47.7969H196.309V48.4096H195.443V49.5859H194.749V48.4096L191.849 48.4178V47.8786ZM192.601 47.8051L194.749 47.7969V44.3087L192.601 47.8051ZM199.659 48.4995C199.659 48.1727 199.773 47.8949 200.002 47.6662C200.236 47.4375 200.514 47.3231 200.835 47.3231C201.157 47.3231 201.432 47.4375 201.66 47.6662C201.894 47.8949 202.012 48.1727 202.012 48.4995C202.012 48.8208 201.894 49.0985 201.66 49.3327C201.432 49.5614 201.157 49.6758 200.835 49.6758C200.508 49.6758 200.231 49.5614 200.002 49.3327C199.773 49.0985 199.659 48.8208 199.659 48.4995ZM197.38 44.1127C197.608 43.8839 197.883 43.7696 198.205 43.7696C198.526 43.7696 198.801 43.8839 199.03 44.1127C199.264 44.3414 199.381 44.6191 199.381 44.9459C199.381 45.2672 199.264 45.5423 199.03 45.771C198.801 45.9997 198.526 46.1141 198.205 46.1141C197.878 46.1141 197.6 45.9997 197.372 45.771C197.143 45.5423 197.028 45.2672 197.028 44.9459C197.028 44.6191 197.146 44.3414 197.38 44.1127ZM197.216 49.5859L201.432 43.8676H202.003L197.788 49.5859H197.216ZM197.494 44.9459C197.494 45.142 197.565 45.3081 197.706 45.4442C197.843 45.5804 198.009 45.6485 198.205 45.6485C198.401 45.6485 198.567 45.5804 198.703 45.4442C198.839 45.3081 198.907 45.142 198.907 44.9459C198.907 44.7444 198.839 44.5756 198.703 44.4394C198.572 44.2978 198.406 44.227 198.205 44.227C198.003 44.227 197.834 44.2978 197.698 44.4394C197.562 44.5756 197.494 44.7444 197.494 44.9459ZM200.337 49.0059C200.473 49.1421 200.639 49.2102 200.835 49.2102C201.031 49.2102 201.197 49.1421 201.334 49.0059C201.475 48.8698 201.546 48.7037 201.546 48.5076C201.546 48.3061 201.478 48.1373 201.342 48.0011C201.206 47.8595 201.037 47.7887 200.835 47.7887C200.634 47.7887 200.465 47.8595 200.329 48.0011C200.198 48.1373 200.133 48.3061 200.133 48.5076C200.133 48.7037 200.201 48.8698 200.337 49.0059Z" fill="#2DAE5E"/>
<rect x="234.504" y="32.082" width="47.0041" height="16.0021" rx="4.66803" fill="#DFE0E8"/>
<path d="M242.689 36.6825V41.584H241.961V36.6825H242.689ZM241.996 35.3732C242.085 35.2845 242.194 35.2401 242.325 35.2401C242.456 35.2401 242.568 35.2868 242.661 35.3802C242.755 35.4689 242.801 35.5786 242.801 35.7093C242.801 35.84 242.755 35.9497 242.661 36.0384C242.568 36.1317 242.456 36.1784 242.325 36.1784C242.194 36.1784 242.082 36.1341 241.989 36.0454C241.9 35.952 241.856 35.84 241.856 35.7093C241.856 35.5786 241.903 35.4665 241.996 35.3732ZM243.427 38.9092C243.427 38.5684 243.569 38.3 243.854 38.104C244.144 37.9079 244.503 37.8099 244.932 37.8099C245.479 37.8099 245.959 37.9476 246.375 38.223V38.9022C245.843 38.5754 245.362 38.4121 244.932 38.4121C244.708 38.4121 244.522 38.4564 244.372 38.5451C244.223 38.6338 244.148 38.7528 244.148 38.9022C244.148 38.9769 244.169 39.0399 244.211 39.0913C244.253 39.1426 244.321 39.1893 244.414 39.2313C244.512 39.2686 244.603 39.299 244.687 39.3223C244.776 39.3457 244.902 39.3737 245.066 39.4063C245.15 39.425 245.215 39.439 245.262 39.4484C245.7 39.5511 246.018 39.6958 246.214 39.8825C246.415 40.0645 246.517 40.2909 246.522 40.5617C246.522 40.9071 246.389 41.1709 246.123 41.3529C245.857 41.5303 245.532 41.626 245.15 41.64L245.087 41.801C245.189 41.8244 245.292 41.8547 245.395 41.8921C245.497 41.9294 245.605 42.0018 245.717 42.1091C245.833 42.2165 245.892 42.3402 245.892 42.4802C245.892 42.6296 245.826 42.751 245.696 42.8444C245.565 42.9377 245.409 42.9961 245.227 43.0194C245.049 43.0474 244.883 43.0614 244.729 43.0614C244.575 43.0614 244.454 43.0521 244.365 43.0334V42.5643C244.487 42.5829 244.606 42.5923 244.722 42.5923C244.825 42.5923 244.953 42.5806 245.108 42.5573C245.266 42.5339 245.346 42.4709 245.346 42.3682C245.346 42.2749 245.266 42.2025 245.108 42.1512C244.949 42.0998 244.802 42.0671 244.666 42.0531L244.806 41.626C244.344 41.5793 243.906 41.4136 243.49 41.1289V40.3936C243.653 40.5523 243.882 40.6971 244.176 40.8278C244.475 40.9585 244.764 41.0238 245.045 41.0238C245.255 41.0238 245.432 40.9818 245.577 40.8978C245.726 40.8091 245.801 40.6947 245.801 40.5547C245.801 40.2886 245.467 40.0925 244.799 39.9665C244.328 39.8731 243.98 39.7471 243.756 39.5884C243.537 39.425 243.427 39.1986 243.427 38.9092ZM247.122 41.584V36.6825H247.823V41.584H247.122ZM249.054 38.37C249.423 37.9966 249.871 37.8099 250.398 37.8099C250.865 37.8099 251.274 37.9663 251.624 38.279C251.978 38.5871 252.191 38.9699 252.261 39.4274C252.284 39.5394 252.296 39.6444 252.296 39.7424C252.296 39.8265 252.287 39.9058 252.268 39.9805H249.187C249.229 40.2933 249.362 40.5453 249.586 40.7367C249.815 40.9235 250.086 41.0168 250.398 41.0168C250.613 41.0168 250.818 40.9701 251.015 40.8768C251.215 40.7787 251.379 40.648 251.505 40.4847L252.128 40.6457C251.978 40.9445 251.743 41.1849 251.421 41.3669C251.099 41.549 250.758 41.64 250.398 41.64C249.862 41.64 249.409 41.4533 249.04 41.0798C248.676 40.7064 248.494 40.2559 248.494 39.7284C248.494 39.1963 248.681 38.7435 249.054 38.37ZM249.187 39.4414H251.582C251.535 39.1566 251.402 38.9185 251.183 38.7271C250.963 38.5311 250.699 38.4331 250.391 38.4331C250.079 38.4331 249.81 38.5311 249.586 38.7271C249.362 38.9185 249.229 39.1566 249.187 39.4414ZM252.887 37.8729H253.587V38.4191C253.839 38.0129 254.198 37.8099 254.665 37.8099C254.922 37.8099 255.155 37.8752 255.365 38.0059C255.575 38.1366 255.739 38.3257 255.856 38.5731C255.982 38.335 256.159 38.1483 256.388 38.0129C256.616 37.8776 256.864 37.8099 257.13 37.8099C257.513 37.8099 257.839 37.9453 258.11 38.216C258.381 38.4867 258.516 38.8555 258.516 39.3223V41.584H257.816V39.5044C257.816 39.1729 257.744 38.9139 257.599 38.7271C257.454 38.5404 257.254 38.4471 256.997 38.4471C256.707 38.4471 256.481 38.5474 256.318 38.7482C256.154 38.9489 256.066 39.194 256.052 39.4834V41.584H255.351V39.5044C255.351 39.1729 255.277 38.9139 255.127 38.7271C254.983 38.5404 254.784 38.4471 254.532 38.4471C254.229 38.4471 253.995 38.5568 253.832 38.7762C253.669 38.9956 253.587 39.264 253.587 39.5814V41.584H252.887V37.8729ZM260.951 36.6825H261.728L263.079 39.1753L264.431 36.6825H265.208L263.45 39.9735V41.584H262.722V39.9875L260.951 36.6825ZM265.376 38.363C265.735 37.9943 266.172 37.8099 266.685 37.8099C267.231 37.8099 267.658 38.0269 267.967 38.4611V37.8729H268.667V41.584H267.967V40.9958C267.827 41.1965 267.644 41.3553 267.42 41.472C267.201 41.584 266.956 41.64 266.685 41.64C266.172 41.64 265.733 41.4533 265.369 41.0798C265.009 40.7017 264.83 40.2513 264.83 39.7284C264.83 39.1916 265.012 38.7365 265.376 38.363ZM265.488 39.7284C265.488 40.0785 265.609 40.3796 265.852 40.6317C266.099 40.8791 266.398 41.0028 266.748 41.0028C267.094 41.0028 267.39 40.8768 267.637 40.6247C267.885 40.3726 268.009 40.0739 268.009 39.7284C268.009 39.3783 267.885 39.0773 267.637 38.8252C267.39 38.5731 267.094 38.4471 266.748 38.4471C266.393 38.4471 266.095 38.5731 265.852 38.8252C265.609 39.0726 265.488 39.3737 265.488 39.7284ZM269.441 37.8729H270.141V38.4541C270.444 38.0293 270.872 37.8169 271.422 37.8169C271.931 37.8169 272.368 38.0059 272.732 38.384C273.096 38.7575 273.278 39.2056 273.278 39.7284C273.278 40.2606 273.096 40.7134 272.732 41.0868C272.372 41.4556 271.936 41.64 271.422 41.64C271.152 41.64 270.904 41.584 270.68 41.472C270.461 41.3553 270.281 41.1965 270.141 40.9958V43.0544H269.441V37.8729ZM270.099 39.7284C270.099 40.0785 270.223 40.3796 270.47 40.6317C270.713 40.8838 271.009 41.0098 271.359 41.0098C271.71 41.0098 272.006 40.8838 272.249 40.6317C272.496 40.3796 272.62 40.0785 272.62 39.7284C272.62 39.3737 272.498 39.0726 272.256 38.8252C272.013 38.5731 271.714 38.4471 271.359 38.4471C271.014 38.4471 270.718 38.5731 270.47 38.8252C270.223 39.0773 270.099 39.3783 270.099 39.7284Z" fill="#00124D"/>
<rect x="77.573" y="18.7859" width="208.311" height="42.5958" rx="4.37628" stroke="#F7F8FC" stroke-width="0.583504"/>
</g>
<defs>
<filter id="filter0_dd_432_28748" x="82.9375" y="80.8145" width="248.895" height="83.1797" filterUnits="userSpaceOnUse" color-interpolation-filters="sRGB">
<feFlood flood-opacity="0" result="BackgroundImageFix"/>
<feColorMatrix in="SourceAlpha" type="matrix" values="0 0 0 0 0 0 0 0 0 0 0 0 0 0 0 0 0 0 127 0" result="hardAlpha"/>
<feMorphology radius="4" operator="erode" in="SourceAlpha" result="effect1_dropShadow_432_28748"/>
<feOffset dy="8"/>
<feGaussianBlur stdDeviation="4"/>
<feColorMatrix type="matrix" values="0 0 0 0 0.192569 0 0 0 0 0.292269 0 0 0 0 0.491667 0 0 0 0.03 0"/>
<feBlend mode="normal" in2="BackgroundImageFix" result="effect1_dropShadow_432_28748"/>
<feColorMatrix in="SourceAlpha" type="matrix" values="0 0 0 0 0 0 0 0 0 0 0 0 0 0 0 0 0 0 127 0" result="hardAlpha"/>
<feMorphology radius="4" operator="erode" in="SourceAlpha" result="effect2_dropShadow_432_28748"/>
<feOffset dy="20"/>
<feGaussianBlur stdDeviation="12"/>
<feColorMatrix type="matrix" values="0 0 0 0 0.166875 0 0 0 0 0.26125 0 0 0 0 0.45 0 0 0 0.08 0"/>
<feBlend mode="normal" in2="effect1_dropShadow_432_28748" result="effect2_dropShadow_432_28748"/>
<feBlend mode="normal" in="SourceGraphic" in2="effect2_dropShadow_432_28748" result="shape"/>
</filter>
<filter id="filter1_dd_432_28748" x="39.8789" y="143.133" width="248.895" height="83.1797" filterUnits="userSpaceOnUse" color-interpolation-filters="sRGB">
<feFlood flood-opacity="0" result="BackgroundImageFix"/>
<feColorMatrix in="SourceAlpha" type="matrix" values="0 0 0 0 0 0 0 0 0 0 0 0 0 0 0 0 0 0 127 0" result="hardAlpha"/>
<feMorphology radius="4" operator="erode" in="SourceAlpha" result="effect1_dropShadow_432_28748"/>
<feOffset dy="8"/>
<feGaussianBlur stdDeviation="4"/>
<feColorMatrix type="matrix" values="0 0 0 0 0.192569 0 0 0 0 0.292269 0 0 0 0 0.491667 0 0 0 0.03 0"/>
<feBlend mode="normal" in2="BackgroundImageFix" result="effect1_dropShadow_432_28748"/>
<feColorMatrix in="SourceAlpha" type="matrix" values="0 0 0 0 0 0 0 0 0 0 0 0 0 0 0 0 0 0 127 0" result="hardAlpha"/>
<feMorphology radius="4" operator="erode" in="SourceAlpha" result="effect2_dropShadow_432_28748"/>
<feOffset dy="20"/>
<feGaussianBlur stdDeviation="12"/>
<feColorMatrix type="matrix" values="0 0 0 0 0.166875 0 0 0 0 0.26125 0 0 0 0 0.45 0 0 0 0.08 0"/>
<feBlend mode="normal" in2="effect1_dropShadow_432_28748" result="effect2_dropShadow_432_28748"/>
<feBlend mode="normal" in="SourceGraphic" in2="effect2_dropShadow_432_28748" result="shape"/>
</filter>
<filter id="filter2_dd_432_28748" x="57.2812" y="18.4941" width="248.895" height="83.1797" filterUnits="userSpaceOnUse" color-interpolation-filters="sRGB">
<feFlood flood-opacity="0" result="BackgroundImageFix"/>
<feColorMatrix in="SourceAlpha" type="matrix" values="0 0 0 0 0 0 0 0 0 0 0 0 0 0 0 0 0 0 127 0" result="hardAlpha"/>
<feMorphology radius="4" operator="erode" in="SourceAlpha" result="effect1_dropShadow_432_28748"/>
<feOffset dy="8"/>
<feGaussianBlur stdDeviation="4"/>
<feColorMatrix type="matrix" values="0 0 0 0 0.192569 0 0 0 0 0.292269 0 0 0 0 0.491667 0 0 0 0.03 0"/>
<feBlend mode="normal" in2="BackgroundImageFix" result="effect1_dropShadow_432_28748"/>
<feColorMatrix in="SourceAlpha" type="matrix" values="0 0 0 0 0 0 0 0 0 0 0 0 0 0 0 0 0 0 127 0" result="hardAlpha"/>
<feMorphology radius="4" operator="erode" in="SourceAlpha" result="effect2_dropShadow_432_28748"/>
<feOffset dy="20"/>
<feGaussianBlur stdDeviation="12"/>
<feColorMatrix type="matrix" values="0 0 0 0 0.166875 0 0 0 0 0.26125 0 0 0 0 0.45 0 0 0 0.08 0"/>
<feBlend mode="normal" in2="effect1_dropShadow_432_28748" result="effect2_dropShadow_432_28748"/>
<feBlend mode="normal" in="SourceGraphic" in2="effect2_dropShadow_432_28748" result="shape"/>
</filter>
<linearGradient id="paint0_linear_432_28748" x1="136.197" y1="97.7504" x2="136.197" y2="119.325" gradientUnits="userSpaceOnUse">
<stop stop-color="#2DAE5E"/>
<stop offset="0.90625" stop-color="white" stop-opacity="0"/>
</linearGradient>
<linearGradient id="paint1_linear_432_28748" x1="93.1386" y1="160.069" x2="93.1386" y2="181.644" gradientUnits="userSpaceOnUse">
<stop stop-color="#2DAE5E"/>
<stop offset="0.90625" stop-color="white" stop-opacity="0"/>
</linearGradient>
<linearGradient id="paint2_linear_432_28748" x1="110.541" y1="35.4301" x2="110.541" y2="57.0052" gradientUnits="userSpaceOnUse">
<stop stop-color="#2DAE5E"/>
<stop offset="0.90625" stop-color="white" stop-opacity="0"/>
</linearGradient>
<clipPath id="clip0_432_28748">
<rect width="11.6701" height="11.6701" fill="white" transform="translate(107.605 85.4824)"/>
</clipPath>
<clipPath id="clip1_432_28748">
<rect width="11.6701" height="11.6701" fill="white" transform="translate(64.5469 147.801)"/>
</clipPath>
<clipPath id="clip2_432_28748">
<rect width="11.6701" height="11.6701" fill="white" transform="translate(81.9492 23.1621)"/>
</clipPath>
</defs>
</svg>
