<svg width="61" height="47" viewBox="0 0 61 47" fill="none" xmlns="http://www.w3.org/2000/svg">
<g clip-path="url(#clip0_4_10936)">
<path d="M22.7712 12.696C21.6221 17.3049 16.9541 20.1097 12.3447 18.9604C7.73722 17.8114 4.93236 13.1431 6.08187 8.53459C7.23038 3.92522 11.8984 1.12014 16.5064 2.26915C21.1155 3.41816 23.9202 8.08699 22.771 12.6961L22.7711 12.696H22.7712Z" fill="#F7931A"/>
<path d="M18.2312 9.37628C18.4024 8.2314 17.5308 7.61597 16.3389 7.20543L16.7255 5.65458L15.7815 5.41934L15.4051 6.92936C15.1569 6.86746 14.902 6.80914 14.6487 6.75132L15.0278 5.23133L14.0844 4.99609L13.6975 6.54644C13.4921 6.49968 13.2904 6.45347 13.0947 6.40477L13.0958 6.39989L11.7939 6.07479L11.5428 7.0831C11.5428 7.0831 12.2432 7.24365 12.2284 7.25353C12.6107 7.34895 12.6798 7.60201 12.6684 7.8026L12.2279 9.56938C12.2542 9.57607 12.2884 9.58574 12.3261 9.60088C12.2946 9.59306 12.2611 9.58452 12.2263 9.5762L11.6089 12.0512C11.5622 12.1674 11.4436 12.3417 11.1763 12.2755C11.1858 12.2892 10.4902 12.1042 10.4902 12.1042L10.0215 13.1849L11.25 13.4911C11.4786 13.5484 11.7025 13.6084 11.9231 13.6648L11.5324 15.2334L12.4754 15.4687L12.8623 13.9167C13.1199 13.9866 13.3699 14.0511 13.6146 14.1119L13.229 15.6566L14.1731 15.8918L14.5637 14.3261C16.1735 14.6308 17.384 14.508 17.8935 13.0519C18.304 11.8796 17.8731 11.2034 17.0261 10.7625C17.643 10.6202 18.1076 10.2145 18.2315 9.37641L18.2312 9.3762L18.2312 9.37628ZM16.0742 12.4009C15.7825 13.5732 13.8087 12.9395 13.1687 12.7805L13.6871 10.7024C14.327 10.8621 16.3791 11.1783 16.0743 12.4009H16.0742ZM16.3662 9.35929C16.1 10.4256 14.4572 9.88388 13.9243 9.75105L14.3943 7.86626C14.9272 7.9991 16.6434 8.24704 16.3663 9.35929H16.3662Z" fill="white"/>
</g>
<rect x="4.83594" y="1" width="19.2063" height="19.2063" rx="9.60313" stroke="white" stroke-width="2"/>
<g clip-path="url(#clip1_4_10936)">
<path d="M19.8239 38.485C18.6749 43.0939 14.0068 45.8988 9.39743 44.7495C4.78995 43.6005 1.98509 38.9321 3.1346 34.3237C4.28311 29.7143 8.95114 26.9092 13.5591 28.0582C18.1682 29.2072 20.9729 33.8761 19.8238 38.4851L19.8238 38.485H19.8239Z" fill="#F7931A"/>
<path d="M15.2839 35.1653C15.4551 34.0205 14.5835 33.405 13.3916 32.9945L13.7782 31.4436L12.8342 31.2084L12.4578 32.7184C12.2096 32.6565 11.9547 32.5982 11.7014 32.5404L12.0806 31.0204L11.1371 30.7852L10.7502 32.3355C10.5448 32.2887 10.3431 32.2425 10.1474 32.1938L10.1485 32.189L8.84664 31.8639L8.59551 32.8722C8.59551 32.8722 9.29592 33.0327 9.28116 33.0426C9.66344 33.138 9.73258 33.3911 9.7211 33.5917L9.28065 35.3584C9.30697 35.3651 9.34112 35.3748 9.3788 35.3899C9.3473 35.3821 9.31379 35.3736 9.27901 35.3653L8.66166 37.8403C8.61494 37.9564 8.49635 38.1307 8.22907 38.0645C8.23854 38.0782 7.54292 37.8933 7.54292 37.8933L7.07422 38.9739L8.30275 39.2802C8.5313 39.3375 8.75526 39.3975 8.97582 39.4539L8.58516 41.0225L9.52812 41.2577L9.91499 39.7058C10.1726 39.7757 10.4226 39.8402 10.6673 39.901L10.2818 41.4457L11.2259 41.6809L11.6165 40.1152C13.2263 40.4199 14.4367 40.297 14.9462 38.841C15.3568 37.6687 14.9258 36.9925 14.0789 36.5515C14.6957 36.4093 15.1603 36.0036 15.2842 35.1655L15.2839 35.1653L15.2839 35.1653ZM13.127 38.1899C12.8352 39.3622 10.8614 38.7285 10.2215 38.5696L10.7399 36.4914C11.3798 36.6512 13.4319 36.9673 13.127 38.1899H13.127ZM13.4189 35.1484C13.1528 36.2147 11.51 35.6729 10.977 35.5401L11.447 33.6553C11.98 33.7882 13.6962 34.0361 13.419 35.1484H13.4189Z" fill="white"/>
</g>
<rect x="1.88867" y="26.7891" width="19.2063" height="19.2063" rx="9.60313" stroke="white" stroke-width="2"/>
<g clip-path="url(#clip2_4_10936)">
<rect x="12.2871" y="15.6211" width="17.2063" height="17.2062" rx="8.6031" fill="white"/>
<path d="M17.5486 22.8513L20.8902 19.5097L24.2334 22.8527L26.1777 20.9084L20.8902 15.6211L15.6045 20.9068L17.5487 22.8511L17.5486 22.8513ZM12.2871 24.2242L14.2315 22.2795L16.1757 24.2238L14.2313 26.1681L12.2871 24.2242ZM17.5486 25.5973L20.8902 28.9387L24.2333 25.5957L26.1786 27.539L26.1777 27.54L20.8902 32.8273L15.6045 27.5415L15.6017 27.5388L17.5488 25.5971L17.5486 25.5973ZM25.6047 24.225L27.5491 22.2806L29.4933 24.2249L27.549 26.1692L25.6047 24.225Z" fill="#F3BA2F"/>
<path d="M22.8619 24.223H22.8628L20.89 22.25L19.4318 23.7078L19.2643 23.8754L18.9188 24.221L18.916 24.2237L18.9188 24.2265L20.89 26.198L22.8629 24.225L22.8639 24.2239L22.8621 24.223" fill="#F3BA2F"/>
</g>
<rect x="11.2871" y="14.6211" width="19.2063" height="19.2062" rx="9.6031" stroke="white" stroke-width="2"/>
<g clip-path="url(#clip3_4_10936)">
<path d="M28.777 19.2063C33.5283 19.2063 37.3801 15.3545 37.3801 10.6031C37.3801 5.85175 33.5283 2 28.777 2C24.0256 2 20.1738 5.85175 20.1738 10.6031C20.1738 15.3545 24.0256 19.2063 28.777 19.2063Z" fill="#23292F"/>
<path d="M32.5789 6.30078H34.1328L30.8986 9.50383C30.3331 10.061 29.5712 10.3732 28.7773 10.3732C27.9835 10.3732 27.2216 10.061 26.6561 9.50383L23.4192 6.30078H24.9758L27.4331 8.73278C27.7909 9.08597 28.2735 9.284 28.7763 9.284C29.2791 9.284 29.7616 9.08597 30.1194 8.73278L32.5789 6.30078ZM24.957 15.2066H23.4004L26.6561 11.9842C27.2216 11.4271 27.9835 11.1148 28.7773 11.1148C29.5712 11.1148 30.3331 11.4271 30.8986 11.9842L34.1543 15.2061H32.5977L30.1216 12.7531C29.7638 12.3999 29.2812 12.2019 28.7784 12.2019C28.2756 12.2019 27.7931 12.3999 27.4353 12.7531L24.9565 15.2066H24.957Z" fill="white"/>
</g>
<rect x="19.1738" y="1" width="19.2063" height="19.2063" rx="9.60313" stroke="white" stroke-width="2"/>
<g clip-path="url(#clip4_4_10936)">
<path d="M25.8297 44.9953C30.5811 44.9953 34.4328 41.1436 34.4328 36.3922C34.4328 31.6408 30.5811 27.7891 25.8297 27.7891C21.0783 27.7891 17.2266 31.6408 17.2266 36.3922C17.2266 41.1436 21.0783 44.9953 25.8297 44.9953Z" fill="#23292F"/>
<path d="M29.6316 32.0898H31.1855L27.9513 35.2929C27.3858 35.85 26.6239 36.1623 25.8301 36.1623C25.0363 36.1623 24.2743 35.85 23.7089 35.2929L20.4719 32.0898H22.0286L24.4858 34.5218C24.8437 34.875 25.3262 35.0731 25.829 35.0731C26.3318 35.0731 26.8143 34.875 27.1722 34.5218L29.6316 32.0898ZM22.0098 40.9957H20.4531L23.7089 37.7733C24.2743 37.2162 25.0363 36.9039 25.8301 36.9039C26.6239 36.9039 27.3858 37.2162 27.9513 37.7733L31.207 40.9952H29.6504L27.1743 38.5422C26.8165 38.189 26.3339 37.991 25.8312 37.991C25.3284 37.991 24.8458 38.189 24.488 38.5422L22.0092 40.9957H22.0098Z" fill="white"/>
</g>
<rect x="16.2266" y="26.7891" width="19.2063" height="19.2063" rx="9.60313" stroke="white" stroke-width="2"/>
<g clip-path="url(#clip5_4_10936)">
<rect x="26.627" y="15.6211" width="17.2063" height="17.2063" rx="8.60313" fill="white"/>
<path d="M35.9229 24.6303L38.9398 27.6471C38.9974 27.7051 39.0421 27.7747 39.0708 27.8513C39.0994 27.9279 39.1115 28.0098 39.106 28.0914C39.1006 28.173 39.0779 28.2525 39.0393 28.3247C39.0007 28.3968 38.9472 28.4599 38.8824 28.5097C38.0773 29.1421 37.1104 29.5349 36.0924 29.6433C35.0744 29.7516 34.0465 29.5711 33.1263 29.1224C32.2061 28.6737 31.4309 27.9749 30.8894 27.1061C30.3479 26.2373 30.0621 25.2335 30.0645 24.2098C30.067 23.1861 30.3577 22.1837 30.9034 21.3175C31.4491 20.4513 32.2276 19.7563 33.15 19.312C34.0723 18.8678 35.1011 18.6922 36.1185 18.8055C37.136 18.9187 38.101 19.3163 38.903 19.9525C38.9648 20.0032 39.0152 20.0664 39.051 20.1379C39.0867 20.2094 39.107 20.2877 39.1104 20.3676C39.1139 20.4474 39.1005 20.5271 39.0711 20.6015C39.0417 20.6758 38.9969 20.7431 38.9398 20.799L35.9206 23.8182C35.8676 23.8714 35.8255 23.9345 35.7967 24.004C35.7675 24.0769 35.7527 24.1548 35.7532 24.2334C35.7523 24.3122 35.7679 24.3904 35.799 24.4628C35.8272 24.5326 35.8694 24.5958 35.9229 24.6486V24.6303ZM35.2301 15.6211C33.5285 15.6211 31.8652 16.1257 30.4504 17.071C29.0357 18.0163 27.933 19.3599 27.2818 20.9319C26.6307 22.504 26.4603 24.2338 26.7923 25.9026C27.1242 27.5715 27.9436 29.1044 29.1468 30.3076C30.3499 31.5107 31.8829 32.3301 33.5517 32.662C35.2205 32.994 36.9503 32.8236 38.5224 32.1725C40.0944 31.5213 41.438 30.4186 42.3833 29.0039C43.3286 27.5891 43.8332 25.9258 43.8332 24.2242C43.8332 21.9425 42.9268 19.7543 41.3134 18.1409C39.7 16.5275 37.5118 15.6211 35.2301 15.6211V15.6211Z" fill="#69E2DC"/>
</g>
<rect x="25.627" y="14.6211" width="19.2063" height="19.2063" rx="9.60313" stroke="white" stroke-width="2"/>
<g clip-path="url(#clip6_4_10936)">
<path d="M43.8336 19.2063C48.585 19.2063 52.4367 15.3545 52.4367 10.6031C52.4367 5.85175 48.585 2 43.8336 2C39.0822 2 35.2305 5.85175 35.2305 10.6031C35.2305 15.3545 39.0822 19.2063 43.8336 19.2063Z" fill="#767DFF"/>
<path fill-rule="evenodd" clip-rule="evenodd" d="M42.6342 5.49414H45.0323C45.1154 5.4941 45.197 5.51619 45.2687 5.55815C45.3405 5.60011 45.3997 5.66042 45.4404 5.73288L49.1537 12.3567C49.1928 12.4266 49.2134 12.5053 49.2134 12.5853C49.2134 12.6653 49.1928 12.744 49.1537 12.8138L47.9654 14.9334C47.9249 15.0059 47.8657 15.0662 47.7941 15.1083C47.7225 15.1503 47.6409 15.1726 47.5579 15.1727H40.1086C40.0255 15.1726 39.9438 15.1505 39.8721 15.1084C39.8004 15.0664 39.7411 15.0059 39.7005 14.9334L38.5127 12.8138C38.4737 12.744 38.4531 12.6653 38.4531 12.5853C38.4531 12.5053 38.4737 12.4266 38.5127 12.3567L42.2261 5.73288C42.2668 5.66042 42.326 5.60011 42.3977 5.55815C42.4695 5.51619 42.5511 5.4941 42.6342 5.49414ZM43.8332 8.12939L41.3313 12.5853H46.3351L43.8332 8.12939Z" fill="white"/>
</g>
<rect x="34.2305" y="1" width="19.2063" height="19.2063" rx="9.60313" stroke="white" stroke-width="2"/>
<g clip-path="url(#clip7_4_10936)">
<path d="M40.8863 44.9953C45.6377 44.9953 49.4895 41.1436 49.4895 36.3922C49.4895 31.6408 45.6377 27.7891 40.8863 27.7891C36.135 27.7891 32.2832 31.6408 32.2832 36.3922C32.2832 41.1436 36.135 44.9953 40.8863 44.9953Z" fill="#767DFF"/>
<path fill-rule="evenodd" clip-rule="evenodd" d="M39.6869 31.2832H42.085C42.1681 31.2832 42.2497 31.3053 42.3215 31.3472C42.3932 31.3892 42.4525 31.4495 42.4931 31.5219L46.2065 38.1458C46.2456 38.2156 46.2661 38.2943 46.2661 38.3743C46.2661 38.4544 46.2456 38.533 46.2065 38.6029L45.0182 40.7224C44.9776 40.7949 44.9184 40.8553 44.8468 40.8973C44.7752 40.9394 44.6937 40.9616 44.6106 40.9617H37.1614C37.0782 40.9617 36.9966 40.9395 36.9248 40.8975C36.8531 40.8554 36.7939 40.795 36.7532 40.7224L35.5655 38.6029C35.5264 38.533 35.5059 38.4544 35.5059 38.3743C35.5059 38.2943 35.5264 38.2156 35.5655 38.1458L39.2788 31.5219C39.3195 31.4495 39.3787 31.3892 39.4505 31.3472C39.5222 31.3053 39.6038 31.2832 39.6869 31.2832ZM40.886 33.9184L38.3841 38.3743H43.3879L40.886 33.9184Z" fill="white"/>
</g>
<rect x="31.2832" y="26.7891" width="19.2063" height="19.2063" rx="9.60313" stroke="white" stroke-width="2"/>
<g clip-path="url(#clip8_4_10936)">
<rect x="41.6816" y="15.6211" width="17.2063" height="17.2063" rx="8.60313" fill="white"/>
<path fill-rule="evenodd" clip-rule="evenodd" d="M50.0578 15.6211C53.6084 15.6525 56.298 18.0223 56.8188 21.1722C57.4077 24.7334 54.991 28.1287 51.434 28.742C50.9538 28.8248 50.4631 28.8573 49.9756 28.8851C48.9876 28.9414 47.9882 29.6104 47.7563 30.9225C47.6898 31.2989 47.6008 31.6714 47.5206 32.0454C47.404 32.5886 46.9437 32.9113 46.4343 32.8083C45.9078 32.7018 45.6035 32.2306 45.7174 31.6774C45.8629 30.9703 46.0189 30.2653 46.1703 29.5594C46.6996 27.0921 47.2303 24.6251 47.7572 22.1573C47.8785 21.5892 48.2139 21.2789 48.7178 21.2887C49.2761 21.2996 49.7051 21.8148 49.5899 22.3616C49.314 23.6718 49.0261 24.9795 48.7437 26.2883C48.689 26.5414 48.6388 26.7955 48.5834 27.0485C48.561 27.1504 48.5788 27.2016 48.7003 27.1879C49.4496 27.1033 50.2008 27.0333 50.9488 26.9384C52.9401 26.6857 54.6079 25.1006 54.968 23.1317C55.4489 20.5023 53.7504 18.0419 51.1179 17.5546C48.4911 17.0683 45.906 18.9486 45.5544 21.5973C45.4577 22.3263 45.5233 23.0375 45.7532 23.7348C45.9312 24.2744 45.6861 24.8099 45.1878 24.9683C44.667 25.1338 44.1626 24.8539 43.9883 24.3027C42.7975 20.5372 44.9919 16.6839 48.8475 15.7921C49.3147 15.6841 49.8005 15.6562 50.0578 15.6211Z" fill="black"/>
<path fill-rule="evenodd" clip-rule="evenodd" d="M49.4258 31.7187C49.4278 31.1011 49.8996 30.631 50.5177 30.6309C51.1426 30.6307 51.6269 31.1161 51.6182 31.7337C51.6096 32.3494 51.1322 32.823 50.5199 32.8233C49.894 32.8237 49.4238 32.3489 49.4258 31.7187Z" fill="#E6027A"/>
</g>
<rect x="40.6816" y="14.6211" width="19.2063" height="19.2063" rx="9.60313" stroke="white" stroke-width="2"/>
<defs>
<clipPath id="clip0_4_10936">
<rect x="5.83594" y="2" width="17.2063" height="17.2063" rx="8.60313" fill="white"/>
</clipPath>
<clipPath id="clip1_4_10936">
<rect x="2.88867" y="27.7891" width="17.2063" height="17.2063" rx="8.60313" fill="white"/>
</clipPath>
<clipPath id="clip2_4_10936">
<rect x="12.2871" y="15.6211" width="17.2063" height="17.2062" rx="8.6031" fill="white"/>
</clipPath>
<clipPath id="clip3_4_10936">
<rect x="20.1738" y="2" width="17.2063" height="17.2063" rx="8.60313" fill="white"/>
</clipPath>
<clipPath id="clip4_4_10936">
<rect x="17.2266" y="27.7891" width="17.2063" height="17.2063" rx="8.60313" fill="white"/>
</clipPath>
<clipPath id="clip5_4_10936">
<rect x="26.627" y="15.6211" width="17.2063" height="17.2063" rx="8.60313" fill="white"/>
</clipPath>
<clipPath id="clip6_4_10936">
<rect x="35.2305" y="2" width="17.2063" height="17.2063" rx="8.60313" fill="white"/>
</clipPath>
<clipPath id="clip7_4_10936">
<rect x="32.2832" y="27.7891" width="17.2063" height="17.2063" rx="8.60313" fill="white"/>
</clipPath>
<clipPath id="clip8_4_10936">
<rect x="41.6816" y="15.6211" width="17.2063" height="17.2063" rx="8.60313" fill="white"/>
</clipPath>
</defs>
</svg>
