<svg width="208" height="243" viewBox="0 0 208 243" fill="none" xmlns="http://www.w3.org/2000/svg">
<path d="M199.342 53.4731C204.824 56.6618 204.866 61.7947 199.398 64.9554C171.021 81.4587 142.631 97.9759 114.227 114.465C108.786 117.654 99.8916 117.654 94.4093 114.465C65.8371 97.9899 37.2369 81.4727 8.65074 64.9834C3.16846 61.7947 3.14048 56.6619 8.5948 53.5011C36.9992 37.0118 65.4036 20.5085 93.78 3.97729C99.2203 0.830486 108.115 0.830486 113.583 3.97729C142.17 20.4945 170.742 36.9978 199.342 53.4731Z" fill="#015DFA"/>
<path d="M184.332 54.3679C188.961 57.0532 188.989 61.3888 184.387 64.0601C160.458 77.976 136.543 91.8779 112.614 105.78C108.013 108.465 100.531 108.465 95.9017 105.78C71.8188 91.8779 47.7359 77.976 23.667 64.0741C19.0519 61.4028 19.0379 57.0671 23.6111 54.4098C47.5401 40.5079 71.4692 26.6061 95.3843 12.6902C99.9715 10.0329 107.468 10.0329 112.083 12.6902C136.18 26.6061 160.249 40.508 184.332 54.3819V54.3679Z" fill="#1C202C"/>
<path opacity="0.7" fill-rule="evenodd" clip-rule="evenodd" d="M75.7264 75.6466C59.7248 66.4077 59.7248 51.4286 75.7264 42.1898C91.7281 32.951 117.672 32.951 133.674 42.1898C149.675 51.4286 149.675 66.4077 133.674 75.6466C117.672 84.8854 91.7281 84.8854 75.7264 75.6466ZM74.2925 41.3619C57.4989 51.058 57.4989 66.7784 74.2925 76.4745C91.0861 86.1706 118.314 86.1706 135.108 76.4745C151.901 66.7784 151.901 51.058 135.108 41.3619C118.314 31.6658 91.0861 31.6658 74.2925 41.3619ZM79.1123 73.6913C64.981 65.5323 64.981 52.3041 79.1123 44.1451C93.2436 35.9861 116.155 35.9861 130.286 44.1451C144.418 52.3041 144.418 65.5323 130.286 73.6913C116.155 81.8503 93.2436 81.8503 79.1123 73.6913ZM76.2444 42.4893C60.5291 51.5627 60.5291 66.2737 76.2444 75.3471C91.9596 84.4206 117.439 84.4206 133.154 75.3471C148.87 66.2737 148.87 51.5627 133.154 42.4893C117.439 33.4158 91.9596 33.4158 76.2444 42.4893ZM120.791 49.6284C111.918 44.5056 97.4827 44.5062 88.6111 49.6284C88.4777 49.7054 88.3476 49.7829 88.2185 49.8611L86.3499 49.2381C85.5069 48.9574 84.433 49.1193 83.9333 49.5981L83.9323 49.5987C83.9296 49.6014 83.927 49.6038 83.9244 49.6062L83.9244 49.6063L83.9232 49.6074C83.921 49.6094 83.9187 49.6115 83.9165 49.6138C83.9123 49.6187 83.9071 49.6229 83.9029 49.6278L83.8976 49.6332C83.4588 50.0951 83.6982 50.6709 84.4351 50.9691C84.476 50.9854 84.5191 51.0018 84.5632 51.0163L84.5674 51.0188C84.5695 51.02 84.5705 51.0206 84.5737 51.0212L84.7028 51.0642L85.9436 51.4776C85.2644 52.0491 84.6713 52.6449 84.1643 53.2589L82.788 52.8001C81.9367 52.5158 80.848 52.6849 80.3557 53.1765C79.8697 53.6632 80.1499 54.2844 80.9814 54.5717L80.9862 54.5734L80.9945 54.5763C80.9987 54.5778 81.0029 54.5793 81.0076 54.5808C81.0092 54.5818 81.0115 54.5824 81.014 54.5828L81.016 54.5833L81.0548 54.596L82.8772 55.2033C80.6129 59.6672 82.5224 64.6936 88.609 68.2078C97.4816 73.3305 111.917 73.3299 120.789 68.2078C120.923 68.1302 121.054 68.052 121.184 67.9732L123.012 68.5824C123.026 68.5878 123.039 68.592 123.054 68.5969L123.095 68.6096C123.927 68.8709 124.97 68.709 125.464 68.2429C125.465 68.2423 125.466 68.2415 125.467 68.2408L125.468 68.2397L125.472 68.2363L125.473 68.2357L125.476 68.2319L125.48 68.2281C125.483 68.2257 125.486 68.2232 125.488 68.2205C125.493 68.2157 125.498 68.2114 125.502 68.2066L125.507 68.2011C125.507 68.2011 125.51 68.1969 125.514 68.1951C125.966 67.712 125.679 67.1077 124.864 66.8247L124.861 66.8228C124.853 66.8198 124.846 66.818 124.839 66.815C124.835 66.8138 124.832 66.8127 124.829 66.8116C124.825 66.8106 124.822 66.8095 124.819 66.8083L124.805 66.8041L124.804 66.8034L123.462 66.3561C124.142 65.7846 124.735 65.1888 125.241 64.5742L126.49 64.9912L126.593 65.0252C126.597 65.0267 126.602 65.0282 126.606 65.0297C126.61 65.0312 126.614 65.0327 126.619 65.0342C126.621 65.0355 126.625 65.0367 126.628 65.0373C127.478 65.3167 128.562 65.1476 129.051 64.6578C129.543 64.1657 129.251 63.5378 128.399 63.2535L126.528 62.6298C128.791 58.1665 126.879 53.1413 120.794 49.6278L120.791 49.6284ZM120.897 60.7546L123.33 61.5664C124.871 57.9262 123.184 53.9195 118.269 51.0818C110.878 46.8143 98.9093 46.7627 91.4045 50.9248L93.8389 51.7364C93.5607 51.8776 93.2878 52.0243 93.0222 52.1776C92.4144 52.5286 91.8643 52.8995 91.372 53.288L89.0373 52.5098C88.3413 53.0765 87.7471 53.6729 87.2569 54.2905L89.5916 55.0687C89.0971 55.7179 88.7339 56.3931 88.5019 57.0798L86.0664 56.2676C84.5243 59.9084 86.2103 63.916 91.1263 66.7544C98.5177 71.0219 110.489 71.074 117.993 66.9101L115.559 66.0986C115.838 65.9579 116.109 65.8113 116.373 65.6585C116.982 65.307 117.533 64.9354 118.027 64.5463L120.361 65.3246C121.058 64.7573 121.651 64.1615 122.142 63.5438L119.807 62.7656C120.301 62.1165 120.665 61.4413 120.897 60.7546ZM113.064 58.1472C112.91 57.5853 112.588 57.0483 112.115 56.5556L112.118 56.555L116.003 54.3118C118.046 55.9749 118.853 57.9914 118.429 59.9346C118.276 60.6377 117.961 61.331 117.484 61.9941C117.035 62.6208 116.443 63.2197 115.705 63.7754C115.337 64.0524 114.939 64.3161 114.495 64.5725C114.051 64.8288 113.581 65.0646 113.094 65.2792C107.679 67.6642 99.8861 67.4284 94.9396 64.5725C91.7987 62.759 90.4875 60.2831 91.0061 57.9169C91.1604 57.2144 91.4754 56.521 91.952 55.858C92.4023 55.2319 92.9944 54.633 93.7324 54.0772C94.0998 53.8009 94.4935 53.5396 94.9396 53.282C95.3858 53.0244 95.854 52.7881 96.3431 52.5735C99.2048 51.314 102.73 50.7867 106.148 50.9904L104.836 54.0463C104.797 54.0457 104.758 54.0457 104.718 54.0457H104.717C103.671 54.0451 102.655 54.1536 101.706 54.3609C100.602 54.6021 99.5911 54.9773 98.7335 55.4725C98.6348 55.5295 98.5382 55.5876 98.4448 55.6476C97.6281 56.1665 97.0265 56.772 96.6633 57.4278C96.3988 57.9054 96.2613 58.4102 96.2613 58.9266C96.2613 59.1897 96.297 59.4491 96.3662 59.7037C96.6423 60.7152 97.459 61.6462 98.7324 62.3814C100.326 63.3015 102.452 63.8088 104.715 63.8088C105.763 63.8088 106.78 63.7003 107.73 63.4924C108.832 63.2512 109.841 62.876 110.698 62.3814C110.797 62.3238 110.896 62.2644 110.99 62.2044C111.804 61.6844 112.407 61.0783 112.769 60.4231C113.032 59.9461 113.169 59.443 113.169 58.9266C113.17 58.663 113.134 58.4024 113.064 58.1472ZM136.192 64.4925C136.409 64.7465 136.437 65.0077 136.277 65.2762C136.161 65.4702 135.964 65.6253 135.687 65.7417C135.409 65.8581 135.096 65.9254 134.745 65.9423L134.78 65.6023C135.002 65.5878 135.201 65.5435 135.373 65.4696C135.545 65.3956 135.67 65.2956 135.743 65.1708C135.854 64.9859 135.835 64.8101 135.687 64.6434C135.539 64.4768 135.3 64.361 134.974 64.2962C134.654 64.2325 134.346 64.2392 134.052 64.318C133.757 64.3962 133.556 64.5283 133.445 64.7132C133.37 64.8404 133.357 64.9617 133.409 65.0786C133.46 65.1956 133.566 65.298 133.727 65.3871L133.394 65.6714C133.138 65.5356 132.964 65.372 132.872 65.1823C132.781 64.9926 132.792 64.8004 132.908 64.6065C133.068 64.338 133.368 64.1422 133.81 64.0192C134.251 63.8955 134.703 63.8804 135.168 63.9731C135.633 64.0658 135.973 64.2392 136.191 64.4931L136.192 64.4925ZM133.317 67.9343C133.495 67.744 133.532 67.5446 133.426 67.3368L133.427 67.3362C133.321 67.1283 133.102 66.9726 132.773 66.869C132.444 66.7647 132.099 66.7435 131.736 66.8047C131.374 66.8659 131.103 66.9914 130.924 67.1816C130.746 67.3707 130.712 67.5695 130.819 67.7779C130.927 67.987 131.145 68.1427 131.475 68.2463C131.802 68.3487 132.146 68.3705 132.507 68.3099C132.867 68.25 133.137 68.1245 133.317 67.9343ZM131.88 67.0986C132.102 67.0641 132.314 67.0786 132.515 67.1417L132.514 67.1411C132.716 67.2041 132.85 67.2986 132.918 67.4252C132.986 67.5519 132.965 67.6731 132.856 67.7894C132.746 67.9052 132.581 67.9809 132.362 68.0155C132.143 68.05 131.932 68.0361 131.731 67.9724C131.531 67.9088 131.395 67.8137 131.325 67.687C131.255 67.5604 131.275 67.4398 131.383 67.3253C131.492 67.2089 131.658 67.1338 131.88 67.0986ZM130.922 70.061L128.781 69.1682L129.117 68.9003L131.258 69.7931L130.922 70.061ZM131.987 70.1186C132.001 70.1762 131.978 70.2295 131.917 70.278C131.857 70.3259 131.778 70.3556 131.681 70.3659C131.583 70.3762 131.493 70.364 131.41 70.3295C131.327 70.295 131.278 70.2495 131.265 70.1949C131.252 70.1374 131.275 70.084 131.334 70.0361C131.394 69.9883 131.474 69.958 131.573 69.947C131.671 69.9361 131.761 69.9477 131.845 69.9828C131.925 70.0161 131.973 70.0628 131.986 70.1204L131.987 70.1186ZM128.933 71.4756L129.324 71.2339L127.397 70.1916L127.006 70.4334L127.999 70.9703C128.163 71.0593 128.256 71.1611 128.277 71.2763C128.298 71.3914 128.237 71.4932 128.093 71.5811C127.969 71.6574 127.818 71.6974 127.642 71.701C127.465 71.7047 127.302 71.6647 127.148 71.5823L126.079 71.0048L125.688 71.2466L126.869 71.8853C127.104 72.0125 127.368 72.0677 127.658 72.0531C127.947 72.0386 128.196 71.9677 128.403 71.8398C128.64 71.6944 128.73 71.5271 128.678 71.3381L128.933 71.4756ZM125.712 73.2921L125.26 73.4952L125.045 73.3364C125.038 73.5285 124.895 73.6873 124.614 73.8134C124.327 73.9412 124.001 73.9903 123.634 73.9588C123.266 73.9273 122.969 73.8273 122.74 73.6576C122.508 73.4849 122.413 73.2927 122.453 73.0818C122.492 72.8709 122.657 72.7006 122.946 72.5715C123.227 72.4454 123.532 72.4066 123.859 72.4539L122.998 71.8126L123.451 71.6096L125.71 73.2921H125.712ZM124.483 72.8782C124.342 72.7739 124.156 72.7127 123.924 72.6951C123.692 72.6775 123.487 72.709 123.305 72.7909C123.121 72.8727 123.016 72.9806 122.99 73.1121C122.964 73.2436 123.022 73.363 123.163 73.4691C123.305 73.5752 123.491 73.6376 123.716 73.6564C123.942 73.6752 124.15 73.6424 124.336 73.5594C124.516 73.4782 124.622 73.3709 124.651 73.237C124.679 73.103 124.623 72.9836 124.483 72.8794V72.8782ZM120.4 75.4072C120.72 75.306 120.929 75.1527 121.027 74.9472L121.026 74.949C121.123 74.7436 121.081 74.5448 120.9 74.3526C120.722 74.1641 120.457 74.0375 120.102 73.9732C119.748 73.9084 119.412 73.9265 119.094 74.0265C118.782 74.1253 118.598 74.2696 118.54 74.4605L118.37 74.2811L117.867 74.4393L119.133 75.7776L119.636 75.6194L119.466 75.44C119.776 75.5163 120.088 75.506 120.4 75.4072ZM119.935 74.2635C120.155 74.3023 120.321 74.3811 120.433 74.4987C120.545 74.6169 120.569 74.7399 120.507 74.869C120.445 74.9981 120.312 75.0945 120.108 75.1587C119.907 75.2218 119.694 75.2345 119.469 75.1945C119.244 75.1545 119.076 75.0769 118.967 74.9605C118.858 74.8442 118.835 74.7217 118.9 74.592C118.965 74.4623 119.098 74.366 119.299 74.3023C119.502 74.2381 119.715 74.2247 119.935 74.2635ZM116.753 76.3805L116.217 76.4962L116.065 76.2617C116.046 76.3684 115.981 76.4556 115.869 76.5235C115.758 76.5914 115.632 76.6411 115.489 76.6714C115.421 76.6865 115.347 76.698 115.268 76.7071L115.053 76.3757C115.161 76.3726 115.258 76.3623 115.346 76.3435C115.486 76.3132 115.614 76.2514 115.732 76.1593C115.849 76.066 115.859 75.9442 115.761 75.7933L115.292 75.068L115.828 74.9522L116.753 76.3805ZM111.861 77.28C112.218 77.2339 112.493 77.12 112.684 76.9382L112.683 76.9388C112.874 76.7569 112.929 76.5593 112.847 76.346C112.766 76.1357 112.571 75.972 112.261 75.8538C111.952 75.735 111.621 75.6987 111.267 75.7441C110.921 75.789 110.673 75.8981 110.526 76.0726L110.449 75.8732L109.89 75.9454L110.464 77.4333L111.023 77.3612L110.947 77.1618C111.209 77.2854 111.515 77.3248 111.861 77.28ZM111.962 76.1066C112.155 76.1793 112.277 76.2811 112.327 76.4121V76.4108C112.378 76.5418 112.344 76.6642 112.222 76.7781C112.1 76.8921 111.926 76.9636 111.699 76.9927C111.476 77.0224 111.266 76.9994 111.069 76.9254C110.871 76.8515 110.747 76.7497 110.698 76.6206C110.648 76.4921 110.685 76.3696 110.809 76.2557C110.934 76.1411 111.108 76.0696 111.332 76.0411C111.559 76.012 111.769 76.0338 111.962 76.1066ZM104.493 78.2471C104.419 78.2865 104.331 78.3059 104.228 78.3059C104.125 78.3047 104.038 78.2847 103.968 78.2441C103.898 78.2041 103.863 78.1544 103.865 78.095C103.867 78.0356 103.902 77.9871 103.973 77.949C104.047 77.9096 104.135 77.8902 104.239 77.8908C104.342 77.892 104.429 77.912 104.503 77.952C104.574 77.992 104.61 78.0417 104.609 78.1004C104.608 78.158 104.57 78.2065 104.495 78.2459L104.493 78.2471ZM103.963 77.7108L104.001 76.1862L104.574 76.1911L104.536 77.7157L103.963 77.7108ZM101.195 77.5122C101.414 77.4462 101.541 77.3425 101.574 77.2001L101.574 77.1989C101.6 77.0808 101.546 76.9826 101.408 76.9032C101.271 76.8238 101.045 76.7517 100.731 76.6893C100.507 76.6445 100.344 76.6015 100.243 76.5603C100.141 76.5184 100.097 76.4724 100.109 76.4209C100.121 76.3712 100.177 76.3354 100.278 76.3136C100.38 76.2912 100.494 76.2858 100.622 76.2955C100.812 76.3106 101.005 76.3518 101.201 76.4191C101.397 76.4857 101.547 76.5542 101.652 76.6221L101.729 76.2888C101.406 76.13 101.06 76.0367 100.688 76.0076C100.508 75.9931 100.338 75.9943 100.18 76.01C100.023 76.0258 99.88 76.0646 99.7541 76.1264C99.6281 76.1882 99.5526 76.2706 99.5284 76.373C99.5064 76.4839 99.5547 76.5821 99.6733 76.6687C99.794 76.7554 99.9986 76.8311 100.292 76.8966L100.354 76.91L100.355 76.91C100.385 76.9165 100.419 76.9238 100.457 76.9323C100.492 76.94 100.523 76.9466 100.549 76.9523C100.574 76.9578 100.596 76.9624 100.613 76.9662C100.647 76.9741 100.69 76.9844 100.741 76.9965C100.791 77.0099 100.83 77.0202 100.856 77.0305C100.882 77.0408 100.91 77.0517 100.934 77.0656C100.959 77.0802 100.976 77.0947 100.984 77.1093C100.991 77.1244 100.995 77.1408 100.99 77.1577C100.978 77.2086 100.923 77.2462 100.826 77.271C100.728 77.2959 100.606 77.302 100.461 77.291C100.169 77.2686 99.8454 77.1789 99.4938 77.022L99.4203 77.3383C99.6985 77.4662 100.025 77.5443 100.396 77.5734C100.709 77.5977 100.976 77.5783 101.195 77.5122ZM94.7557 75.2336L94.7553 75.2339L94.1857 75.0972L93.6398 75.4427L92.1344 75.0815L92.1838 74.6166L91.6127 74.4796L91.4017 76.6101L92.2709 76.8186L94.7553 75.2339L94.7567 75.2342L94.7557 75.2336ZM91.9633 76.5331L92.0934 75.409L93.2703 75.6912L91.9633 76.5331ZM88.0212 75.6272L89.787 73.8901L89.2925 73.7222L87.5268 75.4593L88.0212 75.6272ZM85.8631 74.2905L85.8622 74.2902L86.9947 72.8626L86.3806 72.5783L84.6359 73.3893L85.6258 72.2286L85.0117 71.9443L82.8439 72.8953L83.2953 73.1038L85.0117 72.3128L84.0575 73.4566L84.6485 73.7299L86.3701 72.9444L85.4117 74.082L85.8622 74.2902L85.861 74.2918L85.8631 74.2905ZM80.3381 71.4246C80.5795 71.5822 80.8849 71.6664 81.2533 71.6755H81.2512C81.6206 71.6852 81.946 71.6173 82.2304 71.4725C82.5096 71.3307 82.6639 71.1532 82.6943 70.9392C82.7247 70.7253 82.6198 70.5399 82.3805 70.3836C82.1454 70.2297 81.861 70.1576 81.5251 70.1673L81.7907 70.0321L81.4118 69.7843L79.4324 70.7926L79.8113 71.0404L80.0768 70.9053C80.0159 71.098 80.103 71.2707 80.3381 71.4246ZM82.1653 70.9102C82.1486 71.0423 82.053 71.1532 81.8788 71.2416L81.8778 71.241C81.7025 71.3301 81.4999 71.3707 81.2691 71.3646C81.0382 71.3586 80.845 71.3052 80.6918 71.2047C80.5407 71.1053 80.4735 70.9889 80.4903 70.8532C80.5071 70.7175 80.6016 70.606 80.7737 70.5187C80.9458 70.4315 81.1484 70.3921 81.3814 70.3993C81.6154 70.4072 81.8085 70.4605 81.9596 70.5599C82.1139 70.6611 82.1821 70.7781 82.1653 70.9102ZM77.9749 69.6754L77.6463 69.3766L78.8767 68.3911L76.8275 68.6311L76.4989 68.3323L80.4051 67.9123L80.7253 68.2038L79.6021 68.3263L77.9749 69.6754ZM75.4511 66.9562C75.6642 67.0295 75.8825 67.0368 76.1102 66.978L76.1071 66.9786C76.295 66.9307 76.4115 66.8513 76.4555 66.7423C76.4996 66.6332 76.486 66.4847 76.4136 66.2975C76.3611 66.1642 76.339 66.0618 76.3474 65.9903C76.3558 65.9188 76.402 65.8727 76.4828 65.8515C76.5615 65.8315 76.6434 65.84 76.7295 65.8775C76.8155 65.9151 76.8837 65.9678 76.9373 66.0363C77.016 66.1375 77.058 66.2538 77.0611 66.3853C77.0653 66.5162 77.0454 66.6259 76.9992 66.7132L77.5313 66.5756C77.5964 66.3344 77.5512 66.1145 77.398 65.9169C77.3225 65.8212 77.2332 65.7382 77.1262 65.6691C77.0202 65.5994 76.889 65.5503 76.7305 65.5206C76.5741 65.4909 76.4125 65.497 76.2488 65.5394C76.0746 65.5867 75.9549 65.6618 75.8899 65.766C75.8248 65.8703 75.8216 66.0115 75.8804 66.1896C75.8855 66.2029 75.8908 66.2188 75.897 66.237C75.9023 66.2529 75.9082 66.2705 75.915 66.2896C75.9254 66.3187 75.9337 66.343 75.9403 66.3623L75.9476 66.3835C75.9549 66.4047 75.9623 66.4308 75.9707 66.4623C75.9791 66.4938 75.9833 66.5193 75.9822 66.5368C75.9812 66.5544 75.977 66.5738 75.9707 66.5932C75.9644 66.6138 75.9518 66.6295 75.9339 66.6411C75.915 66.6532 75.893 66.6623 75.8657 66.6695C75.7838 66.6914 75.6988 66.6847 75.6117 66.6489C75.5246 66.6132 75.4511 66.5574 75.3913 66.4805C75.2706 66.3247 75.2318 66.1193 75.278 65.8636L74.7732 65.9939C74.7301 66.1981 74.7868 66.3993 74.94 66.5968C75.0702 66.7629 75.2402 66.8828 75.4511 66.9562ZM71.9242 62.8754L71.9237 62.873L75.274 62.1657L75.1502 61.6444L71.9662 61.4996L74.9685 60.8838L74.8436 60.3595L71.2839 60.1952L71.3678 60.5456L74.4426 60.6589L71.54 61.2704L71.6649 61.7923L74.7533 61.939L71.8402 62.5251L71.9237 62.873L71.9211 62.8736L71.9242 62.8754ZM71.1266 58.4625C71.1245 58.5219 71.157 58.5734 71.2252 58.6164L71.2242 58.617C71.2924 58.6601 71.3764 58.6819 71.4761 58.6837C71.579 58.6849 71.6651 58.6643 71.7354 58.6237C71.8047 58.5825 71.8414 58.5322 71.8435 58.4728C71.8456 58.4134 71.8131 58.3619 71.7449 58.3188C71.6798 58.2776 71.5958 58.2558 71.4929 58.2546C71.3911 58.2528 71.305 58.2722 71.2347 58.3128C71.1654 58.3528 71.1287 58.4031 71.1266 58.4625ZM74.8007 58.3522L72.1595 58.3158L72.1469 58.6467L74.7871 58.6825L74.8007 58.3522ZM72.8098 56.9491L72.3153 56.9097L72.3836 56.6242L71.7569 56.5739L71.6718 56.2387L72.4613 56.3018L72.5725 55.8375L73.067 55.8769L72.9557 56.3411L74.2301 56.443C74.3918 56.4563 74.4989 56.4369 74.5513 56.386C74.6038 56.3351 74.6353 56.2878 74.6458 56.2442C74.6616 56.1757 74.6553 56.0908 74.6259 55.9902L75.1739 56.0339C75.1991 56.1405 75.2011 56.2363 75.1802 56.3224C75.1539 56.4345 75.0689 56.5442 74.9282 56.6509C74.7865 56.7581 74.5304 56.7957 74.1587 56.7666L72.8801 56.6648L72.8119 56.9503L72.8098 56.9491ZM72.4177 53.9773L72.2645 54.2961H72.2624L75.6237 54.8343L75.777 54.5155L74.4669 54.3058C74.2485 54.2706 74.0847 54.2052 73.9745 54.1076C73.8653 54.0106 73.837 53.9033 73.8937 53.787C73.9409 53.687 74.0428 53.6112 74.196 53.5603C74.3493 53.5094 74.5267 53.5003 74.7293 53.5324L76.1412 53.7585L76.2945 53.4397L74.7346 53.19C74.4249 53.1397 74.1467 53.1609 73.901 53.2518C73.6554 53.3427 73.4927 53.473 73.4118 53.6409C73.3195 53.8324 73.373 54.0064 73.5704 54.1615L72.4177 53.9773ZM75.3325 49.6844L75.6622 49.3693L77.5822 49.4378L76.5859 48.488L76.9156 48.1728L78.2981 49.4826L79.266 49.8208L78.9595 50.1142L78.0042 49.7808L75.3325 49.6856L75.3325 49.6844ZM79.497 46.978C79.2587 47.1458 79.158 47.3373 79.1947 47.5536C79.2314 47.77 79.3941 47.9463 79.6848 48.0838C79.9756 48.2214 80.3072 48.2796 80.6829 48.259C81.0587 48.2384 81.3651 48.1451 81.6034 47.9772C81.8406 47.8112 81.9382 47.6203 81.9004 47.4034C81.8626 47.1864 81.6989 47.0095 81.4082 46.8719C81.1206 46.7362 80.7889 46.678 80.4153 46.6974C80.0417 46.7168 79.7352 46.8101 79.497 46.978ZM80.6357 47.9542C80.4069 47.9639 80.2033 47.9275 80.0259 47.8433L80.027 47.8451C79.8486 47.7615 79.7478 47.6536 79.7216 47.5221C79.6953 47.3906 79.7552 47.2737 79.901 47.1713C80.0459 47.0695 80.2316 47.0131 80.4594 47.0028C80.6871 46.9925 80.8886 47.0289 81.066 47.1131C81.2423 47.1967 81.3452 47.3046 81.3725 47.4367C81.3998 47.5688 81.341 47.6851 81.1983 47.7857C81.0534 47.8875 80.8656 47.9439 80.6357 47.9542ZM82.1138 45.3613L82.542 45.1419L83.5118 45.7721C83.6514 45.8624 83.8088 45.9109 83.9862 45.9176C84.1635 45.9242 84.3189 45.8927 84.4563 45.823C84.6127 45.7424 84.6893 45.6449 84.6872 45.5298C84.6851 45.4146 84.6075 45.3068 84.4553 45.208L83.5559 44.6232L83.9841 44.4039L85.7378 45.5437L85.3096 45.763L85.0777 45.6122C85.0997 45.803 84.9832 45.9648 84.724 46.0975C84.4983 46.2133 84.2391 46.2708 83.9473 46.2708C83.6556 46.2708 83.4037 46.2006 83.1885 46.0618L82.1138 45.3625L82.1138 45.3613ZM87.2745 42.727C86.3237 43.0686 86.0326 43.7907 86.6244 44.3397C87.2162 44.8887 88.4668 45.0567 89.4176 44.7151C100.589 40.7008 115.467 41.4962 125.169 47.0976C131.82 50.938 134.56 56.1817 133.382 61.1819C133.231 61.8227 134.008 62.4127 135.118 62.4999C136.228 62.5871 137.25 62.1383 137.401 61.4975C138.742 55.8037 135.622 49.8213 128.037 45.4417C116.972 39.0532 100.011 38.1504 87.2745 42.727Z" fill="#676C7C"/>
<path d="M207.855 60.9692C207.855 60.8433 207.855 60.7175 207.828 60.5637C207.828 60.4378 207.828 60.3679 207.828 60.256C207.814 60.1721 207.814 60.1021 207.8 60.0182C207.786 60.0042 207.786 59.9623 207.786 59.9623L207.758 59.8644V59.8364L207.73 59.7385V59.6965C207.674 59.4728 207.66 59.263 207.604 59.0672C207.548 58.8434 207.478 58.6336 207.394 58.4378C207.366 58.3259 207.352 58.256 207.296 58.1581C206.904 57.1651 206.345 56.312 205.688 55.5288C205.632 55.4729 205.604 55.4309 205.562 55.4029V55.3749C205.492 55.305 205.408 55.2491 205.38 55.1932C205.282 55.0813 205.184 54.9833 205.086 54.8714C205.03 54.8435 205.002 54.8015 204.961 54.7595C204.849 54.6616 204.751 54.5638 204.681 54.4519L203.786 53.7106C203.506 53.4448 203.226 53.2351 202.793 52.9694C202.765 52.9274 202.723 52.9134 202.667 52.8855C202.541 52.7876 202.387 52.6756 202.219 52.5777C202.107 52.5218 202.01 52.4519 201.87 52.382C201.842 52.354 201.758 52.312 201.716 52.2701C201.66 52.2421 201.604 52.2001 201.562 52.1722L197.366 49.7527L193.185 47.3331L191.101 46.1443C187.605 44.1303 184.108 42.1164 180.654 40.0884L176.444 37.6829L172.263 35.2634L170.179 34.0605C168.99 33.3752 167.857 32.7039 166.696 32.0326L163.885 30.4243L159.9 28.1306L158.711 27.4173L155.536 25.6131L151.354 23.1936L147.173 20.774L142.977 18.3405L140.208 16.7461L130.824 11.3336L130.432 11.1239L126.251 8.70428L122.055 6.28476L120.517 5.38965L117.859 3.86524C117.859 3.86524 117.817 3.83722 117.803 3.80924H117.72L117.664 3.78133C117.314 3.58553 116.936 3.38971 116.629 3.23586L116.083 2.98413C115.971 2.94217 115.887 2.90018 115.79 2.85822L115.356 2.6764C115.006 2.52255 114.545 2.35477 114.153 2.20093L113.971 2.14493L113.887 2.11702H113.804C113.72 2.07506 113.65 2.04709 113.552 2.03311L112.573 1.71137C112.405 1.6834 112.195 1.61351 111.985 1.57155C111.93 1.55756 111.86 1.54361 111.818 1.51564C111.566 1.47368 111.328 1.38977 111.132 1.34781L110.097 1.13799C110.014 1.11002 109.986 1.10998 109.916 1.09599L109.72 1.05408L109.832 1.08208C109.832 1.08208 109.734 1.08205 109.678 1.05408H109.622C109.496 1.02611 109.384 1.01213 109.3 0.97017C109.035 0.942199 108.755 0.914203 108.461 0.85826C108.363 0.85826 108.265 0.858304 108.181 0.816347L107.804 0.788348C105.035 0.424717 102.21 0.424717 99.4406 0.788348C99.3287 0.788348 99.2308 0.788375 99.1609 0.816347L99.5804 0.74635L99.077 0.830261L98.3917 0.928172C98.1679 0.984115 97.9162 1.02611 97.6924 1.05408H97.5945C97.4966 1.09604 97.3707 1.11004 97.2449 1.15199H97.2169C96.8393 1.22192 96.4477 1.3058 96.098 1.37573C95.6086 1.5016 95.203 1.59949 94.8114 1.71137L94.6995 1.73937C94.4757 1.8093 94.196 1.89321 93.9303 1.99111L93.8324 2.01911L94.0981 1.93519L93.8044 2.03311C93.8044 2.03311 93.7625 2.06103 93.7345 2.07502C93.6366 2.10299 93.5527 2.11697 93.4548 2.15893L93.7625 2.0471L93.4828 2.14493L93.4268 2.15893H93.3709L93.3989 2.17293L93.287 2.21493L92.5458 2.49458C92.5458 2.49458 92.3919 2.5645 92.322 2.57849L91.9584 2.7184C91.5388 2.88623 91.2031 3.01212 90.7416 3.26386C90.6997 3.29183 90.6437 3.3198 90.6018 3.34777C90.2522 3.52959 89.7627 3.78128 89.399 3.99107L85.2593 6.39667L81.1057 8.81619L76.938 11.2357L72.7844 13.6413L68.6167 16.0748L64.4491 18.4943L60.2954 20.8999L56.1557 23.3055L47.8484 28.1446L43.6807 30.5641L39.5131 32.9837L35.3594 35.4032L31.9889 37.3613C31.3316 37.7389 30.6883 38.1165 30.0449 38.4941L27.0521 40.2143L23.7375 42.1444C17.9196 45.5429 12.0877 48.8995 6.26973 52.2981C6.26973 52.2981 6.24176 52.326 6.22777 52.326L6.17183 52.354C5.80821 52.5778 5.4306 52.8295 5.10893 53.0253L4.92713 53.1652C4.8572 53.2072 4.80126 53.2631 4.73133 53.305L4.12996 53.7666C3.9901 53.8924 3.80829 54.0463 3.64046 54.1721C3.61249 54.2001 3.59851 54.2001 3.59851 54.2001C3.43068 54.34 3.26286 54.5078 3.12301 54.6337L2.57758 55.2211C2.57758 55.2211 2.53562 55.2351 2.52163 55.2631C2.50765 55.291 2.47967 55.319 2.4517 55.333L2.36779 55.4449C2.21395 55.6127 2.03214 55.8504 1.85033 56.0742C1.75243 56.228 1.64055 56.3679 1.54265 56.5357C1.38881 56.7595 1.26294 56.9693 1.15106 57.1791L1.12309 57.221C1.12309 57.221 1.08113 57.305 1.06715 57.3329C1.03918 57.3889 1.0112 57.4308 0.997218 57.4728C0.759466 57.9063 0.633604 58.256 0.633604 58.256L0.35389 59.1371C0.35389 59.1371 0.325921 59.235 0.311935 59.263C0.255994 59.4868 0.200054 59.7105 0.172083 59.9623C0.158098 60.0182 0.158092 60.1301 0.144106 60.186C0.10215 60.4517 0.0881741 60.8154 0.0881741 61.0951C0.0602033 64.144 2.10207 67.2069 6.12987 69.5425L89.8046 117.85C90.2801 118.129 90.7696 118.381 91.2591 118.619C91.2591 118.619 91.315 118.647 91.329 118.661H91.385C91.385 118.661 91.4269 118.703 91.4549 118.703C91.4689 118.703 91.5108 118.731 91.5388 118.759C91.5668 118.759 91.6227 118.787 91.6227 118.787C91.7346 118.829 91.8045 118.843 91.8745 118.884C91.9444 118.912 91.9724 118.926 92.0143 118.94C92.0982 118.982 92.1961 118.996 92.2521 119.038C92.308 119.08 92.364 119.094 92.4339 119.122C92.4339 119.122 92.5458 119.15 92.6017 119.178C92.6576 119.206 92.7276 119.262 92.8115 119.276C92.7416 119.262 92.6856 119.22 92.6017 119.178C92.7136 119.234 92.8394 119.29 92.9513 119.318C93.0213 119.346 93.1052 119.374 93.1891 119.43C93.245 119.444 93.315 119.458 93.3569 119.486C93.4408 119.528 93.5387 119.542 93.6226 119.584C93.7765 119.64 93.9303 119.682 94.0702 119.738C94.0981 119.738 94.1261 119.766 94.1261 119.766C94.224 119.766 94.2939 119.822 94.3778 119.835L94.4338 119.863C94.5177 119.863 94.5736 119.891 94.6576 119.933C94.7834 119.975 94.9093 119.989 95.0352 120.031C95.1051 120.073 95.161 120.073 95.2449 120.087H95.2589L95.3149 120.115H95.3708C95.4967 120.157 95.6086 120.185 95.7344 120.213C95.8603 120.255 95.9722 120.283 96.098 120.325C96.1959 120.353 96.3218 120.381 96.4477 120.423C96.5596 120.437 96.6575 120.465 96.7833 120.479C96.8253 120.493 96.8812 120.507 96.9372 120.521C96.9791 120.521 97.0211 120.535 97.077 120.563C97.1609 120.563 97.2309 120.563 97.3288 120.619C97.3288 120.619 97.3847 120.619 97.4267 120.647C97.3987 120.619 97.3707 120.619 97.3707 120.619C97.3987 120.619 97.4826 120.647 97.5525 120.661C97.7483 120.689 97.9721 120.745 98.1819 120.773C98.2518 120.773 98.3217 120.815 98.3917 120.815C98.4196 120.815 98.4476 120.842 98.4756 120.842C98.6294 120.856 98.7833 120.87 98.9511 120.898C99.0909 120.94 99.2588 120.954 99.3846 120.968C99.4406 120.968 99.4546 120.996 99.4965 120.996C99.5664 120.996 99.6224 121.01 99.6783 121.024C99.8182 121.024 99.986 121.024 100.14 121.066C100.28 121.066 100.42 121.108 100.573 121.122C100.713 121.136 100.839 121.15 100.993 121.15C101.147 121.15 101.273 121.178 101.44 121.206H101.65V121.234C101.79 121.234 101.916 121.234 102.028 121.234C102.126 121.234 102.21 121.234 102.28 121.262C102.308 121.262 102.336 121.262 102.336 121.262C102.489 121.262 102.657 121.262 102.783 121.262C102.937 121.262 103.091 121.29 103.259 121.29H105.552C105.65 121.29 105.734 121.262 105.846 121.262C106.349 121.262 106.867 121.206 107.384 121.164C107.468 121.164 107.552 121.164 107.636 121.136H107.86C107.86 121.136 107.958 121.122 108.014 121.122C108.084 121.108 108.139 121.108 108.209 121.108C108.937 121.024 109.664 120.926 110.405 120.801C110.405 120.801 110.461 120.773 110.517 120.773C110.475 120.773 110.447 120.773 110.433 120.801C110.615 120.745 110.825 120.717 111.007 120.675C111.188 120.647 111.384 120.591 111.566 120.563C112.447 120.381 113.314 120.143 114.153 119.877C114.181 119.85 114.223 119.849 114.223 119.849C115.915 119.304 117.482 118.647 118.88 117.822L202.024 69.5006V69.4307C202.303 69.2489 202.555 69.095 202.807 68.9271C202.625 69.025 202.471 69.1649 202.247 69.2768C202.387 69.1929 202.569 69.095 202.709 69.011C202.765 68.9551 202.821 68.9132 202.891 68.8712C203.072 68.7314 203.282 68.5916 203.464 68.4797C203.604 68.3678 203.744 68.2698 203.884 68.1579H203.926C203.996 68.074 204.051 68.032 204.093 67.9621C204.289 67.8362 204.485 67.6824 204.667 67.5286C204.765 67.4446 204.849 67.3468 204.961 67.2489C205.016 67.193 205.086 67.123 205.128 67.0671C205.198 67.0111 205.24 66.9412 205.31 66.8853C205.422 66.7734 205.548 66.6475 205.66 66.5496C205.786 66.3958 205.898 66.2419 206.023 66.0881C206.051 66.0461 206.093 66.0041 206.135 65.9762C206.135 65.9762 206.135 65.9482 206.163 65.9482C206.177 65.9062 206.205 65.8783 206.233 65.8503C206.261 65.7944 206.331 65.7384 206.345 65.6964C206.387 65.6405 206.443 65.5845 206.471 65.5146C206.583 65.3887 206.653 65.2489 206.723 65.123C206.821 64.9552 206.904 64.8293 206.988 64.6615L207.016 64.6336C207.016 64.6336 206.96 64.7315 206.932 64.8014C206.96 64.7315 207.016 64.6335 207.058 64.5496C207.086 64.5076 207.086 64.4797 207.114 64.4238C207.114 64.4238 207.142 64.3957 207.142 64.3818C207.17 64.3398 207.17 64.2979 207.184 64.2559C207.184 64.2559 207.212 64.2279 207.212 64.2139C207.296 64.0321 207.366 63.8783 207.422 63.7245C207.422 63.6825 207.45 63.6545 207.464 63.6266H207.478V63.5986C207.478 63.5286 207.534 63.4727 207.548 63.4028C207.548 63.4028 207.548 63.3608 207.59 63.3468C207.59 63.3049 207.604 63.2209 207.618 63.165C207.674 63.0531 207.674 62.9412 207.716 62.8153C207.73 62.7454 207.744 62.6755 207.744 62.5916C207.772 62.5217 207.8 62.4937 207.8 62.4378V62.3539V62.3259C207.8 62.3259 207.814 62.2699 207.842 62.242V62.214V62.1581C207.869 61.9902 207.883 61.8643 207.883 61.6965C207.883 61.5986 207.883 61.5007 207.911 61.4028C207.911 61.3189 207.911 61.235 207.911 61.151V61.0951V61.0112L207.855 60.9692ZM197.101 64.8293L113.971 113.15C108.657 116.255 99.972 116.255 94.6296 113.15C94.266 113.346 94.2799 113.332 94.6296 113.15L10.9548 64.8293C10.7124 64.9692 10.7124 64.9692 10.9548 64.8293C5.61242 61.7524 5.58444 56.7036 10.8849 53.6407L94.0422 5.30574C99.3427 2.22886 108.028 2.22886 113.356 5.30574C113.356 5.30574 113.384 5.30574 113.398 5.30574L197.003 53.5708C202.359 56.6756 202.401 61.6965 197.073 64.7734C197.352 64.9412 197.157 64.8713 197.115 64.8293H197.101Z" fill="url(#paint0_linear_4_9233)"/>
<path d="M207.869 61.7241C207.841 61.9479 207.827 62.1716 207.785 62.3954C207.743 62.5492 207.702 62.7311 207.688 62.871C207.604 63.0807 207.562 63.3045 207.478 63.5142C207.422 63.6821 207.352 63.85 207.268 64.0178C207.198 64.2416 207.086 64.4373 206.988 64.6611C206.89 64.801 206.806 64.9408 206.695 65.1087C206.555 65.3604 206.387 65.5842 206.233 65.8359C206.135 65.9618 206.009 66.1016 205.897 66.2415C205.632 66.5492 205.352 66.8568 205.03 67.1785C204.904 67.2904 204.807 67.4163 204.695 67.5003C204.499 67.6961 204.275 67.8638 204.065 68.0456C203.87 68.1995 203.702 68.3533 203.492 68.5072C203.254 68.675 203.016 68.8289 202.779 68.9967C202.513 69.1366 202.261 69.3324 201.968 69.4862C201.968 69.4862 116.517 118.954 116.307 119.052C115.789 119.262 113.44 120.045 113.076 120.157C112.81 120.227 112.545 120.297 112.265 120.395C111.873 120.478 110.615 120.73 110.363 120.786C109.594 120.912 107.58 121.122 107.342 121.164C106.853 121.22 106.377 121.262 105.888 121.262C105.608 121.29 104.251 121.29 103.902 121.29C103.58 121.29 101.3 121.164 100.993 121.122C100.643 121.094 100.294 121.038 99.9299 120.996C99.6222 120.954 97.3566 120.576 97.0909 120.52C96.6433 120.422 95.3567 120.073 95.1189 120.003C94.3777 119.793 93.6225 119.541 92.9092 119.262C92.7973 119.22 92.7134 119.178 92.6295 119.15C91.6505 118.73 90.7275 118.311 89.8324 117.807L6.15765 69.5002C2.12985 67.1646 0.0879763 64.1016 0.115947 61.0527C0.115947 61.0527 0.0879763 182.436 0.115947 182.729C0.115947 182.771 0.171893 183.037 0.185878 183.163C0.213849 183.289 0.269788 183.624 0.269788 183.624C0.339715 183.932 0.423629 184.17 0.479571 184.408L0.507537 184.436C0.913114 185.582 1.45855 186.366 1.71028 186.729C2.45151 187.778 3.26267 188.463 4.12977 189.233C4.60527 189.638 82.8677 234.84 90.0841 239.022V239.078C90.0841 239.078 90.1261 239.12 90.1401 239.12C90.5177 239.33 96.028 241.456 96.028 241.456C96.3077 241.526 97.9579 241.903 97.9999 241.903C97.9999 241.903 99.2866 242.113 99.7341 242.197L100.112 242.253C102.881 242.603 105.706 242.603 108.447 242.253C108.573 242.225 109.999 242.001 110.209 241.987L110.321 241.959C110.783 241.903 114.041 241.022 114.097 241.022C114.279 240.938 114.489 240.896 114.657 240.826L114.908 240.728C115.076 240.644 116.796 239.973 117.258 239.721C117.258 239.721 118.293 239.19 118.531 239.064L202.988 189.89C202.988 189.89 203.1 189.806 203.142 189.764C203.366 189.638 203.8 189.289 203.8 189.289C203.8 189.289 206.107 187.051 206.695 186.044C206.737 185.974 206.765 185.932 206.792 185.862L206.834 185.806L206.89 185.722L206.918 185.694C206.932 185.624 206.974 185.582 206.988 185.54C207.058 185.401 207.114 185.303 207.142 185.219L207.198 185.135L207.226 185.079C207.282 184.925 207.338 184.799 207.338 184.799L207.38 184.673C207.436 184.575 207.464 184.45 207.506 184.352L207.534 184.254L207.506 184.324C207.548 184.212 207.59 184.086 207.618 183.974V183.918L207.632 183.876C207.744 183.484 207.771 183.191 207.813 183.023L207.771 183.135C207.771 183.135 207.771 183.093 207.785 183.079L207.813 183.037C207.813 183.037 207.827 182.911 207.827 182.855C207.827 182.701 207.855 182.519 207.883 182.31C207.883 182.254 207.883 182.184 207.883 182.128C207.883 182.086 207.883 182.03 207.883 181.946L207.911 61.1926C207.911 61.3745 207.883 61.5702 207.883 61.766L207.869 61.7241Z" fill="url(#paint1_linear_4_9233)"/>
<path d="M167.213 95.1361C167.213 95.262 167.185 95.4018 167.144 95.5417C167.144 95.6396 167.116 95.7515 167.074 95.8214C167.046 95.9473 167.004 96.0871 166.962 96.213C166.934 96.3109 166.878 96.4228 166.836 96.5207C166.78 96.6466 166.724 96.7864 166.654 96.9123C166.598 97.0102 166.542 97.0941 166.486 97.192C166.402 97.3458 166.318 97.4717 166.193 97.6395C166.137 97.7235 166.067 97.8073 166.011 97.8773C165.843 98.0871 165.675 98.2549 165.479 98.4507C165.409 98.5207 165.353 98.5766 165.283 98.6605C165.158 98.7724 165.032 98.8702 164.892 98.9961C164.78 99.08 164.654 99.1779 164.556 99.2619C164.416 99.3737 164.277 99.4437 164.109 99.5416C163.969 99.6395 163.801 99.7514 163.619 99.8493C163.619 99.8493 111.719 129.905 111.579 129.961C111.258 130.101 109.831 130.562 109.622 130.632C109.44 130.674 109.286 130.716 109.118 130.772C108.866 130.814 108.111 130.982 107.957 131.01C107.482 131.094 106.265 131.219 106.125 131.233C105.817 131.261 105.524 131.289 105.23 131.289C105.076 131.317 104.251 131.317 104.013 131.317C103.832 131.317 102.447 131.233 102.265 131.219C102.027 131.191 101.846 131.164 101.608 131.15C101.426 131.136 100.055 130.884 99.8877 130.856C99.6219 130.8 98.8248 130.59 98.6849 130.548C98.2234 130.436 97.7898 130.254 97.3423 130.115C97.2864 130.073 97.2304 130.045 97.1745 130.031C96.5731 129.779 95.9997 129.513 95.4823 129.22L44.6313 99.8772C42.1838 98.4647 40.9531 96.5766 40.9531 94.7305C40.9531 94.7305 40.9531 168.506 40.9811 168.673C40.9811 168.673 41.0091 168.855 41.0231 168.939C41.0231 169.009 41.079 169.219 41.079 169.219C41.107 169.387 41.1629 169.541 41.2189 169.68C41.4706 170.394 41.8062 170.883 41.9461 171.079C42.4216 171.736 42.9111 172.156 43.4285 172.617C43.7082 172.883 91.2587 200.323 95.6501 202.883V202.911L95.692 202.939C95.9158 203.064 99.2583 204.351 99.2583 204.351C99.4401 204.407 100.433 204.631 100.475 204.631C100.475 204.631 101.244 204.757 101.51 204.813L101.748 204.841C103.426 205.051 105.132 205.051 106.796 204.841C106.88 204.841 107.747 204.715 107.887 204.659H107.943C108.223 204.631 110.209 204.071 110.209 204.071C110.363 204.043 110.461 203.988 110.573 203.974L110.712 203.918C110.824 203.862 111.859 203.456 112.139 203.288C112.139 203.288 112.782 202.967 112.922 202.883L164.235 173.009C164.235 173.009 164.305 172.981 164.332 172.939C164.472 172.855 164.738 172.659 164.738 172.659C164.738 172.659 166.151 171.289 166.5 170.687C166.514 170.645 166.542 170.617 166.556 170.576L166.584 170.534L166.612 170.478L166.64 170.45L166.668 170.38C166.724 170.268 166.752 170.212 166.78 170.156L166.808 170.114V170.086C166.864 169.988 166.906 169.918 166.906 169.918L166.934 169.834C166.934 169.834 166.976 169.694 167.004 169.638V169.583V169.638C167.032 169.555 167.046 169.471 167.074 169.401V169.373L167.088 169.345C167.144 169.107 167.172 168.925 167.185 168.827V168.883V168.869V168.841C167.185 168.841 167.213 168.757 167.213 168.729C167.213 168.618 167.213 168.506 167.227 168.394C167.227 168.352 167.255 168.31 167.255 168.268C167.255 168.268 167.255 168.212 167.255 168.17L167.283 94.8004C167.283 94.9123 167.255 95.0382 167.255 95.164L167.213 95.1361Z" fill="url(#paint2_linear_4_9233)"/>
<path d="M137.775 130.827C137.775 130.911 106.168 150.351 106.042 150.393C105.944 150.421 105.86 150.449 105.749 150.463C105.623 150.491 105.203 150.589 105.119 150.603C104.867 150.645 103.791 150.743 103.623 150.757C103.539 150.757 102.084 150.729 101.972 150.715C101.861 150.715 101.735 150.701 101.623 150.687C101.525 150.659 100.084 150.365 100.014 150.351C99.7488 150.282 99.2033 150.072 99.1754 150.072C98.8537 149.932 68.2117 131.624 68.2117 130.604C68.2117 130.604 68.1837 171.246 68.2117 171.344L68.2396 171.47L68.2676 171.638C68.2816 171.736 68.3235 171.82 68.3375 171.904C68.4774 172.295 68.6732 172.561 68.7571 172.673C69.0228 173.022 69.2745 173.26 69.5682 173.526C69.7221 173.666 95.9308 188.798 98.3502 190.183V190.211C98.4761 190.309 100.322 190.994 100.322 190.994C100.42 191.036 100.979 191.148 100.979 191.148C100.979 191.148 101.427 191.218 101.567 191.246H101.693C102.63 191.372 103.567 191.372 104.49 191.246C104.532 191.246 105.007 191.176 105.091 191.148H105.119C105.273 191.134 106.35 190.812 106.35 190.812C106.448 190.812 106.504 190.77 106.574 190.756L106.658 190.728C106.658 190.728 107.287 190.463 107.441 190.393C107.441 190.393 107.776 190.225 107.86 190.169L136.139 173.722L136.195 173.694C136.265 173.638 136.419 173.512 136.419 173.512C136.419 173.512 137.174 172.757 137.384 172.421C137.384 172.421 137.412 172.393 137.425 172.365L137.453 172.323V172.309C137.467 172.295 137.481 172.281 137.481 172.267C137.509 172.211 137.537 172.183 137.537 172.155L137.565 172.127L137.607 172.015V171.974C137.607 171.974 137.649 171.904 137.663 171.862V171.806V171.834C137.691 171.806 137.691 171.764 137.705 171.722V171.694C137.747 171.568 137.747 171.456 137.761 171.4V171.456V171.428L137.775 171.372C137.775 171.316 137.775 171.246 137.775 171.19V130.618C137.775 130.687 137.775 130.757 137.775 130.827Z" fill="url(#paint3_linear_4_9233)"/>
<path d="M7.61146 82.8307C6.67444 82.2712 5.86328 82.7188 5.86328 83.8377C5.86328 84.9566 6.64646 86.2852 7.61146 86.8307C8.57645 87.3761 9.35964 86.9425 9.35964 85.8237C9.35964 84.7188 8.60443 83.3762 7.62545 82.8168L7.61146 82.8307Z" fill="#151821"/>
<path d="M21.2228 90.6768C20.2578 90.1173 19.4746 90.5648 19.4746 91.6697C19.4746 92.7746 20.2578 94.1452 21.2088 94.6907C22.1738 95.2361 22.957 94.8025 22.957 93.6836C22.971 92.5788 22.1878 91.2362 21.2228 90.6768Z" fill="#151821"/>
<path d="M28.0057 94.6058C27.0686 94.0604 26.2855 94.4939 26.2715 95.6127C26.2715 96.7036 27.0407 98.0603 28.0057 98.6057C28.9846 99.1652 29.7538 98.7176 29.7538 97.6127C29.7538 96.5078 28.9846 95.1652 28.0057 94.6058Z" fill="#151821"/>
<path d="M7.59779 89.9079C6.63279 89.3485 5.86359 89.8101 5.84961 90.9289C5.84961 92.0338 6.61882 93.3764 7.58381 93.9218C8.5488 94.4812 9.33199 94.0338 9.33199 92.9289C9.33199 91.838 8.54879 90.4813 7.59779 89.9079Z" fill="#151821"/>
<path d="M21.2072 97.7682C20.2282 97.2228 19.473 97.6564 19.459 98.7613C19.459 99.8661 20.2282 101.209 21.1792 101.768C22.1582 102.314 22.9414 101.88 22.9414 100.775C22.9414 99.6703 22.1582 98.3277 21.2072 97.7682Z" fill="#151821"/>
<path d="M28.0043 101.685C27.0254 101.139 26.2422 101.601 26.2422 102.692C26.2422 103.783 27.0254 105.139 27.9904 105.685C28.9554 106.244 29.7385 105.797 29.7385 104.692C29.7385 103.587 28.9694 102.23 28.0183 101.671L28.0043 101.685Z" fill="#151821"/>
<path d="M7.58607 96.9984C6.63506 96.439 5.83789 96.9006 5.83789 97.9914C5.83789 99.0963 6.62107 100.453 7.58607 100.998C8.55106 101.558 9.33425 101.11 9.33425 100.005C9.33425 98.9145 8.55106 97.5579 7.58607 96.9984Z" fill="#151821"/>
<path d="M21.1776 104.859C20.2126 104.286 19.4434 104.733 19.4434 105.852C19.4434 106.957 20.1986 108.3 21.1776 108.859C22.1286 109.405 22.9257 108.957 22.9257 107.852C22.9257 106.747 22.1565 105.405 21.1776 104.859Z" fill="#151821"/>
<path d="M27.9904 108.774C27.0114 108.215 26.2422 108.662 26.2422 109.767C26.2422 110.872 27.0114 112.215 27.9624 112.76C28.9134 113.306 29.7106 112.858 29.7106 111.767C29.7106 110.676 28.9414 109.306 27.9904 108.774Z" fill="#151821"/>
<path d="M7.55677 104.075C6.59178 103.529 5.80859 103.963 5.80859 105.068C5.80859 106.173 6.57779 107.515 7.54278 108.075C8.50778 108.634 9.29096 108.173 9.29096 107.082C9.29096 105.991 8.52176 104.634 7.55677 104.075Z" fill="#151821"/>
<path d="M21.1665 111.935C20.2015 111.361 19.4183 111.823 19.4043 112.928C19.4043 114.019 20.1875 115.375 21.1385 115.935C22.1035 116.48 22.8867 116.033 22.9007 114.928C22.9007 113.823 22.1175 112.48 21.1665 111.935Z" fill="#151821"/>
<path d="M27.9493 115.852C26.9983 115.307 26.2012 115.74 26.2012 116.845C26.2012 117.95 26.9704 119.293 27.9354 119.852C28.9004 120.412 29.6835 119.964 29.6975 118.859C29.6975 117.754 28.9143 116.398 27.9493 115.852Z" fill="#151821"/>
<path d="M7.5431 111.152C6.57811 110.607 5.79492 111.054 5.79492 112.159C5.79492 113.264 6.56412 114.607 7.5431 115.18C8.49411 115.725 9.29128 115.278 9.29128 114.159C9.29128 113.068 8.52208 111.712 7.55709 111.152H7.5431Z" fill="#151821"/>
<path d="M21.1368 119.014C20.1719 118.454 19.3887 118.916 19.3887 120.021C19.3887 121.112 20.1719 122.468 21.1368 123.014C22.1018 123.573 22.885 123.14 22.885 122.021C22.885 120.902 22.1018 119.573 21.1508 119.014H21.1368Z" fill="#151821"/>
<path d="M27.9357 122.928C26.9707 122.382 26.1875 122.83 26.1875 123.921C26.1875 125.026 26.9707 126.396 27.9077 126.928C28.8867 127.487 29.6699 127.054 29.6699 125.935C29.6699 124.816 28.8867 123.473 27.9357 122.928Z" fill="#151821"/>
<path d="M7.52943 118.242C6.56443 117.683 5.78125 118.144 5.78125 119.249C5.78125 120.34 6.56443 121.697 7.52943 122.242C8.49442 122.802 9.26362 122.368 9.2776 121.249C9.2776 120.144 8.49441 118.802 7.5434 118.242H7.52943Z" fill="#151821"/>
<path d="M21.1215 126.088C20.1565 125.543 19.3594 125.976 19.3594 127.095C19.3594 128.214 20.1286 129.543 21.0936 130.088C22.0586 130.648 22.8418 130.2 22.8418 129.095C22.8418 128.004 22.0725 126.648 21.1215 126.088Z" fill="#151821"/>
<path d="M27.9217 130.02C26.9567 129.46 26.1875 129.922 26.1875 131.013C26.1875 132.132 26.9427 133.474 27.9217 134.02C28.8727 134.579 29.6559 134.146 29.6699 133.027C29.6699 131.922 28.8867 130.579 27.9357 130.006L27.9217 130.02Z" fill="#151821"/>
<path d="M7.50013 125.335C6.53514 124.776 5.75195 125.223 5.75195 126.328C5.75195 127.433 6.53513 128.789 7.48614 129.335C8.45114 129.894 9.23432 129.447 9.23432 128.342C9.23432 127.251 8.45114 125.894 7.48614 125.335H7.50013Z" fill="#151821"/>
<path d="M21.0958 133.178C20.1308 132.633 19.3477 133.067 19.3477 134.171C19.3477 135.276 20.1168 136.619 21.0818 137.178C22.0468 137.724 22.83 137.29 22.83 136.185C22.83 135.081 22.0608 133.738 21.0818 133.178H21.0958Z" fill="#151821"/>
<path d="M27.8943 137.109C26.9433 136.55 26.1602 136.983 26.1602 138.102C26.1602 139.221 26.9293 140.55 27.8804 141.109C28.8593 141.682 29.6285 141.207 29.6425 140.116C29.6425 139.011 28.8733 137.668 27.8943 137.109Z" fill="#151821"/>
<path d="M7.48872 132.41C6.52372 131.851 5.72656 132.312 5.72656 133.417C5.72656 134.522 6.50975 135.865 7.47474 136.41C8.42575 136.984 9.20893 136.508 9.22292 135.417C9.22292 134.312 8.43973 132.97 7.48872 132.396V132.41Z" fill="#151821"/>
<path d="M21.068 140.256C20.117 139.711 19.3478 140.158 19.3478 141.249C19.3339 142.354 20.1031 143.697 21.068 144.242C22.033 144.815 22.8162 144.368 22.8162 143.263C22.8162 142.158 22.047 140.801 21.068 140.242V140.256Z" fill="#151821"/>
<path d="M27.8778 144.188C26.9128 143.642 26.1296 144.076 26.1296 145.195C26.1016 146.3 26.8988 147.642 27.8638 148.202C28.8008 148.761 29.598 148.314 29.598 147.209C29.612 146.118 28.8428 144.747 27.8638 144.202L27.8778 144.188Z" fill="#151821"/>
<path d="M7.45911 139.501C6.50811 138.928 5.72492 139.389 5.71094 140.494C5.71094 141.599 6.49412 142.956 7.44513 143.515C8.41012 144.061 9.1933 143.613 9.1933 142.508C9.1933 141.403 8.42411 140.033 7.45911 139.501Z" fill="#151821"/>
<path d="M21.0548 147.333C20.0898 146.787 19.3066 147.221 19.3066 148.326C19.3066 149.431 20.0759 150.773 21.0269 151.347C22.0058 151.906 22.789 151.459 22.803 150.354C22.803 149.249 22.0198 147.906 21.0548 147.333Z" fill="#151821"/>
<path d="M27.8494 151.262C26.8984 150.703 26.1152 151.15 26.1152 152.269C26.1152 153.388 26.8844 154.717 27.8494 155.262C28.8004 155.822 29.5836 155.388 29.5976 154.269C29.5976 153.178 28.8144 151.822 27.8494 151.262Z" fill="#151821"/>
<path d="M7.44544 146.564C6.48045 146.019 5.69727 146.466 5.69727 147.571C5.69727 148.676 6.46647 150.019 7.41748 150.592C8.38247 151.138 9.16565 150.704 9.16565 149.585C9.16565 148.466 8.38247 147.138 7.43147 146.564H7.44544Z" fill="#151821"/>
<path d="M21.0411 154.41C20.0762 153.864 19.307 154.312 19.293 155.431C19.293 156.521 20.0762 157.878 21.0411 158.438C21.9782 158.997 22.7753 158.549 22.7753 157.445C22.7753 156.34 22.0201 154.997 21.0411 154.424V154.41Z" fill="#151821"/>
<path d="M27.8361 158.352C26.8851 157.779 26.1019 158.254 26.0879 159.345C26.0879 160.464 26.8711 161.793 27.8221 162.352C28.7871 162.912 29.5842 162.464 29.5842 161.359C29.5842 160.254 28.8011 158.912 27.8361 158.352Z" fill="#151821"/>
<path d="M7.40216 153.669C6.46513 153.109 5.68195 153.557 5.66797 154.662C5.66797 155.767 6.43716 157.109 7.40216 157.669C8.36715 158.214 9.16432 157.781 9.16432 156.676C9.16432 155.571 8.39512 154.228 7.40216 153.669Z" fill="#151821"/>
<path d="M21.0272 161.515C20.0482 160.941 19.293 161.403 19.293 162.522C19.293 163.612 20.0482 164.955 21.0132 165.528C21.9782 166.074 22.7613 165.626 22.7613 164.508C22.7613 163.417 21.9782 162.074 21.0272 161.515Z" fill="#151821"/>
<path d="M27.8224 165.433C26.8574 164.873 26.0742 165.321 26.0742 166.426C26.0742 167.53 26.8434 168.887 27.8084 169.447C28.7734 170.006 29.5566 169.558 29.5566 168.454C29.5566 167.349 28.7734 166.006 27.8224 165.433Z" fill="#151821"/>
<path d="M7.40638 160.745C6.44139 160.2 5.6582 160.62 5.6582 161.738C5.6582 162.857 6.44139 164.186 7.40638 164.759C8.37137 165.319 9.14057 164.843 9.14057 163.738C9.15455 162.647 8.37138 161.291 7.42037 160.745H7.40638Z" fill="#151821"/>
<path d="M20.9982 168.592C20.0472 168.046 19.264 168.494 19.25 169.585C19.25 170.704 20.0332 172.032 20.9982 172.606C21.9632 173.165 22.7463 172.704 22.7603 171.599C22.7603 170.508 21.9771 169.151 21.0122 168.592H20.9982Z" fill="#151821"/>
<path d="M27.7951 172.508C26.844 171.963 26.0609 172.396 26.0469 173.515C26.0469 174.62 26.8161 175.963 27.7811 176.522C28.7321 177.082 29.5292 176.62 29.5432 175.529C29.5432 174.424 28.76 173.082 27.7951 172.508Z" fill="#151821"/>
<path d="M7.37482 167.823C6.40983 167.277 5.64062 167.711 5.64062 168.83C5.64062 169.934 6.40983 171.277 7.36084 171.823C8.32583 172.396 9.10901 171.948 9.10901 170.843C9.10901 169.739 8.33982 168.396 7.37482 167.823Z" fill="#151821"/>
<path d="M20.9826 175.669C20.0036 175.109 19.2344 175.557 19.2344 176.662C19.2344 177.781 19.9896 179.109 20.9546 179.669C21.9196 180.228 22.7028 179.781 22.7028 178.676C22.7028 177.571 21.9475 176.214 20.9826 175.669Z" fill="#151821"/>
<path d="M27.7794 179.6C26.8004 179.04 26.0312 179.502 26.0312 180.607C26.0312 181.712 26.8144 183.054 27.7794 183.614C28.7444 184.173 29.5276 183.726 29.5276 182.621C29.5276 181.53 28.7584 180.173 27.7934 179.614L27.7794 179.6Z" fill="#151821"/>
<path d="M7.36146 174.899C6.39646 174.353 5.61328 174.787 5.61328 175.906C5.61328 177.011 6.38248 178.353 7.36146 178.899C8.32645 179.458 9.09565 179.025 9.10964 177.906C9.10964 176.815 8.32645 175.458 7.36146 174.899Z" fill="#151821"/>
<path d="M20.9552 182.758C19.9902 182.199 19.207 182.647 19.207 183.765C19.207 184.856 19.9762 186.213 20.9552 186.772C21.9062 187.318 22.6894 186.884 22.6894 185.779C22.6894 184.675 21.9062 183.318 20.9552 182.758Z" fill="#151821"/>
<path d="M27.7518 186.688C26.7868 186.129 26.0176 186.577 26.0176 187.681C26.0176 188.8 26.7728 190.143 27.7378 190.688C28.6888 191.248 29.472 190.8 29.486 189.695C29.486 188.591 28.7168 187.248 27.7518 186.688Z" fill="#151821"/>
<path d="M197.883 82.943C198.834 82.3696 199.631 82.8311 199.631 83.922C199.631 85.0129 198.848 86.3695 197.883 86.9429C196.918 87.4884 196.135 87.0408 196.135 85.922C196.135 84.8031 196.89 83.4744 197.869 82.929L197.883 82.943Z" fill="black"/>
<path d="M184.289 90.7755C185.24 90.2301 186.037 90.6776 186.037 91.7685C186.037 92.8594 185.254 94.2161 184.303 94.7755C183.338 95.3349 182.541 94.8734 182.541 93.7825C182.541 92.6916 183.324 91.321 184.289 90.7616V90.7755Z" fill="black"/>
<path d="M177.493 94.7054C178.43 94.16 179.213 94.5935 179.213 95.7124C179.213 96.8172 178.458 98.1599 177.493 98.7053C176.528 99.2648 175.744 98.8172 175.73 97.7123C175.73 96.5934 176.514 95.2648 177.493 94.7054Z" fill="black"/>
<path d="M197.882 90.0211C198.847 89.4617 199.63 89.8952 199.644 91.0141C199.644 92.119 198.875 93.4616 197.91 94.035C196.945 94.5805 196.162 94.1469 196.162 93.0281C196.162 91.9092 196.931 90.5805 197.882 90.0351V90.0211Z" fill="black"/>
<path d="M184.305 97.8516C185.283 97.2922 186.053 97.7537 186.053 98.8586C186.053 99.9494 185.283 101.306 184.332 101.852C183.353 102.411 182.57 101.963 182.57 100.859C182.57 99.7536 183.34 98.411 184.305 97.8516Z" fill="black"/>
<path d="M177.49 101.783C178.469 101.238 179.238 101.671 179.238 102.804C179.238 103.909 178.483 105.238 177.504 105.797C176.539 106.343 175.756 105.895 175.756 104.79C175.756 103.699 176.525 102.343 177.476 101.783H177.49Z" fill="black"/>
<path d="M197.91 97.1106C198.875 96.5372 199.658 96.9988 199.672 98.1036C199.672 99.1945 198.889 100.551 197.924 101.125C196.973 101.656 196.176 101.208 196.176 100.104C196.176 98.9987 196.959 97.6561 197.91 97.1106Z" fill="black"/>
<path d="M184.332 104.958C185.297 104.399 186.066 104.846 186.08 105.951C186.08 107.042 185.311 108.399 184.332 108.944C183.367 109.503 182.598 109.056 182.584 107.951C182.584 106.846 183.353 105.503 184.332 104.944V104.958Z" fill="black"/>
<path d="M177.52 108.887C178.485 108.299 179.254 108.775 179.254 109.866C179.254 110.971 178.485 112.313 177.534 112.859C176.555 113.432 175.771 112.971 175.771 111.866C175.771 110.761 176.541 109.418 177.506 108.873L177.52 108.887Z" fill="black"/>
<path d="M197.953 104.174C198.904 103.629 199.673 104.062 199.687 105.181C199.687 106.286 198.932 107.629 197.953 108.174C196.988 108.733 196.205 108.286 196.205 107.181C196.205 106.076 196.974 104.734 197.953 104.174Z" fill="black"/>
<path d="M184.345 112.019C185.31 111.474 186.107 111.921 186.107 113.026C186.107 114.131 185.324 115.474 184.359 116.033C183.408 116.593 182.625 116.145 182.625 115.04C182.625 113.935 183.394 112.593 184.345 112.033V112.019Z" fill="black"/>
<path d="M177.547 115.949C178.498 115.404 179.295 115.851 179.295 116.942C179.295 118.047 178.526 119.404 177.575 119.949C176.596 120.509 175.826 120.061 175.812 118.942C175.812 117.837 176.582 116.495 177.561 115.935L177.547 115.949Z" fill="black"/>
<path d="M197.965 111.265C198.93 110.705 199.699 111.153 199.699 112.258C199.699 113.377 198.944 114.705 197.965 115.265C197 115.824 196.217 115.376 196.217 114.272C196.217 113.167 196.986 111.81 197.965 111.265Z" fill="black"/>
<path d="M184.361 119.111C185.326 118.537 186.11 118.999 186.11 120.104C186.11 121.195 185.326 122.551 184.375 123.097C183.41 123.67 182.613 123.208 182.613 122.118C182.613 121.027 183.396 119.67 184.347 119.111H184.361Z" fill="black"/>
<path d="M177.561 123.04C178.54 122.481 179.309 122.928 179.309 124.033C179.309 125.138 178.54 126.495 177.575 127.054C176.624 127.599 175.826 127.166 175.812 126.047C175.812 124.942 176.582 123.599 177.561 123.04Z" fill="black"/>
<path d="M197.969 118.342C198.948 117.796 199.731 118.244 199.731 119.349C199.731 120.453 198.948 121.796 197.983 122.355C197.018 122.901 196.248 122.453 196.234 121.349C196.234 120.244 197.018 118.901 197.955 118.342H197.969Z" fill="black"/>
<path d="M184.388 126.202C185.34 125.629 186.123 126.091 186.137 127.195C186.137 128.3 185.367 129.643 184.388 130.202C183.437 130.762 182.654 130.314 182.654 129.195C182.654 128.091 183.424 126.748 184.388 126.202Z" fill="black"/>
<path d="M177.578 130.118C178.557 129.559 179.326 130.006 179.326 131.111C179.326 132.216 178.557 133.559 177.592 134.132C176.627 134.678 175.844 134.23 175.844 133.125C175.844 132.02 176.627 130.678 177.564 130.118H177.578Z" fill="black"/>
<path d="M197.994 125.432C198.959 124.873 199.728 125.334 199.742 126.425C199.742 127.53 198.973 128.873 198.022 129.432C197.043 129.991 196.274 129.544 196.274 128.439C196.26 127.348 197.029 125.991 198.008 125.432H197.994Z" fill="black"/>
<path d="M184.4 133.264C185.365 132.719 186.148 133.152 186.148 134.271C186.148 135.39 185.365 136.718 184.414 137.278C183.449 137.837 182.666 137.39 182.666 136.285C182.666 135.18 183.435 133.837 184.414 133.264H184.4Z" fill="black"/>
<path d="M177.617 137.209C178.568 136.65 179.351 137.111 179.351 138.202C179.351 139.293 178.582 140.65 177.631 141.209C176.652 141.769 175.883 141.321 175.869 140.216C175.869 139.125 176.638 137.769 177.617 137.223V137.209Z" fill="black"/>
<path d="M198.026 132.509C198.977 131.964 199.76 132.425 199.774 133.516C199.774 134.621 198.991 135.964 198.026 136.523C197.061 137.068 196.291 136.635 196.277 135.53C196.277 134.425 197.061 133.068 198.026 132.509Z" fill="black"/>
<path d="M184.43 140.37C185.395 139.797 186.15 140.258 186.178 141.377C186.178 142.468 185.422 143.811 184.443 144.384C183.478 144.929 182.695 144.482 182.695 143.377C182.695 142.286 183.465 140.929 184.43 140.384V140.37Z" fill="black"/>
<path d="M177.633 144.284C178.598 143.725 179.367 144.172 179.367 145.277C179.367 146.382 178.612 147.725 177.633 148.284C176.682 148.844 175.898 148.396 175.898 147.291C175.898 146.186 176.668 144.83 177.633 144.284Z" fill="black"/>
<path d="M198.037 139.599C198.988 139.039 199.771 139.487 199.785 140.592C199.785 141.697 199.002 143.039 198.051 143.599C197.086 144.158 196.289 143.71 196.289 142.592C196.289 141.487 197.072 140.144 198.037 139.599Z" fill="black"/>
<path d="M184.443 147.432C185.408 146.886 186.178 147.334 186.192 148.425C186.192 149.53 185.422 150.886 184.457 151.446C183.479 152.005 182.709 151.558 182.695 150.439C182.695 149.362 183.478 148.005 184.443 147.446V147.432Z" fill="black"/>
<path d="M177.644 151.377C178.623 150.817 179.393 151.251 179.407 152.37C179.407 153.46 178.623 154.817 177.658 155.376C176.707 155.936 175.91 155.474 175.91 154.384C175.91 153.293 176.693 151.936 177.644 151.377Z" fill="black"/>
<path d="M198.067 146.677C199.032 146.118 199.801 146.551 199.801 147.67C199.801 148.789 199.032 150.118 198.067 150.691C197.102 151.237 196.318 150.789 196.318 149.67C196.318 148.551 197.102 147.223 198.067 146.677Z" fill="black"/>
<path d="M184.473 154.537C185.424 153.964 186.221 154.411 186.221 155.53C186.221 156.649 185.438 157.977 184.473 158.537C183.508 159.082 182.739 158.649 182.739 157.516C182.711 156.425 183.494 155.068 184.459 154.523L184.473 154.537Z" fill="black"/>
<path d="M177.674 158.452C178.625 157.893 179.422 158.34 179.422 159.445C179.422 160.55 178.639 161.907 177.688 162.466C176.723 163.025 175.94 162.564 175.94 161.473C175.926 160.368 176.709 159.026 177.674 158.466V158.452Z" fill="black"/>
<path d="M198.096 153.752C199.047 153.207 199.816 153.654 199.83 154.745C199.83 155.864 199.061 157.193 198.096 157.766C197.131 158.311 196.348 157.878 196.334 156.773C196.334 155.668 197.117 154.311 198.096 153.752Z" fill="black"/>
<path d="M184.484 161.614C185.449 161.054 186.218 161.502 186.246 162.621C186.246 163.726 185.463 165.068 184.498 165.614C183.547 166.173 182.75 165.726 182.75 164.621C182.75 163.516 183.519 162.173 184.484 161.614Z" fill="black"/>
<path d="M177.674 165.529C178.639 164.984 179.422 165.431 179.422 166.536C179.422 167.641 178.653 168.984 177.688 169.529C176.723 170.089 175.939 169.641 175.939 168.536C175.939 167.431 176.723 166.074 177.674 165.515V165.529Z" fill="black"/>
<path d="M198.093 160.844C199.058 160.285 199.841 160.746 199.841 161.837C199.841 162.928 199.058 164.285 198.107 164.83C197.142 165.403 196.373 164.956 196.373 163.837C196.373 162.746 197.142 161.39 198.093 160.844Z" fill="black"/>
<path d="M184.5 168.69C185.465 168.144 186.235 168.578 186.249 169.697C186.249 170.788 185.465 172.144 184.5 172.69C183.535 173.249 182.752 172.802 182.738 171.697C182.738 170.592 183.521 169.235 184.486 168.69H184.5Z" fill="black"/>
<path d="M177.701 172.62C178.652 172.074 179.435 172.508 179.449 173.613C179.449 174.718 178.68 176.06 177.715 176.606C176.764 177.165 175.953 176.718 175.953 175.613C175.953 174.508 176.736 173.165 177.701 172.606V172.62Z" fill="black"/>
<path d="M198.121 167.935C199.086 167.389 199.855 167.809 199.855 168.928C199.855 170.033 199.086 171.375 198.135 171.935C197.17 172.494 196.387 172.033 196.387 170.942C196.387 169.851 197.156 168.494 198.121 167.935Z" fill="black"/>
<path d="M184.527 175.78C185.492 175.221 186.275 175.668 186.275 176.773C186.275 177.878 185.506 179.235 184.541 179.78C183.576 180.34 182.793 179.892 182.793 178.773C182.793 177.682 183.576 176.34 184.527 175.78Z" fill="black"/>
<path d="M177.73 179.698C178.709 179.152 179.478 179.586 179.478 180.705C179.478 181.795 178.709 183.152 177.758 183.712C176.793 184.257 176.01 183.809 176.01 182.719C176.01 181.628 176.779 180.271 177.744 179.698H177.73Z" fill="black"/>
<path d="M198.149 175.011C199.1 174.451 199.897 174.899 199.897 176.004C199.897 177.109 199.114 178.465 198.163 178.997C197.184 179.556 196.4 179.109 196.4 178.018C196.4 176.899 197.184 175.542 198.149 175.011Z" fill="black"/>
<path d="M184.541 182.856C185.506 182.311 186.289 182.744 186.289 183.849C186.289 184.954 185.534 186.297 184.555 186.842C183.604 187.401 182.807 186.968 182.807 185.863C182.807 184.758 183.59 183.402 184.541 182.842V182.856Z" fill="black"/>
<path d="M177.758 186.787C178.709 186.242 179.492 186.676 179.492 187.794C179.492 188.913 178.709 190.242 177.758 190.787C176.793 191.347 176.01 190.899 175.996 189.808C175.996 188.69 176.779 187.333 177.758 186.787Z" fill="black"/>
<defs>
<linearGradient id="paint0_linear_4_9233" x1="316.803" y1="67.2929" x2="1.34513" y2="67.2383" gradientUnits="userSpaceOnUse">
<stop stop-color="#0E1017"/>
<stop offset="0.567708" stop-color="#0E1014"/>
<stop offset="0.88" stop-color="#414551"/>
</linearGradient>
<linearGradient id="paint1_linear_4_9233" x1="209.736" y1="161.303" x2="-40.2375" y2="160.338" gradientUnits="userSpaceOnUse">
<stop stop-color="#08090D"/>
<stop offset="0.415507" stop-color="#181B23"/>
<stop offset="0.52881" stop-color="#383C49"/>
<stop offset="1" stop-color="#535868"/>
</linearGradient>
<linearGradient id="paint2_linear_4_9233" x1="42.3517" y1="159.352" x2="168.997" y2="159.352" gradientUnits="userSpaceOnUse">
<stop stop-color="#242936"/>
<stop offset="0.447917" stop-color="#2A2F3D"/>
<stop offset="0.53125" stop-color="#111319"/>
<stop offset="1"/>
</linearGradient>
<linearGradient id="paint3_linear_4_9233" x1="138.386" y1="164.158" x2="68.6201" y2="164.158" gradientUnits="userSpaceOnUse">
<stop stop-color="#0036A9"/>
<stop offset="0.46875" stop-color="#015DFA"/>
<stop offset="0.583333" stop-color="#2C79FF"/>
<stop offset="0.88" stop-color="#256EFF"/>
</linearGradient>
</defs>
</svg>
