<svg width="56" height="57" viewBox="0 0 56 57" fill="none" xmlns="http://www.w3.org/2000/svg">
<g clip-path="url(#clip0_457_36495)">
<path d="M27.9993 5.18164C21.886 5.18164 16.916 10.1516 16.916 16.265C16.916 22.2616 21.606 27.115 27.7193 27.325C27.906 27.3016 28.0927 27.3016 28.2327 27.325H28.396C31.2645 27.2293 33.9834 26.0218 35.9777 23.9578C37.972 21.8938 39.0855 19.1351 39.0827 16.265C39.0827 10.1516 34.1127 5.18164 27.9993 5.18164Z" fill="#015DFA"/>
<path d="M39.8542 33.5577C33.3442 29.2177 22.7276 29.2177 16.1709 33.5577C13.2076 35.5177 11.5742 38.2011 11.5742 41.0711C11.5742 43.9411 13.2076 46.6011 16.1476 48.5611C19.4142 50.7544 23.7076 51.8511 28.0009 51.8511C32.2942 51.8511 36.5876 50.7544 39.8542 48.5611C42.7942 46.5777 44.4276 43.9177 44.4276 41.0244C44.4042 38.1777 42.7942 35.4944 39.8542 33.5577Z" fill="#BFD0FF"/>
<path d="M26.5251 45.455C26.1518 45.455 25.7785 45.2916 25.4985 45.035L22.5585 42.095C22.2894 41.821 22.1387 41.4523 22.1387 41.0683C22.1387 40.6843 22.2894 40.3156 22.5585 40.0416C23.1185 39.4816 24.0518 39.4816 24.6118 40.0416L26.5251 41.955L31.3785 37.1016C31.9385 36.5416 32.8718 36.5416 33.4318 37.1016C33.9918 37.6616 33.9918 38.595 33.4318 39.155L27.5518 45.035C27.4167 45.1691 27.2565 45.2752 27.0803 45.3473C26.9041 45.4194 26.7155 45.456 26.5251 45.455Z" fill="#015DFA"/>
<path d="M36.2216 2.62208L37.1538 2.96707L36.2216 2.62208L34.5704 7.08403L30.1084 8.73531L30.4555 9.67315L30.1084 8.73531C29.0758 9.11744 29.0758 10.5779 30.1084 10.96L34.5704 12.6113L36.2216 17.0732C36.6038 18.1058 38.0642 18.1058 38.4463 17.0732L40.0976 12.6113L44.5596 10.96C45.5921 10.5779 45.5921 9.11744 44.5596 8.73531L40.0976 7.08403L38.4463 2.62208C38.0642 1.58951 36.6038 1.58952 36.2216 2.62208Z" fill="#07080C" stroke="#DFE7FF" stroke-width="2"/>
</g>
<defs>
<clipPath id="clip0_457_36495">
<rect width="56" height="56" fill="white" transform="translate(0 0.515625)"/>
</clipPath>
</defs>
</svg>
