<svg width="143" height="47" viewBox="0 0 143 47" fill="none" xmlns="http://www.w3.org/2000/svg">
<path d="M9.63107 46.3804C9.26365 46.3804 8.9051 46.3757 8.54056 46.3675C7.78539 46.3577 7.03198 46.2922 6.28651 46.1714C5.5914 46.052 4.91803 45.83 4.2886 45.5125C3.66495 45.1977 3.09612 44.785 2.60392 44.29C2.1046 43.8009 1.68888 43.2336 1.37326 42.6106C1.05416 41.9836 0.833322 41.3115 0.718442 40.6178C0.594381 39.8723 0.527259 39.1186 0.517655 38.363C0.510009 38.1094 0.5 37.2649 0.5 37.2649V9.48533C0.5 9.48533 0.51066 8.65388 0.517715 8.4096C0.526911 7.65522 0.593643 6.90263 0.717332 6.15834C0.832425 5.46269 1.05343 4.78866 1.37271 4.15958C1.68717 3.53704 2.10057 2.96933 2.59689 2.47848C3.09265 1.98295 3.6633 1.56805 4.28801 1.2489C4.91599 0.932491 5.58809 0.71199 6.2818 0.594786C7.02971 0.472807 7.78573 0.406859 8.54353 0.397496L9.63166 0.382812H133.563L134.664 0.398085C135.415 0.406983 136.164 0.472342 136.905 0.593608C137.606 0.712282 138.285 0.934321 138.92 1.25243C140.172 1.89561 141.19 2.91318 141.833 4.16252C142.147 4.78725 142.364 5.45578 142.478 6.14543C142.603 6.89582 142.673 7.65433 142.688 8.41489C142.691 8.75546 142.691 9.12127 142.691 9.48533C142.701 9.93629 142.701 10.3655 142.701 10.7983V35.9661C142.701 36.403 142.701 36.8293 142.691 37.2591C142.691 37.6501 142.691 38.0084 142.686 38.3771C142.672 39.1241 142.603 39.869 142.48 40.606C142.368 41.3048 142.148 41.9821 141.829 42.6143C141.511 43.2305 141.098 43.7928 140.604 44.2806C140.112 44.7782 139.542 45.1934 138.917 45.5102C138.283 45.8301 137.605 46.053 136.905 46.1714C136.16 46.2928 135.406 46.3584 134.651 46.3675C134.298 46.3757 133.928 46.3804 133.569 46.3804L132.262 46.3828L9.63107 46.3804Z" fill="white"/>
<path d="M29.5896 23.245C29.6031 22.2012 29.8811 21.1778 30.3978 20.27C30.9145 19.3621 31.6531 18.5994 32.5448 18.0527C31.9783 17.2459 31.231 16.5819 30.3622 16.1136C29.4933 15.6452 28.5269 15.3853 27.5398 15.3545C25.4339 15.134 23.3924 16.611 22.3193 16.611C21.2254 16.611 19.5732 15.3763 17.7941 15.4128C16.6433 15.4499 15.5217 15.7836 14.5387 16.3815C13.5557 16.9793 12.7448 17.8208 12.1849 18.8241C9.75962 23.0114 11.5686 29.1653 13.8919 32.55C15.0542 34.2074 16.4127 36.0588 18.1903 35.9931C19.9297 35.9212 20.5793 34.8871 22.679 34.8871C24.7591 34.8871 25.3686 35.9931 27.1822 35.9514C29.0487 35.9212 30.2247 34.2866 31.3463 32.6136C32.1814 31.4326 32.8241 30.1274 33.2504 28.7463C32.1661 28.2889 31.2407 27.5234 30.5897 26.5451C29.9387 25.5668 29.5909 24.4191 29.5896 23.245Z" fill="black"/>
<path d="M26.1631 13.1288C27.1808 11.9105 27.6822 10.3446 27.5608 8.76367C26.006 8.92652 24.5698 9.66753 23.5383 10.8391C23.034 11.4114 22.6478 12.0772 22.4017 12.7985C22.1556 13.5197 22.0545 14.2823 22.1041 15.0426C22.8817 15.0506 23.6511 14.8825 24.3542 14.551C25.0573 14.2195 25.6758 13.7332 26.1631 13.1288Z" fill="black"/>
<path d="M50.4557 31.9653H44.7475L43.3767 36.0016H40.959L46.3656 21.0684H48.8776L54.2842 36.0016H51.8253L50.4557 31.9653ZM45.3387 30.1028H49.8634L47.6328 23.5522H47.5704L45.3387 30.1028Z" fill="black"/>
<path d="M65.9603 30.5583C65.9603 33.9417 64.1444 36.1154 61.404 36.1154C60.7098 36.1517 60.0194 35.9922 59.4118 35.6553C58.8043 35.3184 58.3042 34.8178 57.9687 34.2106H57.9169V39.6033H55.6758V25.114H57.845V26.9248H57.8863C58.2371 26.3206 58.7457 25.8225 59.3579 25.4836C59.97 25.1447 60.6629 24.9775 61.3627 25.0001C64.1338 25.0001 65.9603 27.1844 65.9603 30.5583ZM63.6568 30.5583C63.6568 28.3541 62.5145 26.9049 60.7716 26.9049C59.0592 26.9049 57.9075 28.3846 57.9075 30.5583C57.9075 32.7521 59.0592 34.2212 60.7716 34.2212C62.5145 34.2212 63.6568 32.7826 63.6568 30.5583H63.6568Z" fill="black"/>
<path d="M77.9785 30.5583C77.9785 33.9417 76.162 36.1154 73.4215 36.1154C72.7273 36.1517 72.037 35.9922 71.4294 35.6553C70.8219 35.3184 70.3218 34.8178 69.9863 34.2106H69.9345V39.6033H67.6934V25.114H69.8626V26.9248H69.9038C70.2547 26.3206 70.7633 25.8225 71.3754 25.4836C71.9876 25.1447 72.6805 24.9775 73.3803 25.0001C76.1514 25.0001 77.9785 27.1844 77.9785 30.5583ZM75.6744 30.5583C75.6744 28.3541 74.5321 26.9049 72.7891 26.9049C71.0768 26.9049 69.9251 28.3846 69.9251 30.5583C69.9251 32.7521 71.0768 34.2212 72.7891 34.2212C74.5321 34.2212 75.6744 32.7826 75.6744 30.5583Z" fill="black"/>
<path d="M85.9191 31.8418C86.0852 33.3227 87.5278 34.295 89.4992 34.295C91.3882 34.295 92.7472 33.3226 92.7472 31.9874C92.7472 30.8283 91.9276 30.1342 89.9868 29.6586L88.046 29.1924C85.2962 28.53 84.0196 27.2476 84.0196 25.1666C84.0196 22.5901 86.2713 20.8203 89.4675 20.8203C92.633 20.8203 94.8023 22.5901 94.8753 25.1666H92.613C92.4775 23.6764 91.2422 22.7768 89.4368 22.7768C87.6315 22.7768 86.3961 23.687 86.3961 25.0116C86.3961 26.0674 87.1851 26.6886 89.1153 27.1642L90.7652 27.5682C93.8377 28.2928 95.1132 29.5235 95.1132 31.7078C95.1132 34.5016 92.8826 36.2515 89.3331 36.2515C86.0121 36.2515 83.7699 34.5427 83.625 31.8417L85.9191 31.8418Z" fill="black"/>
<path d="M99.9505 22.5371V25.1137H102.027V26.8834H99.9505V32.8856C99.9505 33.8181 100.366 34.2526 101.279 34.2526C101.525 34.2483 101.771 34.2311 102.016 34.2009V35.9601C101.606 36.0365 101.189 36.0712 100.771 36.0634C98.5609 36.0634 97.6988 35.2355 97.6988 33.124V26.8834H96.1113V25.1137H97.6988V22.5371H99.9505Z" fill="black"/>
<path d="M103.23 30.5607C103.23 27.135 105.254 24.9824 108.409 24.9824C111.574 24.9824 113.588 27.135 113.588 30.5607C113.588 33.9957 111.585 36.1389 108.409 36.1389C105.234 36.1389 103.23 33.9957 103.23 30.5607ZM111.305 30.5607C111.305 28.2108 110.225 26.8238 108.409 26.8238C106.593 26.8238 105.513 28.2213 105.513 30.5607C105.513 32.92 106.593 34.2963 108.409 34.2963C110.225 34.2963 111.305 32.92 111.305 30.5607H111.305Z" fill="black"/>
<path d="M115.436 25.1139H117.573V26.967H117.625C117.769 26.3882 118.109 25.8767 118.588 25.5185C119.066 25.1603 119.653 24.9772 120.251 24.9999C120.509 24.999 120.767 25.027 121.019 25.0833V27.1737C120.693 27.0743 120.353 27.0287 120.012 27.0386C119.686 27.0255 119.362 27.0827 119.061 27.2064C118.759 27.3302 118.488 27.5175 118.266 27.7554C118.045 27.9934 117.877 28.2764 117.775 28.5851C117.673 28.8937 117.64 29.2207 117.677 29.5436V36.0014H115.436L115.436 25.1139Z" fill="black"/>
<path d="M131.351 32.8061C131.049 34.7825 129.119 36.1389 126.65 36.1389C123.473 36.1389 121.502 34.0168 121.502 30.6123C121.502 27.1973 123.484 24.9824 126.555 24.9824C129.576 24.9824 131.476 27.0517 131.476 30.3528V31.1185H123.764V31.2535C123.729 31.6542 123.779 32.0579 123.912 32.4377C124.045 32.8175 124.257 33.1648 124.535 33.4565C124.813 33.7481 125.15 33.9775 125.523 34.1294C125.897 34.2813 126.298 34.3522 126.701 34.3374C127.231 34.3869 127.762 34.2646 128.217 33.9887C128.671 33.7128 129.024 33.298 129.223 32.806L131.351 32.8061ZM123.775 29.5566H129.233C129.253 29.1963 129.199 28.8358 129.072 28.4976C128.946 28.1594 128.751 27.8509 128.5 27.5915C128.248 27.332 127.946 27.1271 127.611 26.9898C127.277 26.8524 126.917 26.7855 126.555 26.7933C126.19 26.7911 125.829 26.861 125.491 26.999C125.153 27.137 124.846 27.3403 124.588 27.5972C124.329 27.8541 124.124 28.1595 123.985 28.4958C123.845 28.8321 123.774 29.1927 123.775 29.5566V29.5566Z" fill="black"/>
</svg>
