<svg width="56" height="57" viewBox="0 0 56 57" fill="none" xmlns="http://www.w3.org/2000/svg">
<path d="M40.786 25.1316C39.806 26.0883 39.246 27.465 39.386 28.935C39.596 31.455 41.906 33.2983 44.426 33.2983H48.9994V36.6816C48.9994 43.6816 44.3327 48.3483 37.3327 48.3483H16.3327C9.33268 48.3483 4.66602 43.6816 4.66602 36.6816V20.3483C4.66602 14.0016 8.49268 9.56831 14.4427 8.82164C15.0493 8.72831 15.6793 8.68164 16.3327 8.68164H37.3327C37.9394 8.68164 38.5227 8.70497 39.0827 8.79831C45.1027 9.49831 48.9994 13.955 48.9994 20.3483V23.7316H44.146C42.8394 23.7316 41.6493 24.245 40.786 25.1316Z" fill="#BFD0FF"/>
<path d="M51.3332 26.1124V30.9191C51.3332 32.2024 50.3065 33.2524 48.9999 33.2991H44.4265C41.9065 33.2991 39.5965 31.4558 39.3865 28.9358C39.2465 27.4658 39.8065 26.0891 40.7865 25.1324C41.6499 24.2458 42.8399 23.7324 44.1465 23.7324H48.9999C50.3065 23.7791 51.3332 24.8291 51.3332 26.1124Z" fill="#015DFA"/>
<path d="M28.2793 21.8896L34.9293 15.2629C35.606 14.5863 35.606 13.4663 34.9293 12.7896C34.6 12.4642 34.1557 12.2816 33.6927 12.2816C33.2297 12.2816 32.7853 12.4642 32.456 12.7896L28.816 16.4296V4.59961C28.816 3.64294 28.0227 2.84961 27.066 2.84961C26.1093 2.84961 25.316 3.64294 25.316 4.59961V16.4296L21.6527 12.7896C21.3234 12.4642 20.879 12.2816 20.416 12.2816C19.953 12.2816 19.5087 12.4642 19.1793 12.7896C18.8293 13.1396 18.666 13.5829 18.666 14.0263C18.666 14.4696 18.8293 14.9129 19.1793 15.2629L25.8293 21.8896C26.506 22.5896 27.6027 22.5896 28.2793 21.8896Z" fill="#015DFA"/>
<path d="M15.4407 30.7914C15.5007 30.6294 15.7298 30.6294 15.7897 30.7914L17.5709 35.6043C17.5897 35.6553 17.6299 35.6954 17.6808 35.7143L22.4937 37.4954C22.6557 37.5554 22.6557 37.7845 22.4937 37.8444L17.6808 39.6256C17.6299 39.6444 17.5897 39.6846 17.5709 39.7355L15.7897 44.5484C15.7298 44.7104 15.5007 44.7104 15.4407 44.5484L13.6596 39.7355C13.6407 39.6846 13.6006 39.6444 13.5496 39.6256L8.73673 37.8444C8.57474 37.7845 8.57474 37.5554 8.73673 37.4954L13.5496 35.7143C13.6006 35.6954 13.6407 35.6553 13.6596 35.6043L15.4407 30.7914Z" fill="#07080C"/>
<circle cx="5" cy="5.51562" r="3" fill="#07080C"/>
<circle cx="49" cy="50.5156" r="3" fill="#015DFA"/>
</svg>
