<svg width="112" height="23" viewBox="0 0 112 23" fill="none" xmlns="http://www.w3.org/2000/svg">
<path fill-rule="evenodd" clip-rule="evenodd" d="M10.0614 20.6785C9.93151 20.1053 9.77477 19.5539 9.64894 18.9745C10.252 19.0009 10.8257 18.9456 11.4012 18.8523C11.5537 19.4204 11.6723 19.9766 11.8307 20.5356C12.0817 20.4753 12.3133 20.4197 12.5636 20.3596C12.4229 19.7878 12.2873 19.2364 12.155 18.6988C12.7085 18.4923 13.2439 18.2926 13.7924 18.0881C13.9263 18.6209 14.062 19.1609 14.1985 19.7042C17.4356 18.2057 20.2156 14.0381 19.0883 9.24929C17.9227 4.29718 13.4293 1.88682 9.81299 2.08464C9.9576 2.67114 10.1015 3.25447 10.2441 3.83299C9.6641 3.91289 9.09824 3.99091 8.51409 4.07139C8.36752 3.48775 8.21854 2.89434 8.06514 2.28349C7.80924 2.35168 7.57402 2.41436 7.33068 2.4792C7.48256 3.09467 7.62935 3.68956 7.77914 4.29647C7.21037 4.48034 6.68576 4.71757 6.16765 5.01277C6.0106 4.38605 5.85948 3.78304 5.70716 3.17533C2.19791 4.98906 -0.215056 9.47271 1.22386 14.1426C2.64012 18.7388 6.91291 20.789 10.0614 20.6785ZM14.4032 20.5263C14.4582 20.7504 14.5108 20.9684 14.5653 21.1858C14.599 21.3208 14.6162 21.4555 14.5818 21.5932C14.5332 21.7876 14.4386 21.9555 14.2644 22.0561C14.008 22.2041 13.7318 22.2918 13.4331 22.2143C13.1576 22.1427 12.978 21.9606 12.8986 21.6856C12.8485 21.5122 12.808 21.3359 12.7586 21.1428C12.5097 21.2015 12.2692 21.2583 12.0187 21.3175C12.0624 21.4932 12.1026 21.652 12.1412 21.8112C12.2538 22.2748 12.0291 22.6624 11.5703 22.7841C11.4392 22.8188 11.3021 22.8532 11.1683 22.851C10.8373 22.8454 10.5653 22.6236 10.4716 22.2979C10.4124 22.0922 10.3655 21.8828 10.3125 21.6752C10.2991 21.623 10.2834 21.5714 10.2663 21.5109C7.57041 21.514 5.21077 20.632 3.22695 18.7966C1.64587 17.3339 0.644441 15.5269 0.21418 13.4122C-0.237753 11.1906 0.0256034 9.046 1.00345 7.00195C1.9812 4.95798 3.49177 3.4235 5.49669 2.3611C5.47992 2.27891 5.46538 2.19933 5.44728 2.12059C5.41535 1.98147 5.37428 1.84409 5.34945 1.7037C5.28091 1.31672 5.49829 0.960629 5.87121 0.843471C5.96494 0.814058 6.06103 0.790698 6.1574 0.771553C6.54561 0.694524 6.91121 0.911936 7.03049 1.29224C7.07121 1.42204 7.10166 1.55507 7.13921 1.69577C7.38384 1.63134 7.61535 1.57036 7.8681 1.50378C7.83818 1.37501 7.80656 1.24973 7.78016 1.12339C7.71261 0.800114 7.84393 0.479892 8.12356 0.3144C8.31994 0.198228 8.53964 0.142407 8.76683 0.148953C9.1018 0.158593 9.36917 0.374884 9.46402 0.701743C9.51735 0.885572 9.56065 1.07236 9.61014 1.2644C12.3443 1.18678 14.75 2.02935 16.7921 3.85411C18.3845 5.27695 19.4163 7.05024 19.8834 9.13953C20.3977 11.4395 20.1532 13.6662 19.1282 15.7902C18.1041 17.9121 16.5153 19.4781 14.4032 20.5263Z" fill="#07080C"/>
<path fill-rule="evenodd" clip-rule="evenodd" d="M16.9445 11.6632C16.9445 11.8607 16.9506 12.0357 16.9435 12.2102C16.8962 13.3703 16.5931 14.4521 15.9625 15.4334C15.4082 16.2959 14.6836 16.9747 13.7894 17.4689C12.798 18.0168 11.7324 18.3274 10.6102 18.438C9.51744 18.5456 8.46139 18.3875 7.4538 17.9405C6.82275 17.6607 6.26067 17.2769 5.76094 16.7971C4.90867 15.9788 4.32002 14.9959 3.93296 13.8835C3.69543 13.2009 3.53494 12.5007 3.4611 11.7818C3.32746 10.4805 3.49833 9.22602 4.0584 8.03709C4.31997 7.48179 4.67042 6.98621 5.09002 6.53825C6.07402 5.48786 7.30237 4.89436 8.68274 4.58266C9.3958 4.42165 10.1167 4.34323 10.8482 4.39067C12.2278 4.48016 13.4369 4.98368 14.4747 5.9026C15.1112 6.46633 15.5963 7.14569 15.9831 7.89989C15.9999 7.93266 16.0111 7.9684 16.0332 8.02359C14.8945 8.30871 13.7677 8.59082 12.6472 8.87136C12.5099 8.71918 12.3881 8.57069 12.2526 8.43627C11.6387 7.82739 10.8946 7.52218 10.0355 7.52725C9.43143 7.53084 8.85312 7.67145 8.3211 7.96961C7.55766 8.39748 7.1199 9.07169 6.90359 9.90404C6.76215 10.5824 6.75889 11.1341 6.8664 11.7524C6.99269 12.4787 7.2119 13.1727 7.61005 13.798C8.06925 14.5192 8.69077 15.0307 9.52685 15.2507C10.0599 15.3909 10.5893 15.3468 11.1145 15.2029C12.0347 14.9507 12.749 14.4318 13.1977 13.5712C13.333 13.3117 13.4287 13.0375 13.4903 12.7513C13.5064 12.6766 13.5221 12.6018 13.5408 12.5137C14.6674 12.2322 15.7947 11.9505 16.9445 11.6632Z" fill="#07080C"/>
<path fill-rule="evenodd" clip-rule="evenodd" d="M24.9191 7.84714C25.4251 6.92584 26.1305 6.20801 27.0357 5.69347C27.9406 5.17915 28.9668 4.92188 30.1137 4.92188C31.519 4.92188 32.722 5.29496 33.7228 6.04113C34.7235 6.78725 35.3925 7.80477 35.7298 9.0936H32.5591C32.323 8.59623 31.9883 8.21758 31.5557 7.9574C31.1227 7.69744 30.6307 7.56736 30.0799 7.56736C29.1916 7.56736 28.4719 7.8784 27.9212 8.50005C27.3701 9.12194 27.0948 9.95289 27.0948 10.9929C27.0948 12.0332 27.3701 12.8642 27.9212 13.4858C28.4719 14.1077 29.1916 14.4185 30.0799 14.4185C30.6307 14.4185 31.1227 14.2886 31.5557 14.0284C31.9883 13.7685 32.323 13.3898 32.5591 12.8922H35.7298C35.3925 14.1811 34.7235 15.1959 33.7228 15.9362C32.722 16.6768 31.519 17.047 30.1137 17.047C28.9668 17.047 27.9406 16.7899 27.0357 16.2754C26.1305 15.7611 25.4251 15.0459 24.9191 14.1302C24.4131 13.2144 24.1602 12.1688 24.1602 10.9929C24.1602 9.81722 24.4131 8.76876 24.9191 7.84714Z" fill="#07080C"/>
<path fill-rule="evenodd" clip-rule="evenodd" d="M45.3685 13.4865C45.9361 12.8535 46.2202 12.017 46.2202 10.9767C46.2202 9.92529 45.9361 9.08586 45.3685 8.45838C44.8007 7.83093 44.0446 7.51721 43.1001 7.51721C42.1443 7.51721 41.3825 7.82829 40.8149 8.4499C40.247 9.07178 39.9632 9.91413 39.9632 10.9767C39.9632 12.0281 40.247 12.8675 40.8149 13.495C41.3825 14.1224 42.1443 14.4362 43.1001 14.4362C44.0446 14.4362 44.8007 14.1198 45.3685 13.4865ZM40.039 16.3015C39.1114 15.7817 38.3749 15.0551 37.8297 14.1224C37.2842 13.1898 37.0117 12.1412 37.0117 10.9767C37.0117 9.81244 37.2842 8.76654 37.8297 7.83945C38.3749 6.91255 39.1114 6.18889 40.039 5.66878C40.9667 5.1489 41.987 4.88867 43.1001 4.88867C44.2133 4.88867 45.2336 5.1489 46.1612 5.66878C47.0888 6.18889 47.8195 6.91255 48.3537 7.83945C48.8876 8.76654 49.1548 9.81244 49.1548 10.9767C49.1548 12.1412 48.885 13.1898 48.3453 14.1224C47.8056 15.0551 47.0746 15.7817 46.1528 16.3015C45.2307 16.8217 44.2133 17.0817 43.1001 17.0817C41.987 17.0817 40.9667 16.8217 40.039 16.3015Z" fill="#07080C"/>
<path fill-rule="evenodd" clip-rule="evenodd" d="M50.7578 16.9633H53.6418V5.05859H50.7578V16.9633Z" fill="#07080C"/>
<path fill-rule="evenodd" clip-rule="evenodd" d="M66.3239 16.9633H63.4399L58.6164 9.62035V16.9633H55.7324V5.05859H58.6164L63.4399 12.4355V5.05859H66.3239V16.9633Z" fill="#07080C"/>
<path fill-rule="evenodd" clip-rule="evenodd" d="M74.0997 9.99344C74.3695 9.73347 74.5044 9.36599 74.5044 8.89113C74.5044 8.41631 74.3695 8.04906 74.0997 7.78887C73.8298 7.52891 73.4193 7.39884 72.8685 7.39884H71.3V10.3835H72.8685C73.4193 10.3835 73.8298 10.2536 74.0997 9.99344ZM76.9668 10.782C76.6518 11.353 76.1683 11.8138 75.5164 12.1641C74.8641 12.5146 74.0546 12.6898 73.0878 12.6898H71.3V16.9632H68.416V5.05859H73.0878C74.0322 5.05859 74.8304 5.22261 75.4826 5.55036C76.1346 5.87843 76.6237 6.33047 76.9499 6.90702C77.2759 7.48358 77.439 8.14496 77.439 8.89113C77.439 9.58085 77.2814 10.2112 76.9668 10.782Z" fill="#07080C"/>
<path fill-rule="evenodd" clip-rule="evenodd" d="M84.0719 12.6219L82.6046 8.26369L81.1542 12.6219H84.0719ZM84.814 14.8604H80.3952L79.6868 16.9632H76.668L80.9518 5.05859H84.2911L88.575 16.9632H85.5223L84.814 14.8604Z" fill="#07080C"/>
<path fill-rule="evenodd" clip-rule="evenodd" d="M92.757 10.4174H94.5448C95.0731 10.4174 95.4695 10.2876 95.7338 10.0274C95.9978 9.76746 96.1301 9.39994 96.1301 8.92512C96.1301 8.47307 95.9978 8.11694 95.7338 7.85675C95.4695 7.59679 95.0731 7.46667 94.5448 7.46667H92.757V10.4174ZM95.9109 16.9633L93.4485 12.4694H92.757V16.9633H89.873V5.05859H94.7134C95.6466 5.05859 96.4421 5.22265 97.0999 5.55041C97.7576 5.87847 98.2494 6.32783 98.5756 6.8986C98.9016 7.46963 99.0647 8.10551 99.0647 8.80639C99.0647 9.59789 98.8426 10.3045 98.3985 10.9262C97.9542 11.5481 97.2994 11.989 96.4337 12.2489L99.1659 16.9633H95.9109Z" fill="#07080C"/>
<path fill-rule="evenodd" clip-rule="evenodd" d="M107.498 12.6219L106.03 8.26369L104.58 12.6219H107.498ZM108.24 14.8604H103.821L103.113 16.9632H100.094L104.378 5.05859H107.717L112.001 16.9632H108.948L108.24 14.8604Z" fill="#07080C"/>
</svg>
