<svg width="142" height="143" viewBox="0 0 142 143" fill="none" xmlns="http://www.w3.org/2000/svg">
<path d="M71 141.383C109.66 141.383 141 110.043 141 71.3828C141 32.7229 109.66 1.38281 71 1.38281C32.3401 1.38281 1 32.7229 1 71.3828C1 110.043 32.3401 141.383 71 141.383Z" stroke="#D5E0FF" stroke-width="2" stroke-miterlimit="10" stroke-linecap="round" stroke-linejoin="round"/>
<path d="M112.687 71.3829C112.687 48.3977 93.9874 29.7011 71.0048 29.7011C70.6595 29.7011 70.3168 29.7065 69.9742 29.7147L68.9516 25.8965C68.4893 24.1751 66.7352 23.1471 65.0138 23.5741H65.0111C64.992 23.5795 64.9757 23.5822 64.9567 23.5877C64.9404 23.5931 64.924 23.5958 64.9077 23.6013L64.8887 23.6067C63.2842 24.0745 62.3024 25.6762 62.588 27.2998C62.6043 27.3895 62.6233 27.482 62.6478 27.5717C62.6478 27.5745 62.6478 27.5772 62.6478 27.5826C62.6478 27.5881 62.6478 27.5908 62.6505 27.5962L62.7212 27.86L63.4011 30.3946C61.2391 30.7971 59.1342 31.3654 57.1 32.0861L56.3467 29.2741C55.8817 27.5337 54.0923 26.503 52.3518 26.968C50.6303 27.4303 49.5996 29.1871 50.032 30.9086C50.0375 30.9276 50.0402 30.9439 50.0456 30.963C50.0456 30.9684 50.0484 30.9738 50.0511 30.9793L50.0728 31.0581L51.0709 34.7811C38.1233 41.8627 29.3203 55.6125 29.3203 71.3802C29.3203 94.3654 48.0196 113.062 71.0021 113.062C71.3502 113.062 71.6956 113.057 72.041 113.048L73.0417 116.782C73.0472 116.812 73.0553 116.839 73.0635 116.869C73.0717 116.897 73.0798 116.924 73.088 116.951C73.5802 118.615 75.2935 119.602 76.9796 119.197C76.9878 119.197 76.9959 119.195 77.0041 119.192H77.0068C77.0258 119.186 77.0421 119.184 77.0612 119.178C77.0775 119.173 77.0938 119.17 77.1101 119.165L77.1292 119.159C77.1292 119.159 77.1428 119.154 77.1509 119.154C78.8207 118.656 79.8052 116.929 79.3836 115.238C79.3836 115.238 79.3836 115.232 79.3836 115.229C79.3809 115.213 79.3755 115.2 79.3727 115.183C79.37 115.17 79.3646 115.156 79.3619 115.142C79.3619 115.142 79.3564 115.123 79.3537 115.115C79.3537 115.115 79.3537 115.115 79.3537 115.113L78.6195 112.371C80.7815 111.969 82.8863 111.4 84.9205 110.677L85.6031 113.231L85.6602 113.44C85.6657 113.459 85.6684 113.475 85.6738 113.494C85.6738 113.5 85.6766 113.508 85.6793 113.513C86.1525 115.24 87.9365 116.266 89.6688 115.801C91.4093 115.333 92.44 113.546 91.9749 111.806L90.9497 107.982C103.895 100.9 112.692 87.1506 112.692 71.3856L112.687 71.3829ZM89.1956 101.461L87.8631 96.4812C86.0219 97.7213 84.0367 98.7656 81.94 99.5814L83.2181 104.351C81.1975 105.102 79.0926 105.67 76.917 106.04L75.6389 101.27C74.1268 101.504 72.5794 101.624 71.0021 101.624C70.3168 101.624 69.6369 101.602 68.9598 101.556L70.2923 106.53C51.2313 106.152 35.8417 90.5282 35.8417 71.3802C35.8417 58.6448 42.6486 47.4703 52.8141 41.2998L54.1466 46.2765C55.9878 45.0364 57.973 43.9921 60.0697 43.1762L58.7916 38.4062C60.8122 37.6557 62.9198 37.0873 65.0926 36.7174L66.3708 41.4874C67.8801 41.2536 69.4248 41.1339 70.9994 41.1339C71.6874 41.1339 72.37 41.1584 73.0472 41.2019L71.7146 36.2279C90.7729 36.6114 106.16 52.2295 106.16 71.3775C106.16 84.1102 99.3557 95.2846 89.1929 101.455L89.1956 101.461Z" fill="#D5E0FF"/>
<path d="M85.9081 75.6847C85.4159 77.4034 84.6272 79.0242 83.5666 80.4846C83.0853 81.1481 82.5468 81.7791 81.9539 82.3692C80.7954 83.5277 79.4901 84.4795 78.0787 85.2084C76.1396 86.2091 73.9994 86.7884 71.7776 86.8999C71.5219 86.9135 71.2609 86.9189 71.0025 86.9189C68.7834 86.9189 66.635 86.4539 64.6661 85.5673C62.9691 84.8032 61.4081 83.7289 60.0511 82.3719C57.1195 79.4403 55.5041 75.5487 55.5041 71.4205C55.5041 68.1217 56.5348 64.9753 58.4466 62.3482C58.9279 61.6874 59.4637 61.0592 60.0538 60.469C61.2123 59.3105 62.5231 58.356 63.9373 57.6272C65.879 56.6264 68.0165 56.0471 70.2383 55.9411C70.494 55.9275 70.7496 55.922 71.0052 55.922C73.2271 55.922 75.3782 56.3898 77.3498 57.2791C79.0441 58.0432 80.6024 59.1147 81.9567 60.4718C82.0083 60.5234 82.06 60.5751 82.109 60.6268L90.6645 55.4706C86.694 50.5864 80.945 47.2033 74.4128 46.3222C73.2978 46.1699 72.161 46.0938 71.0052 46.0938C69.8494 46.0938 68.7535 46.1699 67.6575 46.314C65.4547 46.605 63.3444 47.1816 61.3564 48.0028C59.2515 48.8731 57.2881 50.0207 55.5122 51.3968C49.532 56.0335 45.6758 63.2864 45.6758 71.4232C45.6758 84.2375 55.2403 94.8599 67.6059 96.5242C68.7181 96.6738 69.8549 96.7526 71.0052 96.7526C72.1556 96.7526 73.2624 96.6765 74.3611 96.5324C76.5639 96.2414 78.6742 95.6648 80.6622 94.8408C82.7671 93.9706 84.7306 92.823 86.5064 91.4442C91.4151 87.6342 94.8934 82.0646 95.9784 75.6874H85.9136L85.9081 75.6847Z" fill="#D5E0FF"/>
<path d="M99.2815 124.681C98.9933 125.532 98.4439 126.155 97.6335 126.549C97.0488 126.835 96.4451 126.927 95.825 126.829C95.205 126.731 94.6475 126.476 94.1552 126.06L94.963 125.342C95.2839 125.597 95.6401 125.755 96.029 125.812C96.4179 125.869 96.804 125.807 97.1793 125.622C97.7368 125.35 98.1067 124.931 98.2889 124.365C98.4711 123.8 98.4222 123.231 98.1448 122.663C97.8728 122.105 97.4595 121.722 96.902 121.518C96.3445 121.311 95.787 121.347 95.2295 121.619C94.846 121.806 94.5577 122.062 94.3619 122.391C94.1661 122.72 94.0737 123.087 94.0818 123.495L93.0131 123.702C92.9859 123.065 93.1273 122.473 93.4346 121.929C93.7419 121.385 94.1879 120.969 94.7726 120.683C95.583 120.289 96.4097 120.237 97.2582 120.533C98.1067 120.827 98.7267 121.379 99.1211 122.19C99.5154 123 99.5671 123.83 99.2788 124.681H99.2815Z" fill="#D5E0FF"/>
<path d="M89.3244 127.479C88.9954 128.083 88.5004 128.483 87.8423 128.678C87.1814 128.872 86.5505 128.804 85.9495 128.472C85.3458 128.14 84.9487 127.645 84.7556 126.992C84.5598 126.332 84.6278 125.701 84.9569 125.091C85.2859 124.485 85.7755 124.082 86.4309 123.889C87.089 123.694 87.7226 123.764 88.3291 124.096C88.9355 124.428 89.3353 124.923 89.5284 125.584C89.7215 126.242 89.6562 126.875 89.3271 127.479H89.3244ZM88.582 125.861C88.4623 125.459 88.2203 125.151 87.8559 124.942C87.4887 124.732 87.1053 124.686 86.7028 124.806C86.3058 124.923 86.0093 125.168 85.8162 125.543C85.6232 125.918 85.5851 126.307 85.702 126.71C85.819 127.112 86.061 127.417 86.4227 127.623C86.7844 127.83 87.1678 127.873 87.5703 127.757C87.9728 127.637 88.272 127.392 88.4678 127.02C88.6636 126.647 88.7016 126.261 88.582 125.858V125.861Z" fill="#D5E0FF"/>
<path d="M79.963 130.348L79.1934 125.572L80.2295 125.406L80.9991 130.182L79.963 130.348ZM81.2139 131.857C81.1024 132.004 80.9529 132.094 80.7652 132.123C80.5803 132.153 80.4117 132.118 80.2621 132.015C80.1125 131.911 80.0228 131.767 79.9929 131.582C79.963 131.397 80.001 131.231 80.1071 131.093C80.2186 130.946 80.3682 130.856 80.5531 130.826C80.738 130.796 80.9094 130.832 81.0617 130.935C81.214 131.038 81.3037 131.18 81.3336 131.367C81.3635 131.547 81.32 131.713 81.2085 131.86L81.2139 131.857Z" fill="#D5E0FF"/>
<path d="M75.2694 130.911L74.2197 130.947L74.1979 130.308C73.8416 130.8 73.3494 131.058 72.7158 131.077C72.161 131.096 71.6796 130.933 71.2717 130.591C70.8638 130.248 70.6462 129.783 70.6272 129.193L70.5293 126.228L71.579 126.193L71.6688 128.875C71.6824 129.258 71.8047 129.56 72.0413 129.78C72.2779 130 72.5635 130.106 72.8953 130.096C73.2787 130.085 73.586 129.935 73.8172 129.65C74.0483 129.364 74.1571 129.016 74.1435 128.603L74.0619 126.112L75.1117 126.076L75.2694 130.911Z" fill="#D5E0FF"/>
<path d="M65.9685 130.852L64.9269 130.721L65.0058 130.088C64.5652 130.509 64.0241 130.68 63.3768 130.599C62.7187 130.514 62.1857 130.202 61.7805 129.655C61.3753 129.108 61.2148 128.499 61.2991 127.822C61.3861 127.134 61.6935 126.579 62.2183 126.158C62.7432 125.736 63.3387 125.568 64.0023 125.652C64.6496 125.734 65.1309 126.041 65.4491 126.571L65.7727 124.018L66.8143 124.148L65.9658 130.849L65.9685 130.852ZM65.3049 128.331C65.3566 127.915 65.2533 127.537 64.9922 127.197C64.7311 126.857 64.3939 126.661 63.9751 126.609C63.5536 126.555 63.1756 126.661 62.8465 126.922C62.5175 127.183 62.3244 127.526 62.27 127.947C62.2156 128.369 62.3162 128.75 62.5664 129.084C62.8166 129.419 63.1593 129.614 63.5862 129.669C64.0023 129.72 64.3803 129.617 64.7175 129.353C65.0548 129.089 65.2506 128.75 65.3022 128.333L65.3049 128.331Z" fill="#D5E0FF"/>
<path d="M56.1869 128.499C55.5995 128.833 54.9849 128.907 54.3431 128.719C53.7176 128.537 53.2907 128.156 53.0595 127.582L52.8773 128.205L51.8711 127.909L53.2336 123.267L54.2398 123.563L54.0576 124.186C54.5607 123.832 55.1236 123.748 55.7491 123.93C56.3855 124.118 56.8614 124.512 57.1741 125.116C57.4896 125.72 57.5494 126.348 57.3563 127C57.1605 127.667 56.7689 128.167 56.1815 128.502L56.1869 128.499ZM56.4235 126.723C56.5432 126.315 56.5051 125.924 56.3066 125.551C56.1081 125.178 55.8035 124.934 55.3956 124.814C54.9931 124.697 54.6042 124.741 54.2289 124.947C53.8536 125.154 53.6089 125.459 53.4892 125.861C53.3695 126.263 53.413 126.655 53.6143 127.036C53.8155 127.417 54.1201 127.664 54.5226 127.784C54.9305 127.903 55.3194 127.86 55.6893 127.65C56.0591 127.441 56.3039 127.134 56.4235 126.723Z" fill="#D5E0FF"/>
<path d="M47.4382 126.174L46.4837 125.739L46.8127 125.015C46.5489 125.23 46.2688 125.342 45.9724 125.35C45.676 125.358 45.4013 125.306 45.1484 125.189C45.026 125.135 44.9036 125.064 44.7812 124.983L45.2463 123.96C45.3931 124.094 45.5427 124.197 45.6977 124.268C45.9479 124.382 46.2525 124.409 46.6115 124.355C46.9732 124.297 47.2587 124.036 47.4708 123.571L48.4907 121.336L49.4452 121.771L47.4382 126.174Z" fill="#D5E0FF"/>
<path d="M40.9145 122.152C40.2591 122.312 39.6472 122.211 39.0816 121.852C38.5322 121.504 38.2249 121.02 38.1624 120.403L37.8143 120.95L36.9277 120.387L39.5221 116.305L40.4087 116.868L40.0606 117.414C40.6426 117.213 41.2082 117.289 41.7576 117.637C42.3178 117.993 42.6659 118.505 42.7991 119.171C42.9351 119.837 42.8209 120.457 42.4538 121.034C42.0812 121.619 41.5672 121.991 40.9118 122.152H40.9145ZM41.6325 120.509C41.8609 120.15 41.9316 119.764 41.8446 119.351C41.7576 118.937 41.5346 118.616 41.1756 118.388C40.8221 118.162 40.4359 118.097 40.0171 118.192C39.601 118.287 39.2774 118.513 39.0544 118.866C38.8287 119.22 38.7607 119.609 38.8504 120.03C38.9402 120.452 39.1605 120.776 39.5167 120.999C39.8757 121.227 40.2618 121.292 40.6752 121.194C41.0886 121.096 41.4068 120.865 41.6352 120.506L41.6325 120.509Z" fill="#D5E0FF"/>
<path d="M27.3697 114.482C27.1848 114.474 27.0271 114.403 26.8938 114.27C26.7633 114.134 26.6953 113.976 26.6953 113.794C26.6953 113.614 26.7606 113.457 26.8966 113.326C27.0325 113.196 27.1875 113.133 27.3643 113.139C27.5492 113.147 27.707 113.217 27.8402 113.353C27.9707 113.489 28.0387 113.647 28.0442 113.832C28.0469 114.014 27.9816 114.172 27.8484 114.302C27.7178 114.43 27.5601 114.49 27.3752 114.482H27.3697ZM27.8865 112.592L31.3565 109.22L32.0881 109.973L28.618 113.345L27.8865 112.592Z" fill="#D5E0FF"/>
<path d="M25.9342 108.35C25.5725 108.628 25.1755 108.696 24.7431 108.56C24.3107 108.424 23.9218 108.122 23.571 107.662C23.1549 107.116 22.9074 106.517 22.834 105.87L23.639 105.256C23.7423 106.063 23.9599 106.683 24.2889 107.113C24.4521 107.325 24.6234 107.469 24.8056 107.54C24.9878 107.611 25.1429 107.597 25.2734 107.499C25.3169 107.467 25.3495 107.426 25.374 107.382C25.3958 107.339 25.4066 107.284 25.4066 107.219C25.4066 107.157 25.3958 107.097 25.3849 107.04C25.374 106.983 25.3468 106.909 25.3114 106.814C25.2734 106.721 25.2407 106.643 25.2135 106.58C25.1864 106.517 25.1428 106.425 25.0884 106.303C25.0341 106.18 24.9878 106.082 24.9552 106.009C24.7213 105.481 24.6261 105.046 24.6642 104.695C24.705 104.347 24.8627 104.064 25.1401 103.844C25.4012 103.646 25.684 103.559 25.9859 103.583C26.2878 103.608 26.5597 103.706 26.799 103.874C27.0383 104.043 27.2613 104.26 27.4626 104.527C27.8787 105.073 28.118 105.732 28.1805 106.507L27.332 107.154C27.3484 106.866 27.3076 106.517 27.2042 106.115C27.1009 105.71 26.9432 105.367 26.731 105.087C26.5869 104.899 26.4264 104.763 26.2442 104.682C26.0647 104.6 25.9125 104.608 25.7846 104.704C25.6541 104.804 25.6079 104.965 25.646 105.19C25.684 105.413 25.7982 105.721 25.9886 106.112C26.2551 106.659 26.3857 107.113 26.3857 107.469C26.3857 107.826 26.2361 108.117 25.9369 108.348L25.9342 108.35Z" fill="#D5E0FF"/>
<path d="M21.5183 95.1054L14.7441 95.4426L14.0859 93.849L19.1388 89.3428L19.5712 90.3898L18.4643 91.3688L19.6038 94.1291L21.0859 94.0611L21.5183 95.1081V95.1054ZM17.6784 92.0487L14.9861 94.4038L18.5677 94.208L17.6757 92.0487H17.6784Z" fill="#D5E0FF"/>
<path d="M18.0886 85.6558L11.9044 87.2657L11.6406 86.2486L17.8248 84.6387L18.0886 85.6558Z" fill="#D5E0FF"/>
<path d="M12.1145 81.4734L11.9975 80.421L15.7912 79.1102L11.799 78.6424L11.6467 77.2636L15.4486 75.9338L11.4509 75.4851L11.334 74.4326L16.2753 75.107L16.4331 76.5402L12.5469 77.8619L16.6261 78.3025L16.7839 79.7356L12.109 81.4734H12.1145Z" fill="#D5E0FF"/>
<path d="M12.0106 69.6323C11.5538 69.1347 11.3471 68.55 11.3879 67.8837C11.4286 67.2337 11.7033 66.7333 12.2146 66.3798L11.5674 66.339L11.6326 65.292L16.4597 65.5939L16.3945 66.6409L15.7472 66.6001C16.2041 67.0134 16.4108 67.5437 16.37 68.1937C16.3292 68.8545 16.0491 69.4066 15.5297 69.8472C15.0102 70.2877 14.412 70.4862 13.7321 70.4427C13.0386 70.3992 12.4648 70.13 12.0079 69.6296L12.0106 69.6323ZM13.7946 69.4692C14.2189 69.4963 14.5914 69.3713 14.9096 69.0966C15.2278 68.8219 15.4019 68.4711 15.429 68.0441C15.4562 67.6253 15.3257 67.2555 15.0402 66.9346C14.7546 66.6164 14.4038 66.4423 13.985 66.4151C13.5662 66.388 13.1936 66.5158 12.8673 66.7986C12.5409 67.0814 12.3669 67.4295 12.3397 67.8483C12.3125 68.2726 12.443 68.6424 12.7286 68.9552C13.0141 69.2679 13.3677 69.4392 13.7946 69.4664V69.4692Z" fill="#D5E0FF"/>
<path d="M12.248 60.8977L12.4928 59.8017L16.2974 59.1844L13.1047 57.0686L13.3494 55.9727L19.3514 60.09L19.1121 61.1587L17.3825 59.9785L12.248 60.8977Z" fill="#D5E0FF"/>
<path d="M15.8867 52.4376C15.4598 52.2745 15.1933 51.9753 15.0818 51.5348C14.973 51.0969 15.0219 50.6074 15.2259 50.0662C15.4707 49.4244 15.8487 48.8996 16.3627 48.4971L17.309 48.8588C16.6754 49.3728 16.2648 49.884 16.0717 50.3898C15.9765 50.64 15.9466 50.8603 15.9792 51.0534C16.0118 51.2465 16.107 51.3716 16.262 51.4287C16.3137 51.4477 16.3627 51.4559 16.4143 51.4532C16.4633 51.4504 16.515 51.4314 16.5693 51.3933C16.621 51.358 16.67 51.3199 16.7107 51.2818C16.7515 51.2438 16.8032 51.1812 16.863 51.0996C16.9229 51.0181 16.9718 50.9501 17.0099 50.893C17.048 50.8358 17.1051 50.7515 17.1785 50.64C17.2519 50.5285 17.3145 50.4388 17.358 50.3708C17.6816 49.8949 18.0025 49.5822 18.3207 49.4326C18.6389 49.283 18.9625 49.2694 19.2943 49.3891C19.6016 49.506 19.8246 49.7018 19.9606 49.971C20.0992 50.243 20.1591 50.5231 20.1401 50.8168C20.1237 51.1105 20.053 51.4124 19.9361 51.7251C19.6913 52.3669 19.2562 52.919 18.6307 53.3759L17.6327 52.9951C17.8883 52.8592 18.1602 52.6389 18.4485 52.3397C18.7395 52.0406 18.9462 51.7251 19.0713 51.3961C19.1556 51.1731 19.1855 50.9664 19.1583 50.7706C19.1311 50.5748 19.0441 50.4497 18.8972 50.3926C18.7449 50.3355 18.5818 50.379 18.4104 50.5285C18.2391 50.6781 18.0379 50.9365 17.8067 51.3036C17.4804 51.8176 17.1649 52.1684 16.863 52.356C16.5612 52.5437 16.2321 52.5709 15.8813 52.4349L15.8867 52.4376Z" fill="#D5E0FF"/>
<path d="M19.6699 37.8081L20.3471 36.9134L25.4353 39.3718L21.7639 35.0424L22.7729 33.7098L27.9046 36.0975L24.1761 31.8605L24.8533 30.9658L29.0957 35.9452L28.0813 37.2832L22.8109 34.7758L26.6101 39.2249L25.6012 40.5548L19.6699 37.7999V37.8081Z" fill="#D5E0FF"/>
<path d="M28.3179 27.3467C28.3261 27.1618 28.3995 27.0041 28.5355 26.8735C28.6714 26.743 28.8319 26.6777 29.0114 26.6777C29.1936 26.6777 29.3486 26.7457 29.4764 26.8817C29.6069 27.0177 29.6668 27.1754 29.6586 27.3522C29.6505 27.5371 29.577 27.6948 29.441 27.8254C29.3051 27.9559 29.1446 28.0212 28.9624 28.0239C28.7802 28.0239 28.6225 27.9586 28.4919 27.8226C28.3668 27.6894 28.307 27.5317 28.3152 27.3467H28.3179ZM30.2025 27.8825L33.5421 31.3852L32.7833 32.1086L29.4438 28.6086L30.2025 27.8825Z" fill="#D5E0FF"/>
<path d="M34.1126 25.6613L33.5605 24.9325L34.2894 24.3805L33.5905 23.4558L34.2323 22.5938L35.1134 23.7577L36.2991 22.8603L36.8511 23.5891L35.6654 24.4865L37.0877 26.3657C37.2672 26.605 37.4494 26.7002 37.6316 26.654C37.8138 26.6077 37.9607 26.5425 38.0722 26.4582C38.2463 26.3249 38.4285 26.1264 38.6161 25.8626L39.228 26.6703C39.0213 26.9422 38.8092 27.1598 38.5889 27.3257C38.3034 27.5432 37.9471 27.6792 37.5256 27.7363C37.1013 27.7934 36.6853 27.546 36.2692 26.9993L34.8414 25.1147L34.1126 25.6668V25.6613Z" fill="#D5E0FF"/>
<path d="M39.3523 19.004L40.2661 18.4873L41.3457 20.3937C41.4382 19.7899 41.7591 19.3304 42.3084 19.0203C42.7898 18.7484 43.2929 18.6668 43.815 18.781C44.3372 18.8952 44.7451 19.208 45.0334 19.722L46.4937 22.3028L45.58 22.8195L44.2583 20.4834C44.068 20.1489 43.8178 19.9395 43.505 19.8552C43.1923 19.7709 42.8904 19.809 42.6049 19.9722C42.2704 20.1598 42.0664 20.4372 41.9903 20.7962C41.9141 21.1579 41.9794 21.5168 42.1833 21.8785L43.4098 24.046L42.4961 24.5627L39.3496 19.0013L39.3523 19.004Z" fill="#D5E0FF"/>
<path d="M53.6765 12.6317L54.8106 12.3516L57.1439 14.9923L57.9842 11.5711L59.1183 11.291L57.9706 16.0202L58.4656 18.0327L57.4104 18.2937L56.9209 16.3085L53.6738 12.6345L53.6765 12.6317Z" fill="#D5E0FF"/>
<path d="M63.4591 12.8493C63.8969 12.3162 64.4572 12.0171 65.1425 11.9491C65.8278 11.8811 66.4342 12.0688 66.9618 12.5093C67.4894 12.9499 67.7885 13.5101 67.8565 14.1873C67.9245 14.8726 67.7396 15.4817 67.3018 16.0175C66.8639 16.5532 66.3091 16.8551 65.6293 16.9204C64.9439 16.9884 64.3375 16.8007 63.8045 16.3601C63.2715 15.9196 62.9723 15.3594 62.9043 14.6741C62.8363 13.9887 63.0213 13.3823 63.4591 12.8493ZM63.8861 14.5762C63.9269 14.995 64.1091 15.3403 64.4272 15.615C64.7481 15.8897 65.118 16.0066 65.5341 15.9658C65.9447 15.925 66.282 15.7401 66.543 15.4083C66.8041 15.0765 66.9129 14.7013 66.8721 14.2852C66.8313 13.8664 66.6518 13.5237 66.3336 13.2518C66.0154 12.9798 65.6483 12.8656 65.2322 12.9064C64.8134 12.9472 64.4735 13.1321 64.2124 13.4612C63.9513 13.7902 63.8398 14.1628 63.8833 14.5816L63.8861 14.5762Z" fill="#D5E0FF"/>
<path d="M72.1581 11.7158L73.2051 11.7784L73.0473 14.4489C73.0256 14.8324 73.1208 15.1451 73.3356 15.3899C73.5504 15.6346 73.8224 15.7652 74.1569 15.7869C74.5403 15.8087 74.8585 15.689 75.1142 15.4279C75.3698 15.1669 75.5112 14.8242 75.5357 14.4054L75.6825 11.9279L76.7295 11.9905L76.444 16.8203L75.397 16.7578L75.4351 16.1187C75.0353 16.5756 74.5213 16.7877 73.8877 16.7496C73.3356 16.717 72.8706 16.5103 72.4925 16.1323C72.1145 15.7543 71.9459 15.2702 71.9786 14.6801L72.1553 11.7185L72.1581 11.7158Z" fill="#D5E0FF"/>
<path d="M105.321 116.573C118.948 106.209 127.746 89.8215 127.746 71.3806C127.746 44.482 109.03 21.9563 83.9102 16.1094" stroke="#D5E0FF" stroke-width="2" stroke-miterlimit="10" stroke-linecap="round" stroke-linejoin="round"/>
</svg>
