<svg width="143" height="47" viewBox="0 0 143 47" fill="none" xmlns="http://www.w3.org/2000/svg">
<path d="M9.13107 46.5132C8.76365 46.5132 8.4051 46.5085 8.04056 46.5004C7.28539 46.4905 6.53198 46.425 5.78651 46.3042C5.0914 46.1848 4.41803 45.9628 3.7886 45.6453C3.16495 45.3305 2.59612 44.9178 2.10392 44.4228C1.6046 43.9337 1.18888 43.3664 0.87326 42.7435C0.554159 42.1164 0.333322 41.4443 0.218442 40.7506C0.0943812 40.0051 0.0272593 39.2514 0.0176548 38.4958C0.0100092 38.2422 0 37.3978 0 37.3978V9.61815C0 9.61815 0.0106605 8.78669 0.0177151 8.54242C0.0269113 7.78803 0.093643 7.03544 0.217332 6.29116C0.332425 5.5955 0.553433 4.92147 0.872706 4.29239C1.18717 3.66985 1.60057 3.10215 2.09689 2.61129C2.59265 2.11577 3.1633 1.70086 3.78801 1.38171C4.41599 1.0653 5.08809 0.844802 5.7818 0.727599C6.52971 0.605619 7.28573 0.539671 8.04353 0.530308L9.13166 0.515625H133.063L134.164 0.530897C134.915 0.539795 135.664 0.605155 136.405 0.72642C137.106 0.845094 137.785 1.06713 138.42 1.38524C139.672 2.02842 140.69 3.04599 141.333 4.29533C141.647 4.92006 141.864 5.5886 141.978 6.27824C142.103 7.02863 142.173 7.78714 142.188 8.54771C142.191 8.88827 142.191 9.25409 142.191 9.61815C142.201 10.0691 142.201 10.4983 142.201 10.9311V36.0989C142.201 36.5358 142.201 36.9621 142.191 37.3919C142.191 37.7829 142.191 38.1412 142.186 38.5099C142.172 39.2569 142.103 40.0018 141.98 40.7388C141.868 41.4376 141.648 42.1149 141.329 42.7471C141.011 43.3633 140.598 43.9256 140.104 44.4134C139.612 44.911 139.042 45.3262 138.417 45.6431C137.783 45.9629 137.105 46.1858 136.405 46.3042C135.66 46.4256 134.906 46.4912 134.151 46.5004C133.798 46.5085 133.428 46.5132 133.069 46.5132L131.762 46.5156L9.13107 46.5132Z" fill="#07080C"/>
<path d="M29.0896 23.3778C29.1031 22.334 29.3811 21.3106 29.8978 20.4028C30.4145 19.495 31.1531 18.7322 32.0448 18.1855C31.4783 17.3787 30.731 16.7148 29.8622 16.2464C28.9933 15.778 28.0269 15.5181 27.0398 15.4873C24.9339 15.2668 22.8924 16.7438 21.8193 16.7438C20.7254 16.7438 19.0732 15.5092 17.2941 15.5457C16.1433 15.5827 15.0217 15.9164 14.0387 16.5143C13.0557 17.1121 12.2448 17.9536 11.6849 18.9569C9.25962 23.1442 11.0686 29.2981 13.3919 32.6829C14.5542 34.3403 15.9127 36.1916 17.6903 36.1259C19.4297 36.054 20.0793 35.0199 22.179 35.0199C24.2591 35.0199 24.8686 36.1259 26.6822 36.0842C28.5487 36.054 29.7247 34.4194 30.8463 32.7464C31.6814 31.5654 32.3241 30.2602 32.7504 28.8791C31.6661 28.4217 30.7407 27.6562 30.0897 26.6779C29.4387 25.6996 29.0909 24.5519 29.0896 23.3778Z" fill="white"/>
<path d="M25.6631 13.2616C26.6808 12.0433 27.1822 10.4774 27.0608 8.89648C25.506 9.05933 24.0698 9.80034 23.0383 10.9719C22.534 11.5442 22.1478 12.21 21.9017 12.9313C21.6556 13.6526 21.5545 14.4151 21.6041 15.1754C22.3817 15.1834 23.1511 15.0153 23.8542 14.6838C24.5573 14.3523 25.1758 13.866 25.6631 13.2616Z" fill="white"/>
<path d="M49.9557 32.0982H44.2475L42.8767 36.1345H40.459L45.8656 21.2012H48.3776L53.7842 36.1345H51.3253L49.9557 32.0982ZM44.8387 30.2356H49.3634L47.1328 23.685H47.0704L44.8387 30.2356Z" fill="white"/>
<path d="M65.4603 30.6912C65.4603 34.0745 63.6444 36.2483 60.904 36.2483C60.2098 36.2845 59.5194 36.125 58.9118 35.7881C58.3043 35.4512 57.8042 34.9506 57.4687 34.3434H57.4169V39.7361H55.1758V25.2468H57.345V27.0577H57.3863C57.7371 26.4534 58.2457 25.9553 58.8579 25.6164C59.47 25.2775 60.1629 25.1104 60.8627 25.1329C63.6338 25.1329 65.4603 27.3172 65.4603 30.6912ZM63.1568 30.6912C63.1568 28.4869 62.0145 27.0377 60.2716 27.0377C58.5592 27.0377 57.4075 28.5174 57.4075 30.6912C57.4075 32.8849 58.5592 34.354 60.2716 34.354C62.0145 34.354 63.1568 32.9154 63.1568 30.6912H63.1568Z" fill="white"/>
<path d="M77.4785 30.6912C77.4785 34.0745 75.662 36.2483 72.9215 36.2483C72.2273 36.2845 71.537 36.125 70.9294 35.7881C70.3219 35.4512 69.8218 34.9506 69.4863 34.3434H69.4345V39.7361H67.1934V25.2468H69.3626V27.0577H69.4038C69.7547 26.4534 70.2633 25.9553 70.8754 25.6164C71.4876 25.2775 72.1805 25.1104 72.8803 25.1329C75.6514 25.1329 77.4785 27.3172 77.4785 30.6912ZM75.1744 30.6912C75.1744 28.4869 74.0321 27.0377 72.2891 27.0377C70.5768 27.0377 69.4251 28.5174 69.4251 30.6912C69.4251 32.8849 70.5768 34.354 72.2891 34.354C74.0321 34.354 75.1744 32.9154 75.1744 30.6912Z" fill="white"/>
<path d="M85.4191 31.9746C85.5852 33.4555 87.0278 34.4278 88.9992 34.4278C90.8882 34.4278 92.2472 33.4555 92.2472 32.1202C92.2472 30.9611 91.4276 30.2671 89.4868 29.7914L87.546 29.3252C84.7962 28.6629 83.5196 27.3804 83.5196 25.2995C83.5196 22.7229 85.7713 20.9531 88.9675 20.9531C92.133 20.9531 94.3023 22.7229 94.3753 25.2995H92.113C91.9775 23.8092 90.7422 22.9096 88.9368 22.9096C87.1315 22.9096 85.8961 23.8198 85.8961 25.1444C85.8961 26.2002 86.6851 26.8214 88.6153 27.297L90.2652 27.701C93.3377 28.4256 94.6132 29.6564 94.6132 31.8406C94.6132 34.6345 92.3826 36.3843 88.8331 36.3843C85.5121 36.3843 83.2699 34.6756 83.125 31.9745L85.4191 31.9746Z" fill="white"/>
<path d="M99.4505 22.6699V25.2465H101.527V27.0163H99.4505V33.0184C99.4505 33.9509 99.8662 34.3854 100.779 34.3854C101.025 34.3811 101.271 34.3639 101.516 34.3337V36.0929C101.106 36.1694 100.689 36.204 100.271 36.1962C98.0609 36.1962 97.1988 35.3683 97.1988 33.2568V27.0163H95.6113V25.2465H97.1988V22.6699H99.4505Z" fill="white"/>
<path d="M102.73 30.6935C102.73 27.2679 104.754 25.1152 107.909 25.1152C111.074 25.1152 113.088 27.2678 113.088 30.6935C113.088 34.1285 111.085 36.2717 107.909 36.2717C104.734 36.2717 102.73 34.1285 102.73 30.6935ZM110.805 30.6935C110.805 28.3436 109.725 26.9566 107.909 26.9566C106.093 26.9566 105.013 28.3541 105.013 30.6935C105.013 33.0528 106.093 34.4291 107.909 34.4291C109.725 34.4291 110.805 33.0528 110.805 30.6935H110.805Z" fill="white"/>
<path d="M114.936 25.2467H117.073V27.0998H117.125C117.269 26.521 117.609 26.0096 118.088 25.6513C118.566 25.2931 119.153 25.11 119.751 25.1328C120.009 25.1319 120.267 25.1598 120.519 25.2161V27.3065C120.193 27.2072 119.853 27.1615 119.512 27.1715C119.186 27.1583 118.862 27.2155 118.561 27.3393C118.259 27.463 117.988 27.6503 117.766 27.8882C117.545 28.1262 117.377 28.4092 117.275 28.7179C117.173 29.0266 117.14 29.3535 117.177 29.6764V36.1342H114.936L114.936 25.2467Z" fill="white"/>
<path d="M130.851 32.9389C130.549 34.9153 128.619 36.2717 126.15 36.2717C122.973 36.2717 121.002 34.1496 121.002 30.7451C121.002 27.3301 122.984 25.1152 126.055 25.1152C129.076 25.1152 130.976 27.1845 130.976 30.4856V31.2513H123.264V31.3863C123.229 31.787 123.279 32.1907 123.412 32.5705C123.545 32.9503 123.757 33.2976 124.035 33.5893C124.313 33.881 124.65 34.1104 125.023 34.2622C125.397 34.4141 125.798 34.485 126.201 34.4702C126.731 34.5197 127.262 34.3974 127.717 34.1215C128.171 33.8456 128.524 33.4308 128.723 32.9389L130.851 32.9389ZM123.275 29.6894H128.733C128.753 29.3291 128.699 28.9686 128.572 28.6304C128.446 28.2922 128.251 27.9837 128 27.7243C127.748 27.4648 127.446 27.26 127.111 27.1226C126.777 26.9853 126.417 26.9184 126.055 26.9261C125.69 26.9239 125.329 26.9939 124.991 27.1318C124.653 27.2698 124.346 27.4731 124.088 27.73C123.829 27.9869 123.624 28.2924 123.485 28.6287C123.345 28.965 123.274 29.3255 123.275 29.6894V29.6894Z" fill="white"/>
<path d="M44.562 9.96127C45.0318 9.92764 45.5033 9.99843 45.9424 10.1685C46.3815 10.3386 46.7773 10.6037 47.1012 10.9448C47.4251 11.2859 47.669 11.6944 47.8154 12.1409C47.9618 12.5873 48.007 13.0606 47.9478 13.5266C47.9478 15.819 46.7054 17.1367 44.562 17.1367H41.9629V9.96127H44.562ZM43.0805 16.1219H44.4372C44.7729 16.142 45.1089 16.0871 45.4207 15.9613C45.7324 15.8355 46.0122 15.6419 46.2395 15.3947C46.4668 15.1475 46.636 14.8529 46.7347 14.5322C46.8334 14.2116 46.8592 13.8731 46.8101 13.5413C46.8556 13.2108 46.8272 12.8743 46.727 12.5561C46.6268 12.2378 46.4572 11.9456 46.2304 11.7003C46.0036 11.4551 45.7252 11.2629 45.4152 11.1376C45.1052 11.0122 44.7712 10.9568 44.4372 10.9753H43.0805V16.1219Z" fill="white"/>
<path d="M49.2113 14.4249C49.1772 14.069 49.218 13.7099 49.3312 13.3707C49.4443 13.0315 49.6274 12.7197 49.8685 12.4551C50.1096 12.1906 50.4035 11.9792 50.7313 11.8346C51.0592 11.6899 51.4137 11.6152 51.7722 11.6152C52.1306 11.6152 52.4852 11.6899 52.813 11.8346C53.1408 11.9792 53.4347 12.1906 53.6759 12.4551C53.917 12.7197 54.1 13.0315 54.2131 13.3707C54.3263 13.7099 54.3671 14.069 54.333 14.4249C54.3678 14.7811 54.3274 15.1406 54.2146 15.4804C54.1017 15.8201 53.9188 16.1326 53.6776 16.3976C53.4365 16.6627 53.1423 16.8745 52.8142 17.0194C52.486 17.1644 52.1311 17.2393 51.7722 17.2393C51.4133 17.2393 51.0583 17.1644 50.7301 17.0194C50.402 16.8745 50.1079 16.6627 49.8667 16.3976C49.6255 16.1326 49.4426 15.8201 49.3297 15.4804C49.2169 15.1406 49.1765 14.7811 49.2113 14.4249ZM53.2307 14.4249C53.2307 13.2511 52.7019 12.5647 51.7739 12.5647C50.8424 12.5647 50.3184 13.2511 50.3184 14.4249C50.3184 15.608 50.8424 16.2892 51.7739 16.2892C52.7019 16.2892 53.2307 15.6033 53.2307 14.4249H53.2307Z" fill="white"/>
<path d="M61.1398 17.1338H60.0281L58.9058 13.1456H58.821L57.7034 17.1338H56.6023L55.1055 11.7188H56.1925L57.1652 15.8507H57.2453L58.3617 11.7188H59.3898L60.5062 15.8507H60.591L61.5591 11.7188H62.6307L61.1398 17.1338Z" fill="white"/>
<path d="M63.8887 11.7212H64.9203V12.5814H65.0004C65.1362 12.2724 65.3654 12.0134 65.6558 11.8405C65.9463 11.6676 66.2837 11.5893 66.6209 11.6167C66.8851 11.5968 67.1504 11.6366 67.3971 11.7329C67.6438 11.8292 67.8657 11.9797 68.0462 12.1731C68.2267 12.3665 68.3612 12.5979 68.4399 12.8503C68.5185 13.1026 68.5392 13.3693 68.5004 13.6307V17.1361H67.4287V13.8991C67.4287 13.0289 67.0495 12.5961 66.257 12.5961C66.0776 12.5878 65.8985 12.6182 65.732 12.6853C65.5655 12.7525 65.4156 12.8547 65.2924 12.9851C65.1692 13.1154 65.0758 13.2708 65.0185 13.4405C64.9612 13.6102 64.9413 13.7903 64.9603 13.9683V17.1362H63.8887L63.8887 11.7212Z" fill="white"/>
<path d="M70.209 9.60742H71.2807V17.1363H70.209V9.60742Z" fill="white"/>
<path d="M72.7699 14.425C72.7358 14.0691 72.7766 13.71 72.8898 13.3708C73.003 13.0316 73.1861 12.7197 73.4272 12.4551C73.6683 12.1906 73.9623 11.9792 74.2901 11.8346C74.618 11.69 74.9725 11.6152 75.331 11.6152C75.6895 11.6152 76.0441 11.69 76.3719 11.8346C76.6998 11.9792 76.9937 12.1906 77.2348 12.4551C77.476 12.7197 77.659 13.0316 77.7722 13.3708C77.8854 13.71 77.9262 14.0691 77.8921 14.425C77.9269 14.7812 77.8865 15.1407 77.7736 15.4805C77.6607 15.8202 77.4778 16.1327 77.2366 16.3977C76.9954 16.6628 76.7012 16.8746 76.3731 17.0195C76.0449 17.1645 75.6899 17.2393 75.331 17.2393C74.9721 17.2393 74.6171 17.1645 74.289 17.0195C73.9608 16.8746 73.6667 16.6628 73.4255 16.3977C73.1843 16.1327 73.0013 15.8202 72.8884 15.4805C72.7755 15.1407 72.7352 14.7812 72.7699 14.425ZM76.7892 14.425C76.7892 13.2512 76.2605 12.5648 75.3325 12.5648C74.401 12.5648 73.8769 13.2512 73.8769 14.425C73.8769 15.6081 74.401 16.2893 75.3325 16.2893C76.2605 16.2893 76.7893 15.6034 76.7893 14.425H76.7892Z" fill="white"/>
<path d="M79.0215 15.6034C79.0215 14.6286 79.7493 14.0667 81.0412 13.9869L82.5121 13.9023V13.4349C82.5121 12.863 82.1329 12.54 81.4004 12.54C80.8021 12.54 80.3876 12.7591 80.2686 13.1419H79.2311C79.3406 12.2118 80.218 11.6152 81.4498 11.6152C82.8112 11.6152 83.579 12.2911 83.579 13.4349V17.1348H82.5474V16.3738H82.4626C82.2905 16.6467 82.0488 16.8693 81.7623 17.0186C81.4757 17.168 81.1546 17.2389 80.8316 17.224C80.6036 17.2476 80.3732 17.2234 80.1552 17.1528C79.9372 17.0822 79.7365 16.9668 79.566 16.8141C79.3954 16.6615 79.2589 16.4748 79.1651 16.2663C79.0713 16.0577 79.0224 15.8319 79.0215 15.6034ZM82.5121 15.1407V14.688L81.186 14.7725C80.4382 14.8224 80.099 15.0761 80.099 15.5535C80.099 16.0408 80.523 16.3244 81.106 16.3244C81.2768 16.3417 81.4493 16.3245 81.6134 16.2739C81.7774 16.2232 81.9295 16.1402 82.0607 16.0298C82.1919 15.9194 82.2994 15.7837 82.377 15.631C82.4545 15.4782 82.5005 15.3115 82.5121 15.1407Z" fill="white"/>
<path d="M84.9863 14.4265C84.9863 12.7154 85.8684 11.6315 87.2404 11.6315C87.5797 11.6159 87.9166 11.6969 88.2114 11.8652C88.5063 12.0334 88.7471 12.2818 88.9056 12.5815H88.9857V9.60742H90.0573V17.1363H89.0304V16.2808H88.9456C88.7749 16.5784 88.5257 16.8237 88.2251 16.9903C87.9246 17.1568 87.584 17.2382 87.2404 17.2255C85.859 17.2256 84.9863 16.1416 84.9863 14.4265ZM86.0934 14.4265C86.0934 15.575 86.6363 16.2661 87.5443 16.2661C88.4475 16.2661 89.0057 15.565 89.0057 14.4312C89.0057 13.3026 88.4416 12.5915 87.5443 12.5915C86.6421 12.5915 86.0933 13.2873 86.0933 14.4265H86.0934Z" fill="white"/>
<path d="M94.4906 14.4249C94.4565 14.069 94.4973 13.7099 94.6105 13.3707C94.7236 13.0315 94.9067 12.7197 95.1478 12.4551C95.3889 12.1906 95.6828 11.9792 96.0106 11.8346C96.3384 11.6899 96.693 11.6152 97.0515 11.6152C97.4099 11.6152 97.7645 11.6899 98.0923 11.8346C98.4201 11.9792 98.714 12.1906 98.9551 12.4551C99.1963 12.7197 99.3793 13.0315 99.4924 13.3707C99.6056 13.7099 99.6464 14.069 99.6123 14.4249C99.6471 14.7811 99.6067 15.1406 99.4939 15.4804C99.381 15.8201 99.1981 16.1326 98.9569 16.3976C98.7157 16.6627 98.4216 16.8745 98.0935 17.0194C97.7653 17.1644 97.4104 17.2393 97.0515 17.2393C96.6925 17.2393 96.3376 17.1644 96.0094 17.0194C95.6813 16.8745 95.3872 16.6627 95.146 16.3976C94.9048 16.1326 94.7219 15.8201 94.609 15.4804C94.4962 15.1406 94.4558 14.7811 94.4906 14.4249ZM98.51 14.4249C98.51 13.2511 97.9812 12.5647 97.0532 12.5647C96.1217 12.5647 95.5977 13.2511 95.5977 14.4249C95.5977 15.608 96.1217 16.2892 97.0532 16.2892C97.9812 16.2892 98.51 15.6033 98.51 14.4249Z" fill="white"/>
<path d="M101.051 11.7212H102.082V12.5814H102.163C102.298 12.2724 102.527 12.0134 102.818 11.8405C103.108 11.6676 103.446 11.5893 103.783 11.6167C104.047 11.5968 104.312 11.6366 104.559 11.7329C104.806 11.8292 105.028 11.9797 105.208 12.1731C105.389 12.3665 105.523 12.5979 105.602 12.8503C105.681 13.1026 105.701 13.3693 105.663 13.6307V17.1361H104.591V13.8991C104.591 13.0289 104.212 12.5961 103.419 12.5961C103.24 12.5878 103.061 12.6182 102.894 12.6853C102.728 12.7525 102.578 12.8547 102.455 12.9851C102.331 13.1154 102.238 13.2708 102.181 13.4405C102.123 13.6102 102.103 13.7903 102.122 13.9683V17.1362H101.051V11.7212Z" fill="white"/>
<path d="M111.718 10.3711V11.7439H112.895V12.6441H111.718V15.4285C111.718 15.9957 111.952 16.2441 112.486 16.2441C112.623 16.2437 112.759 16.2354 112.895 16.2194V17.1096C112.702 17.1439 112.507 17.1622 112.312 17.1642C111.12 17.1642 110.645 16.7461 110.645 15.7021V12.644H109.783V11.7439H110.645V10.3711H111.718Z" fill="white"/>
<path d="M114.357 9.60742H115.42V12.5915H115.504C115.647 12.2796 115.882 12.0192 116.179 11.8456C116.475 11.672 116.818 11.5937 117.16 11.6215C117.423 11.6072 117.686 11.651 117.93 11.7496C118.174 11.8483 118.393 11.9994 118.571 12.1922C118.75 12.385 118.884 12.6148 118.963 12.8651C119.042 13.1154 119.065 13.38 119.03 13.6402V17.1363H117.958V13.9038C117.958 13.0389 117.554 12.6009 116.796 12.6009C116.612 12.5858 116.427 12.6111 116.254 12.6749C116.08 12.7387 115.923 12.8395 115.793 12.9702C115.662 13.101 115.562 13.2586 115.5 13.4319C115.437 13.6052 115.413 13.7901 115.429 13.9737V17.1363H114.357L114.357 9.60742Z" fill="white"/>
<path d="M125.281 15.6728C125.135 16.1677 124.82 16.5957 124.39 16.8821C123.96 17.1685 123.442 17.295 122.928 17.2394C122.57 17.2488 122.215 17.1804 121.886 17.0391C121.558 16.8978 121.264 16.6868 121.025 16.4209C120.786 16.155 120.609 15.8404 120.504 15.4991C120.4 15.1578 120.371 14.7979 120.42 14.4444C120.372 14.0898 120.401 13.7291 120.506 13.3867C120.61 13.0444 120.787 12.7284 121.024 12.4602C121.262 12.1919 121.554 11.9776 121.882 11.8319C122.209 11.6861 122.565 11.6123 122.923 11.6153C124.434 11.6153 125.346 12.6447 125.346 14.3451V14.718H121.511V14.7779C121.495 14.9766 121.52 15.1766 121.585 15.3651C121.65 15.5536 121.754 15.7265 121.89 15.8725C122.027 16.0186 122.192 16.1346 122.376 16.2133C122.559 16.2919 122.758 16.3314 122.958 16.3292C123.214 16.3599 123.474 16.3139 123.704 16.197C123.934 16.0801 124.124 15.8976 124.249 15.6727L125.281 15.6728ZM121.511 13.9277H124.254C124.268 13.7459 124.243 13.5634 124.181 13.3917C124.12 13.2201 124.023 13.0632 123.897 12.9311C123.771 12.799 123.619 12.6946 123.45 12.6246C123.282 12.5547 123.1 12.5207 122.917 12.5249C122.732 12.5226 122.548 12.5573 122.376 12.6269C122.205 12.6966 122.049 12.7999 121.918 12.9306C121.787 13.0613 121.683 13.2169 121.613 13.3881C121.544 13.5594 121.509 13.7428 121.511 13.9277H121.511Z" fill="white"/>
</svg>
