<svg width="326" height="71" viewBox="0 0 326 71" fill="none" xmlns="http://www.w3.org/2000/svg">
<path d="M45.3479 27.5604H77.4793C84.55 27.5604 91.0953 23.8269 94.6945 17.7407L95.1998 16.8861C98.799 10.7999 105.344 7.06641 112.415 7.06641H127.49M45.3479 43.5002H77.4482C84.4587 43.5002 90.9575 47.1709 94.5768 53.1749L94.9923 53.8642C98.6116 59.8682 105.11 63.5389 112.121 63.5389H127.49M15.4004 35.3026H127.041" stroke="#19243A"/>
<path d="M280.65 43.045L248.518 43.045C241.448 43.045 234.902 46.7785 231.303 52.8647L230.798 53.7194C227.199 59.8056 220.653 63.5391 213.583 63.5391L198.508 63.5391M280.65 27.1052L248.549 27.1052C241.539 27.1052 235.04 23.4346 231.421 17.4306L231.005 16.7413C227.386 10.7373 220.887 7.06661 213.877 7.06661L198.508 7.06661M302.896 35.3028L198.957 35.3028" stroke="#19243A"/>
<rect x="127.49" y="0.220703" width="71.0184" height="70.1627" rx="5" fill="#19243A"/>
<path d="M127.49 57.5488C125.127 57.5488 123.212 55.6334 123.212 53.2706L123.212 17.3336C123.212 14.9708 125.127 13.0554 127.49 13.0554L127.49 57.5488Z" fill="#015DFA"/>
<path d="M198.51 13.0547C200.873 13.0547 202.788 14.9701 202.788 17.3329V53.2699C202.788 55.6327 200.873 57.5481 198.51 57.5481V13.0547Z" fill="#015DFA"/>
<path d="M280.65 47.2812C278.288 47.2812 276.372 45.3658 276.372 43.003L276.372 26.7458C276.372 24.383 278.288 22.4676 280.65 22.4676L280.65 47.2812Z" fill="#015DFA"/>
<rect x="326" y="57.5488" width="45.3491" height="44.4934" rx="5" transform="rotate(-180 326 57.5488)" fill="#19243A"/>
<g filter="url(#filter0_ddddd_4_9624)">
<ellipse cx="303.323" cy="35.3037" rx="14.5459" ry="14.1631" transform="rotate(90 303.323 35.3037)" fill="white" fill-opacity="0.05"/>
<path d="M303.323 49.5997C295.645 49.5997 289.41 43.2055 289.41 35.3037C289.41 27.402 295.645 21.0078 303.323 21.0078C311.001 21.0078 317.236 27.402 317.236 35.3037C317.236 43.2055 311.001 49.5997 303.323 49.5997Z" stroke="#015DFA" stroke-width="0.5"/>
</g>
<g clip-path="url(#clip0_4_9624)">
<path d="M303.324 43.7255C307.763 43.7255 311.362 39.9551 311.362 35.3041C311.362 30.6532 307.763 26.8828 303.324 26.8828C298.884 26.8828 295.285 30.6532 295.285 35.3041C295.285 39.9551 298.884 43.7255 303.324 43.7255Z" fill="#FB2EA3"/>
<path d="M306.857 34.2622C306.743 35.0701 306.316 35.4612 305.749 35.598C306.527 36.0228 306.924 36.6749 306.546 37.8044C306.078 39.2076 304.964 39.3255 303.484 39.0324L303.123 40.5414L302.255 40.3145L302.61 38.826C302.379 38.7659 302.148 38.703 301.918 38.6376L301.562 40.1335L300.694 39.9071L301.054 38.395C300.851 38.3408 300.645 38.2829 300.435 38.2276L299.305 37.9329L299.736 36.8907C299.736 36.8907 300.376 37.0697 300.367 37.056C300.613 37.1197 300.722 36.9518 300.765 36.8402L301.333 34.4548L301.425 34.4785C301.395 34.4665 301.365 34.4564 301.334 34.4485L301.739 32.7458C301.75 32.5522 301.687 32.309 301.335 32.2164C301.348 32.2069 300.704 32.0521 300.704 32.0521L300.935 31.0805L302.133 31.3937L302.132 31.399C302.312 31.4453 302.497 31.49 302.686 31.5353L303.043 30.041L303.911 30.2673L303.562 31.7327C303.795 31.7884 304.029 31.8442 304.257 31.9042L304.604 30.4489L305.472 30.6752L305.117 32.17C306.213 32.5658 307.015 33.159 306.857 34.2622ZM304.873 37.177C305.154 35.9991 303.266 35.6944 302.677 35.5401L302.201 37.5428C302.789 37.696 304.605 38.3071 304.873 37.177H304.873ZM305.142 34.2459C305.397 33.1738 303.818 32.9353 303.328 32.8069L302.896 34.6233C303.386 34.7517 304.897 35.2738 305.142 34.2459ZM307.669 38.2613C307.627 38.2554 307.584 38.2583 307.543 38.2697C307.502 38.2812 307.463 38.301 307.43 38.3281C307.364 38.3868 307.32 38.467 307.304 38.5555C307.294 38.6047 307.29 38.6553 307.294 38.7055C307.298 38.7628 307.316 38.8181 307.345 38.8666C307.375 38.9192 307.424 38.9687 307.489 39.015C307.554 39.0608 307.645 39.0976 307.76 39.1255C307.823 39.1413 307.887 39.1487 307.953 39.1482C308.019 39.1482 308.08 39.1371 308.137 39.115C308.196 39.093 308.249 39.0552 308.29 39.0053C308.332 38.9554 308.36 38.8951 308.373 38.8303C308.385 38.784 308.388 38.7358 308.381 38.6884C308.375 38.641 308.36 38.5953 308.337 38.5539C308.291 38.4729 308.215 38.4108 308.109 38.3676L308.187 38.0171C308.378 38.0976 308.511 38.2129 308.589 38.3618C308.666 38.5113 308.682 38.6887 308.637 38.8939C308.614 39.0078 308.569 39.1153 308.504 39.2097C308.445 39.293 308.371 39.3621 308.285 39.4125C308.199 39.4628 308.103 39.4931 308.005 39.5013C307.897 39.5116 307.788 39.5032 307.682 39.4766C307.574 39.4512 307.47 39.4086 307.373 39.3503C307.285 39.297 307.207 39.2254 307.146 39.1397C307.086 39.0546 307.045 38.9566 307.026 38.8529C307.006 38.7338 307.01 38.6116 307.039 38.4945C307.058 38.4055 307.089 38.3197 307.131 38.2397C307.171 38.1618 307.221 38.096 307.281 38.0423C307.34 37.9886 307.409 37.9497 307.486 37.9255C307.564 37.9007 307.65 37.896 307.746 37.9102L307.669 38.2613ZM309.021 37.1491C308.998 37.2662 308.952 37.377 308.886 37.4749C308.824 37.5644 308.75 37.635 308.665 37.6871C308.577 37.7396 308.479 37.7723 308.378 37.7828C308.265 37.7946 308.152 37.7864 308.043 37.7586C307.933 37.7334 307.829 37.6889 307.734 37.6271C307.648 37.5711 307.573 37.4969 307.516 37.4092C307.46 37.321 307.422 37.2212 307.406 37.1165C307.388 36.9986 307.393 36.8781 307.421 36.7623C307.444 36.6453 307.49 36.5345 307.556 36.4365C307.618 36.347 307.691 36.276 307.777 36.2244C307.866 36.1718 307.964 36.1392 308.065 36.1286C308.17 36.1165 308.281 36.1244 308.396 36.1523C308.506 36.1775 308.612 36.222 308.708 36.2839C308.798 36.3439 308.871 36.4165 308.926 36.5023C308.981 36.5881 309.018 36.6854 309.036 36.7944C309.054 36.9125 309.049 37.0332 309.021 37.1491ZM307.703 35.6765L307.776 35.3475L308.069 35.4186L308.071 35.4122C308.03 35.3901 307.993 35.3597 307.964 35.3228C307.896 35.2397 307.85 35.1387 307.833 35.0307C307.825 34.9761 307.826 34.9203 307.838 34.8664C307.847 34.822 307.86 34.7785 307.876 34.7364L308.199 34.8143C308.19 34.8385 308.181 34.8629 308.173 34.8875C308.164 34.9118 308.157 34.9365 308.152 34.9617C308.138 35.0195 308.136 35.0798 308.148 35.1381C308.159 35.1964 308.183 35.2513 308.218 35.2986C308.257 35.3515 308.305 35.3962 308.361 35.4301C308.42 35.4686 308.492 35.498 308.577 35.5186L309.299 35.6933L309.222 36.0438L307.703 35.6765ZM308.848 34.5238C308.907 34.5385 308.966 34.5433 309.024 34.5396C309.08 34.5359 309.135 34.5209 309.185 34.4954C309.235 34.4698 309.279 34.4327 309.313 34.3869C309.352 34.3334 309.379 34.2713 309.392 34.2054C309.415 34.1188 309.412 34.0269 309.383 33.9422C309.35 33.8643 309.295 33.7992 309.225 33.7564L309.298 33.4243C309.407 33.4762 309.5 33.5587 309.567 33.6626C309.634 33.7666 309.672 33.888 309.677 34.0133C309.682 34.0975 309.675 34.1827 309.656 34.269C309.629 34.3943 309.584 34.5006 309.524 34.5875C309.466 34.6727 309.391 34.7434 309.304 34.7944C309.216 34.8454 309.119 34.8754 309.02 34.8822C308.8 34.9007 308.58 34.8462 308.391 34.7264C308.304 34.6698 308.229 34.5966 308.169 34.5106C308.11 34.4257 308.069 34.3289 308.048 34.2264C308.025 34.1222 308.028 34.0106 308.053 33.8911C308.077 33.7736 308.128 33.664 308.202 33.5722C308.272 33.487 308.358 33.4188 308.455 33.3722C308.554 33.3261 308.661 33.3011 308.77 33.2985C308.884 33.2943 308.995 33.3132 309.106 33.3548L308.848 34.5243L308.848 34.5238ZM308.757 37.0855C308.774 37.018 308.774 36.9473 308.757 36.8798C308.741 36.8124 308.708 36.7504 308.663 36.6997C308.619 36.6494 308.567 36.6078 308.509 36.5765C308.389 36.5104 308.255 36.4778 308.119 36.4818C308.054 36.4831 307.99 36.4968 307.93 36.5223C307.868 36.5473 307.813 36.5882 307.771 36.6413C307.728 36.6944 307.698 36.7579 307.685 36.826C307.669 36.8932 307.668 36.9637 307.684 37.031C307.701 37.0984 307.733 37.1603 307.778 37.2113C307.82 37.2607 307.871 37.3013 307.932 37.3344C308.052 37.4002 308.186 37.4328 308.321 37.4292C308.386 37.4275 308.45 37.4137 308.511 37.3886C308.573 37.3639 308.628 37.3231 308.671 37.2701C308.714 37.2171 308.744 37.1536 308.757 37.0855ZM308.808 33.6522C308.755 33.6435 308.701 33.6429 308.647 33.6506C308.597 33.6566 308.547 33.673 308.503 33.6989C308.458 33.7248 308.419 33.7597 308.387 33.8017C308.354 33.8483 308.33 33.9014 308.317 33.9579C308.304 34.0143 308.302 34.0729 308.311 34.1301C308.321 34.1854 308.34 34.2354 308.368 34.2801C308.43 34.3742 308.522 34.442 308.628 34.4712L308.808 33.6522Z" fill="white"/>
</g>
<rect y="13.0566" width="45.3491" height="44.4934" rx="5" fill="#19243A"/>
<path d="M45.3496 23.3242C47.7124 23.3242 49.6278 25.2396 49.6278 27.6024V43.8597C49.6278 46.2225 47.7124 48.1379 45.3496 48.1379V23.3242Z" fill="#015DFA"/>
<g filter="url(#filter1_ddddd_4_9624)">
<ellipse cx="22.6749" cy="35.3037" rx="14.5459" ry="14.1181" transform="rotate(90 22.6749 35.3037)" fill="white" fill-opacity="0.05"/>
<path d="M22.6749 49.5997C15.0227 49.5997 8.80674 43.2063 8.80674 35.3037C8.80674 27.4012 15.0227 21.0078 22.6749 21.0078C30.327 21.0078 36.543 27.4012 36.543 35.3037C36.543 43.2063 30.327 49.5997 22.6749 49.5997Z" stroke="#015DFA" stroke-width="0.5"/>
</g>
<g clip-path="url(#clip1_4_9624)">
<path d="M22.6757 44.7148C27.6375 44.7148 31.6599 40.5008 31.6599 35.3027C31.6599 30.1046 27.6375 25.8906 22.6757 25.8906C17.7138 25.8906 13.6914 30.1046 13.6914 35.3027C13.6914 40.5008 17.7138 44.7148 22.6757 44.7148Z" fill="#FF6600"/>
<path d="M23.281 37.2763C26.1335 36.3545 25.1155 33.2562 23.281 33.1385C23.7471 33.1385 24.1278 31.7402 24.1278 30.0078C28.6064 30.3414 30.7104 38.0734 23.993 40.4923C24.0363 39.8646 23.7909 38.1128 23.2816 37.2763H23.281ZM17.0605 36.361V33.145H17.0662C18.6861 33.1385 19.9928 31.7332 19.9872 30.0143H23.1092C23.1098 33.5238 20.4044 36.361 17.0605 36.361ZM21.1523 35.7786C23.0053 37.3739 23.1098 40.0605 23.1098 40.5964H19.9872C19.9872 38.8187 18.8827 37.3804 17.5148 37.3804C19.8339 36.9886 20.3061 36.5769 21.1523 35.7792V35.7786Z" fill="white"/>
</g>
<circle cx="162.917" cy="35.9428" r="29.4174" fill="#9FBBFF" fill-opacity="0.2" stroke="#676C7C" stroke-width="0.5"/>
<circle opacity="0.9" cx="163.066" cy="35.4098" r="17.5407" fill="#015DFA"/>
<path fill-rule="evenodd" clip-rule="evenodd" d="M163.022 44.3953C162.893 43.8261 162.737 43.2785 162.612 42.703C163.211 42.7293 163.781 42.6744 164.352 42.5817C164.504 43.1458 164.622 43.6983 164.779 44.2534C165.028 44.1936 165.258 44.1383 165.507 44.0786C165.367 43.5108 165.232 42.9631 165.101 42.4292C165.651 42.2242 166.183 42.0258 166.727 41.8227C166.86 42.3519 166.995 42.8881 167.131 43.4278C170.345 41.9395 173.106 37.8004 171.987 33.0444C170.829 28.1262 166.367 25.7323 162.775 25.9288C162.919 26.5113 163.062 27.0906 163.203 27.6652C162.627 27.7445 162.065 27.822 161.485 27.902C161.34 27.3223 161.192 26.733 161.039 26.1263C160.785 26.194 160.551 26.2563 160.31 26.3207C160.461 26.9319 160.606 27.5227 160.755 28.1255C160.19 28.3081 159.669 28.5437 159.155 28.8369C158.999 28.2145 158.849 27.6156 158.697 27.012C155.212 28.8133 152.816 33.2663 154.245 37.9042C155.651 42.469 159.895 44.5051 163.022 44.3953ZM167.334 44.2443C167.388 44.4668 167.441 44.6833 167.495 44.8992C167.528 45.0332 167.545 45.167 167.511 45.3038C167.463 45.4969 167.369 45.6636 167.196 45.7635C166.941 45.9105 166.667 45.9976 166.37 45.9206C166.097 45.8496 165.918 45.6687 165.84 45.3956C165.79 45.2233 165.75 45.0483 165.701 44.8564C165.453 44.9148 165.215 44.9712 164.966 45.03C165.009 45.2045 165.049 45.3622 165.087 45.5203C165.199 45.9807 164.976 46.3656 164.52 46.4865C164.39 46.5211 164.254 46.5552 164.121 46.553C163.792 46.5475 163.522 46.3271 163.429 46.0037C163.37 45.7994 163.324 45.5915 163.271 45.3853C163.258 45.3334 163.242 45.2821 163.225 45.222C160.548 45.2252 158.204 44.3492 156.234 42.5264C154.664 41.0737 153.669 39.2791 153.242 37.1788C152.793 34.9724 153.055 32.8425 154.026 30.8124C154.997 28.7825 156.497 27.2585 158.488 26.2034C158.472 26.1217 158.457 26.0427 158.439 25.9645C158.408 25.8263 158.367 25.6899 158.342 25.5505C158.274 25.1661 158.49 24.8125 158.86 24.6961C158.953 24.6669 159.049 24.6437 159.145 24.6247C159.53 24.5482 159.893 24.7641 160.012 25.1418C160.052 25.2707 160.082 25.4029 160.12 25.5426C160.363 25.4786 160.593 25.418 160.844 25.3519C160.814 25.224 160.782 25.0996 160.756 24.9741C160.689 24.6531 160.82 24.335 161.097 24.1707C161.292 24.0553 161.51 23.9999 161.736 24.0064C162.069 24.0159 162.334 24.2308 162.429 24.5554C162.481 24.7379 162.524 24.9235 162.574 25.1142C165.289 25.0371 167.678 25.8739 169.706 27.6862C171.288 29.0993 172.313 30.8604 172.777 32.9354C173.287 35.2196 173.044 37.4311 172.026 39.5405C171.009 41.6479 169.432 43.2032 167.334 44.2443Z" fill="white"/>
<path fill-rule="evenodd" clip-rule="evenodd" d="M169.858 35.4414C169.858 35.6375 169.864 35.8114 169.857 35.9847C169.81 37.1369 169.509 38.2112 168.883 39.1858C168.332 40.0425 167.612 40.7166 166.724 41.2074C165.74 41.7516 164.681 42.06 163.567 42.1699C162.482 42.2768 161.433 42.1197 160.432 41.6758C159.805 41.3978 159.247 41.0167 158.751 40.5402C157.904 39.7275 157.32 38.7513 156.935 37.6465C156.699 36.9686 156.54 36.2732 156.467 35.5592C156.334 34.2669 156.504 33.0209 157.06 31.8402C157.32 31.2887 157.668 30.7965 158.084 30.3516C159.062 29.3084 160.282 28.7189 161.653 28.4094C162.361 28.2495 163.077 28.1716 163.803 28.2187C165.173 28.3076 166.374 28.8076 167.405 29.7203C168.037 30.2801 168.519 30.9549 168.903 31.7039C168.92 31.7364 168.931 31.7719 168.953 31.8268C167.822 32.1099 166.703 32.3901 165.59 32.6687C165.454 32.5176 165.333 32.3701 165.198 32.2366C164.588 31.6319 163.849 31.3288 162.996 31.3338C162.396 31.3374 161.822 31.477 161.293 31.7731C160.535 32.1981 160.1 32.8677 159.886 33.6943C159.745 34.3681 159.742 34.9159 159.849 35.53C159.974 36.2513 160.192 36.9406 160.587 37.5616C161.043 38.2779 161.661 38.7859 162.491 39.0043C163.02 39.1436 163.546 39.0999 164.068 38.9569C164.982 38.7064 165.691 38.1911 166.137 37.3364C166.271 37.0787 166.366 36.8064 166.427 36.5221C166.443 36.4479 166.459 36.3736 166.477 36.2861C167.596 36.0065 168.716 35.7267 169.858 35.4414Z" fill="white"/>
<defs>
<filter id="filter0_ddddd_4_9624" x="284.16" y="19.7578" width="38.3262" height="47.0918" filterUnits="userSpaceOnUse" color-interpolation-filters="sRGB">
<feFlood flood-opacity="0" result="BackgroundImageFix"/>
<feColorMatrix in="SourceAlpha" type="matrix" values="0 0 0 0 0 0 0 0 0 0 0 0 0 0 0 0 0 0 127 0" result="hardAlpha"/>
<feOffset/>
<feColorMatrix type="matrix" values="0 0 0 0 0.0352941 0 0 0 0 0.0862745 0 0 0 0 0.164706 0 0 0 0.05 0"/>
<feBlend mode="normal" in2="BackgroundImageFix" result="effect1_dropShadow_4_9624"/>
<feColorMatrix in="SourceAlpha" type="matrix" values="0 0 0 0 0 0 0 0 0 0 0 0 0 0 0 0 0 0 127 0" result="hardAlpha"/>
<feOffset dy="1"/>
<feGaussianBlur stdDeviation="1"/>
<feColorMatrix type="matrix" values="0 0 0 0 0.0352941 0 0 0 0 0.0862745 0 0 0 0 0.164706 0 0 0 0.05 0"/>
<feBlend mode="normal" in2="effect1_dropShadow_4_9624" result="effect2_dropShadow_4_9624"/>
<feColorMatrix in="SourceAlpha" type="matrix" values="0 0 0 0 0 0 0 0 0 0 0 0 0 0 0 0 0 0 127 0" result="hardAlpha"/>
<feOffset dy="3"/>
<feGaussianBlur stdDeviation="1.5"/>
<feColorMatrix type="matrix" values="0 0 0 0 0.0352941 0 0 0 0 0.0862745 0 0 0 0 0.164706 0 0 0 0.09 0"/>
<feBlend mode="normal" in2="effect2_dropShadow_4_9624" result="effect3_dropShadow_4_9624"/>
<feColorMatrix in="SourceAlpha" type="matrix" values="0 0 0 0 0 0 0 0 0 0 0 0 0 0 0 0 0 0 127 0" result="hardAlpha"/>
<feOffset dy="7"/>
<feGaussianBlur stdDeviation="2"/>
<feColorMatrix type="matrix" values="0 0 0 0 0.0352941 0 0 0 0 0.0862745 0 0 0 0 0.164706 0 0 0 0.05 0"/>
<feBlend mode="normal" in2="effect3_dropShadow_4_9624" result="effect4_dropShadow_4_9624"/>
<feColorMatrix in="SourceAlpha" type="matrix" values="0 0 0 0 0 0 0 0 0 0 0 0 0 0 0 0 0 0 127 0" result="hardAlpha"/>
<feOffset dy="12"/>
<feGaussianBlur stdDeviation="2.5"/>
<feColorMatrix type="matrix" values="0 0 0 0 0.0352941 0 0 0 0 0.0862745 0 0 0 0 0.164706 0 0 0 0.01 0"/>
<feBlend mode="normal" in2="effect4_dropShadow_4_9624" result="effect5_dropShadow_4_9624"/>
<feBlend mode="normal" in="SourceGraphic" in2="effect5_dropShadow_4_9624" result="shape"/>
</filter>
<filter id="filter1_ddddd_4_9624" x="3.55664" y="19.7578" width="38.2363" height="47.0918" filterUnits="userSpaceOnUse" color-interpolation-filters="sRGB">
<feFlood flood-opacity="0" result="BackgroundImageFix"/>
<feColorMatrix in="SourceAlpha" type="matrix" values="0 0 0 0 0 0 0 0 0 0 0 0 0 0 0 0 0 0 127 0" result="hardAlpha"/>
<feOffset/>
<feColorMatrix type="matrix" values="0 0 0 0 0.0352941 0 0 0 0 0.0862745 0 0 0 0 0.164706 0 0 0 0.05 0"/>
<feBlend mode="normal" in2="BackgroundImageFix" result="effect1_dropShadow_4_9624"/>
<feColorMatrix in="SourceAlpha" type="matrix" values="0 0 0 0 0 0 0 0 0 0 0 0 0 0 0 0 0 0 127 0" result="hardAlpha"/>
<feOffset dy="1"/>
<feGaussianBlur stdDeviation="1"/>
<feColorMatrix type="matrix" values="0 0 0 0 0.0352941 0 0 0 0 0.0862745 0 0 0 0 0.164706 0 0 0 0.05 0"/>
<feBlend mode="normal" in2="effect1_dropShadow_4_9624" result="effect2_dropShadow_4_9624"/>
<feColorMatrix in="SourceAlpha" type="matrix" values="0 0 0 0 0 0 0 0 0 0 0 0 0 0 0 0 0 0 127 0" result="hardAlpha"/>
<feOffset dy="3"/>
<feGaussianBlur stdDeviation="1.5"/>
<feColorMatrix type="matrix" values="0 0 0 0 0.0352941 0 0 0 0 0.0862745 0 0 0 0 0.164706 0 0 0 0.09 0"/>
<feBlend mode="normal" in2="effect2_dropShadow_4_9624" result="effect3_dropShadow_4_9624"/>
<feColorMatrix in="SourceAlpha" type="matrix" values="0 0 0 0 0 0 0 0 0 0 0 0 0 0 0 0 0 0 127 0" result="hardAlpha"/>
<feOffset dy="7"/>
<feGaussianBlur stdDeviation="2"/>
<feColorMatrix type="matrix" values="0 0 0 0 0.0352941 0 0 0 0 0.0862745 0 0 0 0 0.164706 0 0 0 0.05 0"/>
<feBlend mode="normal" in2="effect3_dropShadow_4_9624" result="effect4_dropShadow_4_9624"/>
<feColorMatrix in="SourceAlpha" type="matrix" values="0 0 0 0 0 0 0 0 0 0 0 0 0 0 0 0 0 0 127 0" result="hardAlpha"/>
<feOffset dy="12"/>
<feGaussianBlur stdDeviation="2.5"/>
<feColorMatrix type="matrix" values="0 0 0 0 0.0352941 0 0 0 0 0.0862745 0 0 0 0 0.164706 0 0 0 0.01 0"/>
<feBlend mode="normal" in2="effect4_dropShadow_4_9624" result="effect5_dropShadow_4_9624"/>
<feBlend mode="normal" in="SourceGraphic" in2="effect5_dropShadow_4_9624" result="shape"/>
</filter>
<clipPath id="clip0_4_9624">
<rect width="16.0771" height="16.8427" fill="white" transform="translate(295.285 26.8828)"/>
</clipPath>
<clipPath id="clip1_4_9624">
<rect width="17.9685" height="18.8242" fill="white" transform="translate(13.6914 25.8906)"/>
</clipPath>
</defs>
</svg>
