<svg width="156" height="47" viewBox="0 0 156 47" fill="none" xmlns="http://www.w3.org/2000/svg">
<g clip-path="url(#clip0_432_28861)">
<path d="M149.759 0.382812H6.24074C3.07022 0.382812 0.5 2.95718 0.5 6.13281V40.6328C0.5 43.8084 3.07022 46.3828 6.24074 46.3828H149.759C152.93 46.3828 155.5 43.8084 155.5 40.6328V6.13281C155.5 2.95718 152.93 0.382812 149.759 0.382812Z" fill="white"/>
<path d="M54.9446 12.1583C54.9635 12.5801 54.8969 13.0012 54.7489 13.3965C54.6009 13.7918 54.3746 14.153 54.0835 14.4583C53.7573 14.7956 53.3637 15.0601 52.9284 15.2345C52.4932 15.4089 52.026 15.4893 51.5576 15.4703C51.0864 15.4808 50.6182 15.3944 50.1817 15.2164C49.7453 15.0384 49.3499 14.7725 49.0202 14.4353C48.3512 13.7499 47.9766 12.8294 47.9766 11.8708C47.9766 10.9123 48.3512 9.99176 49.0202 9.30632C49.5317 8.80571 50.1795 8.46767 50.8822 8.33467C51.5849 8.20168 52.3112 8.27966 52.9698 8.55882C53.3838 8.72929 53.7531 8.99293 54.0491 9.32932L53.4405 9.93882C53.2125 9.66371 52.9236 9.44563 52.5968 9.3019C52.2699 9.15817 51.9141 9.09274 51.5576 9.11082C51.1075 9.11394 50.6651 9.22742 50.2689 9.44135C49.8728 9.65527 49.535 9.96313 49.2851 10.338C49.0351 10.7129 48.8807 11.1434 48.8352 11.5919C48.7897 12.0403 48.8546 12.4932 49.0242 12.9107C49.1938 13.3283 49.4629 13.6979 49.808 13.9872C50.1531 14.2765 50.5637 14.4768 51.004 14.5705C51.4442 14.6642 51.9006 14.6484 52.3334 14.5246C52.7661 14.4008 53.162 14.1728 53.4865 13.8603C53.8372 13.4752 54.0405 12.9782 54.0605 12.4573H51.5576V11.6293H54.8987C54.9248 11.8045 54.9402 11.9812 54.9446 12.1583Z" fill="black" stroke="black" stroke-width="0.411304" stroke-miterlimit="10"/>
<path d="M60.2045 9.28264H57.1045V11.4676H59.929V12.2956H57.1045V14.4806H60.2045V15.3316H56.209V8.43164H60.2045V9.28264Z" fill="black" stroke="black" stroke-width="0.411304" stroke-miterlimit="10"/>
<path d="M63.9712 15.3316H63.0871V9.28264H61.1582V8.43164H65.946V9.28264H63.9712V15.3316Z" fill="black" stroke="black" stroke-width="0.411304" stroke-miterlimit="10"/>
<path d="M69.3184 15.3316V8.43164H70.2024V15.3316H69.3184Z" fill="black" stroke="black" stroke-width="0.411304" stroke-miterlimit="10"/>
<path d="M74.1313 15.3316H73.2472V9.28264H71.3184V8.43164H76.0487V9.28264H74.1313V15.3316Z" fill="black" stroke="black" stroke-width="0.411304" stroke-miterlimit="10"/>
<path d="M85.0154 14.4369C84.6838 14.7693 84.2901 15.033 83.8566 15.2129C83.4232 15.3928 82.9587 15.4854 82.4895 15.4854C82.0204 15.4854 81.5558 15.3928 81.1224 15.2129C80.689 15.033 80.2952 14.7693 79.9636 14.4369C79.3145 13.7458 78.9531 12.8327 78.9531 11.8839C78.9531 10.935 79.3145 10.022 79.9636 9.33086C80.2881 8.98908 80.6805 8.71932 81.1157 8.53906C81.5508 8.35879 82.0188 8.27202 82.4895 8.28436C82.9596 8.27691 83.4261 8.36591 83.8606 8.54589C84.295 8.72587 84.688 8.99301 85.0154 9.33086C85.3456 9.66722 85.6051 10.0664 85.7786 10.5049C85.9522 10.9434 86.0362 11.4123 86.0258 11.8839C86.0409 12.356 85.959 12.8262 85.7852 13.2654C85.6114 13.7045 85.3494 14.1033 85.0154 14.4369ZM80.618 13.8619C80.8626 14.1101 81.154 14.3072 81.4753 14.4418C81.7965 14.5763 82.1413 14.6456 82.4895 14.6456C82.8377 14.6456 83.1825 14.5763 83.5038 14.4418C83.825 14.3072 84.1164 14.1101 84.361 13.8619C84.8564 13.3227 85.1314 12.6166 85.1314 11.8839C85.1314 11.1511 84.8564 10.4451 84.361 9.90586C84.1164 9.6576 83.825 9.46047 83.5038 9.32593C83.1825 9.19139 82.8377 9.12211 82.4895 9.12211C82.1413 9.12211 81.7965 9.19139 81.4753 9.32593C81.154 9.46047 80.8626 9.6576 80.618 9.90586C80.1226 10.4451 79.8476 11.1511 79.8476 11.8839C79.8476 12.6166 80.1226 13.3227 80.618 13.8619Z" fill="black" stroke="black" stroke-width="0.411304" stroke-miterlimit="10"/>
<path d="M87.2773 15.3316V8.43164H88.3451L91.6977 13.8021V12.4681V8.43164H92.5818V15.3316H91.6633L88.1614 9.70814V11.0306V15.3316H87.2773Z" fill="black" stroke="black" stroke-width="0.411304" stroke-miterlimit="10"/>
<path d="M78.7343 25.3951C77.767 25.3974 76.822 25.687 76.0189 26.2271C75.2159 26.7673 74.5908 27.5339 74.2227 28.43C73.8546 29.326 73.76 30.3113 73.951 31.2611C74.1419 32.211 74.6098 33.0828 75.2954 33.7664C75.9811 34.4499 76.8537 34.9144 77.8029 35.1012C78.7521 35.288 79.7353 35.1887 80.6282 34.8158C81.521 34.4429 82.2835 33.8132 82.819 33.0063C83.3546 32.1994 83.6392 31.2516 83.6369 30.2826C83.6463 29.6363 83.5257 28.9946 83.2824 28.3959C83.039 27.7971 82.6779 27.2536 82.2204 26.7976C81.763 26.3415 81.2186 25.9824 80.6197 25.7414C80.0208 25.5005 79.3796 25.3827 78.7343 25.3951ZM78.7343 33.2496C78.1414 33.2912 77.5497 33.1531 77.0362 32.8533C76.5227 32.5536 76.111 32.106 75.8548 31.5688C75.5986 31.0316 75.5097 30.4297 75.5995 29.8412C75.6894 29.2527 75.954 28.7049 76.3588 28.269C76.7636 27.8331 77.29 27.5293 77.8695 27.397C78.449 27.2647 79.0549 27.3101 79.6083 27.5273C80.1617 27.7445 80.6371 28.1234 80.9727 28.6148C81.3082 29.1062 81.4885 29.6873 81.4899 30.2826C81.5084 30.6598 81.4513 31.0369 81.322 31.3917C81.1926 31.7465 80.9937 32.0717 80.7369 32.3482C80.4801 32.6248 80.1706 32.847 79.8266 33.0018C79.4827 33.1566 79.1113 33.2409 78.7343 33.2496ZM68.0336 25.3951C67.0662 25.3974 66.1213 25.687 65.3182 26.2271C64.5151 26.7673 63.89 27.5339 63.5219 28.43C63.1538 29.326 63.0593 30.3113 63.2502 31.2611C63.4412 32.211 63.9091 33.0828 64.5947 33.7664C65.2803 34.4499 66.1529 34.9144 67.1022 35.1012C68.0514 35.288 69.0346 35.1887 69.9274 34.8158C70.8203 34.4429 71.5827 33.8132 72.1183 33.0063C72.6538 32.1994 72.9385 31.2516 72.9362 30.2826C72.9456 29.6363 72.825 28.9946 72.5816 28.3959C72.3383 27.7971 71.9771 27.2536 71.5197 26.7976C71.0622 26.3415 70.5179 25.9824 69.919 25.7414C69.3201 25.5005 68.6789 25.3827 68.0336 25.3951ZM68.0336 33.2496C67.4407 33.2912 66.849 33.1531 66.3355 32.8533C65.8219 32.5536 65.4103 32.106 65.1541 31.5688C64.8979 31.0316 64.8089 30.4297 64.8988 29.8412C64.9887 29.2527 65.2532 28.7049 65.6581 28.269C66.0629 27.8331 66.5893 27.5293 67.1688 27.397C67.7483 27.2647 68.3541 27.3101 68.9076 27.5273C69.461 27.7445 69.9364 28.1234 70.2719 28.6148C70.6075 29.1062 70.7877 29.6873 70.7892 30.2826C70.8077 30.6598 70.7506 31.0369 70.6212 31.3917C70.4919 31.7465 70.293 32.0717 70.0361 32.3482C69.7793 32.6248 69.4698 32.847 69.1259 33.0018C68.782 33.1566 68.4106 33.2409 68.0336 33.2496ZM55.3121 26.9016V28.9716H60.2721C60.1944 29.9466 59.7897 30.8666 59.124 31.5821C58.6264 32.0899 58.028 32.4873 57.3674 32.7488C56.7069 33.0103 55.9988 33.13 55.2892 33.1001C53.8275 33.1001 52.4258 32.5186 51.3922 31.4834C50.3587 30.4482 49.7781 29.0441 49.7781 27.5801C49.7781 26.1161 50.3587 24.7121 51.3922 23.6769C52.4258 22.6417 53.8275 22.0601 55.2892 22.0601C56.6904 22.0393 58.0435 22.5722 59.0551 23.5436L60.5132 22.0831C59.8289 21.4052 59.0164 20.8709 58.1233 20.5115C57.2302 20.1521 56.2745 19.9749 55.3121 19.9901C54.2914 19.9503 53.2732 20.1173 52.3185 20.4811C51.3637 20.8449 50.4922 21.398 49.756 22.1073C49.0198 22.8165 48.4341 23.6674 48.034 24.6088C47.6339 25.5501 47.4277 26.5627 47.4277 27.5859C47.4277 28.609 47.6339 29.6216 48.034 30.563C48.4341 31.5044 49.0198 32.3552 49.756 33.0645C50.4922 33.7737 51.3637 34.3268 52.3185 34.6906C53.2732 35.0544 54.2914 35.2214 55.3121 35.1816C56.2943 35.2209 57.2736 35.0517 58.1858 34.685C59.0981 34.3183 59.9225 33.7625 60.6051 33.0541C61.8108 31.7275 62.4532 29.9827 62.3962 28.1896C62.4003 27.7581 62.3657 27.327 62.2929 26.9016H55.3121ZM107.335 28.5116C107.035 27.6293 106.475 26.8588 105.729 26.3023C104.983 25.7458 104.085 25.4294 103.155 25.3951C102.527 25.3939 101.906 25.5217 101.329 25.7706C100.752 26.0196 100.233 26.3844 99.8022 26.8424C99.3717 27.3005 99.0396 27.8422 98.8265 28.4339C98.6133 29.0256 98.5236 29.6548 98.5629 30.2826C98.5531 31.3324 98.8826 32.3572 99.5022 33.2039C100.122 34.0507 100.998 34.6739 102.001 34.9805C103.003 35.2872 104.078 35.2608 105.064 34.9053C106.05 34.5498 106.895 33.8843 107.472 33.0081L105.808 31.8581C105.56 32.2724 105.207 32.6146 104.787 32.8506C104.366 33.0866 103.89 33.2083 103.408 33.2036C102.91 33.2242 102.418 33.0935 101.996 32.8288C101.574 32.564 101.242 32.1775 101.043 31.7201L107.576 29.0176L107.335 28.5116ZM100.675 30.1446C100.652 29.7874 100.7 29.4291 100.817 29.0908C100.934 28.7524 101.117 28.4408 101.355 28.1741C101.593 27.9075 101.883 27.6911 102.206 27.5378C102.529 27.3845 102.879 27.2972 103.236 27.2811C103.606 27.2585 103.974 27.3457 104.295 27.5319C104.615 27.7181 104.874 27.9949 105.038 28.3276L100.675 30.1446ZM95.371 34.8826H97.5181V20.5076H95.371V34.8826ZM91.8577 26.4876H91.7773C91.4566 26.1218 91.0607 25.8296 90.6169 25.6311C90.173 25.4326 89.6915 25.3325 89.2055 25.3376C87.9507 25.3986 86.7675 25.9407 85.9011 26.8517C85.0346 27.7627 84.5513 28.9727 84.5513 30.2309C84.5513 31.4891 85.0346 32.6991 85.9011 33.6101C86.7675 34.521 87.9507 35.0632 89.2055 35.1241C89.6922 35.1339 90.1752 35.0359 90.6197 34.8371C91.0643 34.6383 91.4596 34.3436 91.7773 33.9741H91.8577V34.6756C91.8577 36.5501 90.8588 37.5506 89.2514 37.5506C88.7144 37.5388 88.1931 37.3674 87.7536 37.0582C87.314 36.7491 86.9762 36.316 86.7829 35.8141L84.9229 36.5846C85.2667 37.4497 85.8646 38.1899 86.6375 38.7073C87.4104 39.2248 88.3218 39.4951 89.2514 39.4826C91.7658 39.4826 93.844 37.9991 93.844 34.3881V25.6826H91.8577V26.4876ZM89.3892 33.2496C88.6369 33.2027 87.9308 32.8702 87.4147 32.32C86.8986 31.7699 86.6113 31.0433 86.6113 30.2884C86.6113 29.5334 86.8986 28.8069 87.4147 28.2567C87.9308 27.7065 88.6369 27.3741 89.3892 27.3271C89.7568 27.343 90.1176 27.4328 90.4499 27.5912C90.7822 27.7496 91.0793 27.9733 91.3236 28.2491C91.5678 28.5248 91.7542 28.8469 91.8716 29.1963C91.989 29.5456 92.035 29.9151 92.0069 30.2826C92.0383 30.6514 91.9946 31.0227 91.8785 31.3742C91.7625 31.7256 91.5765 32.0497 91.3318 32.3271C91.0871 32.6044 90.7888 32.8292 90.4549 32.9878C90.121 33.1463 89.7584 33.2354 89.3892 33.2496ZM117.392 20.5076H112.249V34.8826H114.396V29.4316H117.392C118.004 29.4757 118.619 29.393 119.197 29.1887C119.776 28.9844 120.306 28.6629 120.755 28.2442C121.204 27.8256 121.563 27.3188 121.808 26.7554C122.052 26.192 122.179 25.5841 122.179 24.9696C122.179 24.3551 122.052 23.7473 121.808 23.1839C121.563 22.6205 121.204 22.1137 120.755 21.695C120.306 21.2764 119.776 20.9549 119.197 20.7506C118.619 20.5463 118.004 20.4636 117.392 20.5076ZM117.392 27.4076H114.396V22.5086H117.438C117.761 22.5086 118.081 22.5723 118.379 22.696C118.677 22.8196 118.948 23.0009 119.176 23.2294C119.404 23.458 119.585 23.7293 119.708 24.0278C119.832 24.3264 119.895 24.6464 119.895 24.9696C119.895 25.2928 119.832 25.6128 119.708 25.9114C119.585 26.21 119.404 26.4813 119.176 26.7098C118.948 26.9383 118.677 27.1196 118.379 27.2433C118.081 27.367 117.761 27.4306 117.438 27.4306L117.392 27.4076ZM130.642 25.3491C129.86 25.3008 129.081 25.4832 128.402 25.8735C127.722 26.2639 127.172 26.8453 126.819 27.5456L128.713 28.3391C128.905 27.9934 129.192 27.7107 129.54 27.525C129.889 27.3393 130.283 27.2586 130.677 27.2926C130.949 27.2607 131.225 27.2835 131.489 27.3597C131.753 27.4359 131.998 27.5638 132.212 27.7362C132.426 27.9085 132.603 28.1218 132.734 28.3635C132.865 28.6053 132.946 28.8706 132.973 29.1441V29.2821C132.282 28.9186 131.514 28.7292 130.734 28.7301C128.69 28.7301 126.601 29.8801 126.601 31.9731C126.621 32.418 126.73 32.8543 126.922 33.256C127.114 33.6578 127.384 34.0168 127.717 34.3118C128.05 34.6068 128.439 34.8317 128.861 34.9732C129.282 35.1148 129.728 35.17 130.171 35.1356C130.71 35.1655 131.247 35.0513 131.727 34.8047C132.208 34.5582 132.614 34.1882 132.904 33.7326H132.973V34.8826H135.04V29.3511C135.04 26.8326 133.134 25.3721 130.688 25.3721L130.642 25.3491ZM130.378 33.2266C129.678 33.2266 128.702 32.8701 128.702 32.0076C128.702 30.8576 129.919 30.4666 130.998 30.4666C131.68 30.4498 132.354 30.6166 132.95 30.9496C132.878 31.5742 132.582 32.1513 132.118 32.5742C131.653 32.9971 131.052 33.2371 130.424 33.2496L130.378 33.2266ZM142.571 25.6826L140.114 31.9156H140.045L137.497 25.6826H135.2L139.024 34.3996L136.842 39.2411H139.081L144.96 25.6826H142.571ZM123.282 34.8826H125.418V20.5076H123.282V34.8826Z" fill="black"/>
<path d="M12.486 9.05511C12.1076 9.50317 11.9146 10.0791 11.9463 10.6651V36.1031C11.9073 36.69 12.1012 37.2687 12.486 37.7131L12.5663 37.8051L26.7919 23.5566V23.2116L12.5663 8.97461L12.486 9.05511Z" fill="url(#paint0_linear_432_28861)"/>
<path d="M31.5004 28.3049L26.793 23.5554V23.2104L31.5004 18.4609L31.6037 18.5299L37.2411 21.7269C38.8485 22.6354 38.8485 24.1304 37.2411 25.0504L31.6267 28.2474L31.5004 28.3049Z" fill="url(#paint1_linear_432_28861)"/>
<path d="M31.6394 28.2358L26.7942 23.3828L12.4883 37.7118C12.8127 38.0011 13.228 38.1675 13.6621 38.1822C14.0962 38.1969 14.5217 38.059 14.8649 37.7923L31.6394 28.2358Z" fill="url(#paint2_linear_432_28861)"/>
<path d="M31.6394 18.5288L14.8649 8.98378C14.524 8.71343 14.0988 8.57214 13.6641 8.58476C13.2294 8.59738 12.813 8.7631 12.4883 9.05278L26.7942 23.3818L31.6394 18.5288Z" fill="url(#paint3_linear_432_28861)"/>
<path opacity="0.2" d="M31.5016 28.1348L14.8649 37.6223C14.5342 37.8723 14.1312 38.0075 13.7168 38.0075C13.3024 38.0075 12.8994 37.8723 12.5687 37.6223L12.4883 37.7028L12.5687 37.7948C12.8994 38.0448 13.3024 38.18 13.7168 38.18C14.1312 38.18 14.5342 38.0448 14.8649 37.7948L31.6394 28.2383L31.5016 28.1348Z" fill="black"/>
<path opacity="0.12" d="M12.4864 37.5512C12.1176 37.0951 11.9369 36.515 11.9812 35.9297V36.1022C11.9421 36.6891 12.1361 37.2678 12.5208 37.7122L12.6012 37.6317L12.4864 37.5512Z" fill="black"/>
<path opacity="0.12" d="M37.2407 24.8778L31.5 28.1323L31.6033 28.2358L37.2407 25.0388C37.5735 24.8979 37.8622 24.6697 38.0764 24.3783C38.2905 24.0868 38.4223 23.7429 38.4578 23.3828C38.386 23.7101 38.2385 24.0159 38.0271 24.2755C37.8157 24.5352 37.5463 24.7415 37.2407 24.8778Z" fill="black"/>
<path opacity="0.25" d="M14.8636 9.14613L37.241 21.8881C37.5466 22.0244 37.8159 22.2307 38.0273 22.4904C38.2387 22.7501 38.3862 23.0559 38.458 23.3831C38.4225 23.023 38.2908 22.6791 38.0766 22.3877C37.8624 22.0963 37.5737 21.8681 37.241 21.7271L14.8636 8.98513C13.2676 8.06513 11.9473 8.82413 11.9473 10.6641V10.8366C11.9817 8.99663 13.2676 8.23763 14.8636 9.14613Z" fill="white"/>
</g>
<defs>
<linearGradient id="paint0_linear_432_28861" x1="25.5289" y1="10.4006" x2="6.23196" y2="29.6665" gradientUnits="userSpaceOnUse">
<stop stop-color="#00A0FF"/>
<stop offset="0.01" stop-color="#00A1FF"/>
<stop offset="0.26" stop-color="#00BEFF"/>
<stop offset="0.51" stop-color="#00D2FF"/>
<stop offset="0.76" stop-color="#00DFFF"/>
<stop offset="1" stop-color="#00E3FF"/>
</linearGradient>
<linearGradient id="paint1_linear_432_28861" x1="39.3422" y1="23.3829" x2="11.5685" y2="23.3829" gradientUnits="userSpaceOnUse">
<stop stop-color="#FFE000"/>
<stop offset="0.41" stop-color="#FFBD00"/>
<stop offset="0.78" stop-color="#FFA500"/>
<stop offset="1" stop-color="#FF9C00"/>
</linearGradient>
<linearGradient id="paint2_linear_432_28861" x1="29.0101" y1="26.0278" x2="2.83618" y2="52.1481" gradientUnits="userSpaceOnUse">
<stop stop-color="#FF3A44"/>
<stop offset="1" stop-color="#C31162"/>
</linearGradient>
<linearGradient id="paint3_linear_432_28861" x1="8.8831" y1="0.588777" x2="20.5671" y2="12.2539" gradientUnits="userSpaceOnUse">
<stop stop-color="#32A071"/>
<stop offset="0.07" stop-color="#2DA771"/>
<stop offset="0.48" stop-color="#15CF74"/>
<stop offset="0.8" stop-color="#06E775"/>
<stop offset="1" stop-color="#00F076"/>
</linearGradient>
<clipPath id="clip0_432_28861">
<rect width="155" height="46" fill="white" transform="translate(0.5 0.382812)"/>
</clipPath>
</defs>
</svg>
