<svg width="56" height="57" viewBox="0 0 56 57" fill="none" xmlns="http://www.w3.org/2000/svg">
<path d="M51.3333 20.3584C51.3336 22.4541 50.9002 24.5272 50.0604 26.447C49.2206 28.3668 47.9927 30.0918 46.4539 31.5132C44.9151 32.9347 43.0989 34.0219 41.1195 34.7063C39.1402 35.3907 37.0407 35.6574 34.9533 35.4898C34.6613 31.8963 33.1024 28.5237 30.5549 25.9743C28.0075 23.425 24.6374 21.8649 21.0466 21.5726C20.8867 19.5366 21.139 17.4893 21.7884 15.5532C22.4378 13.6171 23.471 11.832 24.826 10.3049C26.1811 8.77786 27.8301 7.54015 29.6745 6.66594C31.5188 5.79173 33.5204 5.299 35.5596 5.21724C37.5987 5.13549 39.6333 5.46641 41.5416 6.19017C43.4499 6.91393 45.1926 8.01565 46.6654 9.42936C48.1381 10.8431 49.3107 12.5397 50.1128 14.4176C50.9148 16.2955 51.33 18.3161 51.3333 20.3584Z" fill="#015DFA"/>
<path d="M34.9994 36.6823C34.9994 40.7047 33.4014 44.5624 30.5571 47.4067C27.7128 50.251 23.8551 51.849 19.8327 51.849C15.8102 51.849 11.9525 50.251 9.10823 47.4067C6.26393 44.5624 4.66602 40.7047 4.66602 36.6823C4.66602 32.6598 6.26393 28.8021 9.10823 25.9578C11.9525 23.1135 15.8102 21.5156 19.8327 21.5156C23.8551 21.5156 27.7128 23.1135 30.5571 25.9578C33.4014 28.8021 34.9994 32.6598 34.9994 36.6823Z" fill="#BFD0FF"/>
<path d="M17.78 34.6296L19.8333 30.8496L21.8867 34.6296L25.6667 36.6829L21.8867 38.7363L19.8333 42.5163L17.78 38.7363L14 36.6829L17.78 34.6296Z" fill="#07080C"/>
<path d="M36.0199 14.6169C36.0699 14.4819 36.2608 14.4819 36.3108 14.6169L37.7951 18.6276C37.8108 18.6701 37.8443 18.7035 37.8867 18.7192L41.8975 20.2035C42.0324 20.2535 42.0324 20.4444 41.8975 20.4944L37.8867 21.9787C37.8443 21.9944 37.8108 22.0278 37.7951 22.0703L36.3108 26.081C36.2608 26.216 36.0699 26.216 36.0199 26.081L34.5356 22.0703C34.5199 22.0278 34.4865 21.9944 34.444 21.9787L30.4333 20.4944C30.2983 20.4444 30.2983 20.2535 30.4333 20.2035L34.444 18.7192C34.4865 18.7035 34.5199 18.6701 34.5356 18.6276L36.0199 14.6169Z" fill="#BFD0FF"/>
<path d="M10.6879 5.61687C10.7379 5.48188 10.9288 5.48188 10.9788 5.61687L12.4631 9.62763C12.4788 9.67007 12.5122 9.70353 12.5547 9.71924L16.5654 11.2035C16.7004 11.2535 16.7004 11.4444 16.5654 11.4944L12.5547 12.9787C12.5122 12.9944 12.4788 13.0278 12.4631 13.0703L10.9788 17.081C10.9288 17.216 10.7379 17.216 10.6879 17.081L9.20361 13.0703C9.18791 13.0278 9.15445 12.9944 9.11201 12.9787L5.10125 11.4944C4.96625 11.4444 4.96625 11.2535 5.10125 11.2035L9.11201 9.71924C9.15445 9.70353 9.18791 9.67007 9.20361 9.62763L10.6879 5.61687Z" fill="#015DFA"/>
<path d="M44.6879 39.6169C44.7379 39.4819 44.9288 39.4819 44.9788 39.6169L46.4631 43.6276C46.4788 43.6701 46.5122 43.7035 46.5547 43.7192L50.5654 45.2035C50.7004 45.2535 50.7004 45.4444 50.5654 45.4944L46.5547 46.9787C46.5122 46.9944 46.4788 47.0278 46.4631 47.0703L44.9788 51.081C44.9288 51.216 44.7379 51.216 44.6879 51.081L43.2036 47.0703C43.1879 47.0278 43.1544 46.9944 43.112 46.9787L39.1012 45.4944C38.9663 45.4444 38.9663 45.2535 39.1012 45.2035L43.112 43.7192C43.1544 43.7035 43.1879 43.6701 43.2036 43.6276L44.6879 39.6169Z" fill="#07080C"/>
</svg>
