<svg width="155" height="47" viewBox="0 0 155 47" fill="none" xmlns="http://www.w3.org/2000/svg">
<g clip-path="url(#clip0_4_9195)">
<path d="M149.259 0.515625H5.74074C2.57022 0.515625 0 3.08999 0 6.26562V40.7656C0 43.9413 2.57022 46.5156 5.74074 46.5156H149.259C152.43 46.5156 155 43.9413 155 40.7656V6.26562C155 3.08999 152.43 0.515625 149.259 0.515625Z" fill="#07080C"/>
<path d="M54.4446 12.2911C54.4635 12.7129 54.3969 13.1341 54.2489 13.5293C54.1009 13.9246 53.8746 14.2858 53.5835 14.5911C53.2573 14.9284 52.8637 15.1929 52.4284 15.3673C51.9932 15.5417 51.526 15.6221 51.0576 15.6031C50.5864 15.6137 50.1182 15.5272 49.6817 15.3492C49.2453 15.1712 48.8499 14.9053 48.5202 14.5681C47.8512 13.8827 47.4766 12.9622 47.4766 12.0036C47.4766 11.0451 47.8512 10.1246 48.5202 9.43913C49.0317 8.93852 49.6795 8.60048 50.3822 8.46748C51.0849 8.33449 51.8112 8.41247 52.4698 8.69163C52.8838 8.8621 53.2531 9.12574 53.5491 9.46213L52.9405 10.0716C52.7125 9.79652 52.4236 9.57844 52.0968 9.43471C51.7699 9.29098 51.4141 9.22555 51.0576 9.24363C50.6075 9.24675 50.1651 9.36023 49.7689 9.57416C49.3728 9.78809 49.035 10.0959 48.7851 10.4708C48.5351 10.8457 48.3807 11.2762 48.3352 11.7247C48.2897 12.1732 48.3546 12.626 48.5242 13.0435C48.6938 13.4611 48.9629 13.8307 49.308 14.12C49.6531 14.4094 50.0637 14.6096 50.504 14.7033C50.9442 14.797 51.4006 14.7812 51.8334 14.6574C52.2661 14.5336 52.662 14.3056 52.9865 13.9931C53.3372 13.608 53.5405 13.111 53.5605 12.5901H51.0576V11.7621H54.3987C54.4248 11.9374 54.4402 12.114 54.4446 12.2911Z" fill="white" stroke="white" stroke-width="0.411304" stroke-miterlimit="10"/>
<path d="M59.7045 9.41545H56.6045V11.6005H59.429V12.4285H56.6045V14.6135H59.7045V15.4645H55.709V8.56445H59.7045V9.41545Z" fill="white" stroke="white" stroke-width="0.411304" stroke-miterlimit="10"/>
<path d="M63.4712 15.4645H62.5871V9.41545H60.6582V8.56445H65.446V9.41545H63.4712V15.4645Z" fill="white" stroke="white" stroke-width="0.411304" stroke-miterlimit="10"/>
<path d="M68.8184 15.4645V8.56445H69.7024V15.4645H68.8184Z" fill="white" stroke="white" stroke-width="0.411304" stroke-miterlimit="10"/>
<path d="M73.6313 15.4645H72.7472V9.41545H70.8184V8.56445H75.5487V9.41545H73.6313V15.4645Z" fill="white" stroke="white" stroke-width="0.411304" stroke-miterlimit="10"/>
<path d="M84.5154 14.5697C84.1838 14.9021 83.7901 15.1658 83.3566 15.3457C82.9232 15.5256 82.4587 15.6182 81.9895 15.6182C81.5204 15.6182 81.0558 15.5256 80.6224 15.3457C80.189 15.1658 79.7952 14.9021 79.4636 14.5697C78.8145 13.8786 78.4531 12.9655 78.4531 12.0167C78.4531 11.0678 78.8145 10.1548 79.4636 9.46367C79.7881 9.12189 80.1805 8.85214 80.6157 8.67187C81.0508 8.4916 81.5188 8.40483 81.9895 8.41717C82.4596 8.40972 82.9261 8.49873 83.3606 8.6787C83.795 8.85868 84.188 9.12582 84.5154 9.46367C84.8456 9.80003 85.1051 10.1992 85.2786 10.6377C85.4522 11.0762 85.5362 11.5451 85.5258 12.0167C85.5409 12.4888 85.459 12.959 85.2852 13.3982C85.1114 13.8374 84.8494 14.2361 84.5154 14.5697ZM80.118 13.9947C80.3626 14.2429 80.654 14.4401 80.9753 14.5746C81.2965 14.7091 81.6413 14.7784 81.9895 14.7784C82.3377 14.7784 82.6825 14.7091 83.0038 14.5746C83.325 14.4401 83.6164 14.2429 83.861 13.9947C84.3564 13.4555 84.6314 12.7495 84.6314 12.0167C84.6314 11.2839 84.3564 10.5779 83.861 10.0387C83.6164 9.79041 83.325 9.59329 83.0038 9.45874C82.6825 9.3242 82.3377 9.25492 81.9895 9.25492C81.6413 9.25492 81.2965 9.3242 80.9753 9.45874C80.654 9.59329 80.3626 9.79041 80.118 10.0387C79.6226 10.5779 79.3476 11.2839 79.3476 12.0167C79.3476 12.7495 79.6226 13.4555 80.118 13.9947Z" fill="white" stroke="white" stroke-width="0.411304" stroke-miterlimit="10"/>
<path d="M86.7773 15.4645V8.56445H87.8451L91.1977 13.935V12.601V8.56445H92.0818V15.4645H91.1633L87.6614 9.84095V11.1635V15.4645H86.7773Z" fill="white" stroke="white" stroke-width="0.411304" stroke-miterlimit="10"/>
<path d="M78.2343 25.5279C77.267 25.5302 76.322 25.8198 75.5189 26.36C74.7159 26.9002 74.0908 27.6667 73.7227 28.5628C73.3546 29.4588 73.26 30.4441 73.451 31.3939C73.6419 32.3438 74.1098 33.2156 74.7954 33.8992C75.4811 34.5827 76.3537 35.0472 77.3029 35.234C78.2521 35.4208 79.2353 35.3215 80.1282 34.9486C81.021 34.5757 81.7835 33.946 82.319 33.1391C82.8546 32.3322 83.1392 31.3844 83.1369 30.4154C83.1463 29.7691 83.0257 29.1274 82.7824 28.5287C82.539 27.93 82.1779 27.3864 81.7204 26.9304C81.263 26.4743 80.7186 26.1152 80.1197 25.8742C79.5208 25.6333 78.8796 25.5155 78.2343 25.5279ZM78.2343 33.3824C77.6414 33.424 77.0497 33.2859 76.5362 32.9861C76.0227 32.6864 75.611 32.2388 75.3548 31.7016C75.0986 31.1645 75.0097 30.5625 75.0995 29.974C75.1894 29.3855 75.454 28.8377 75.8588 28.4018C76.2636 27.9659 76.79 27.6621 77.3695 27.5298C77.949 27.3976 78.5549 27.443 79.1083 27.6601C79.6617 27.8773 80.1371 28.2562 80.4727 28.7476C80.8082 29.239 80.9885 29.8201 80.9899 30.4154C81.0084 30.7927 80.9513 31.1698 80.822 31.5245C80.6926 31.8793 80.4937 32.2045 80.2369 32.481C79.9801 32.7576 79.6706 32.9798 79.3266 33.1346C78.9827 33.2894 78.6113 33.3737 78.2343 33.3824ZM67.5336 25.5279C66.5662 25.5302 65.6213 25.8198 64.8182 26.36C64.0151 26.9002 63.39 27.6667 63.0219 28.5628C62.6538 29.4588 62.5593 30.4441 62.7502 31.3939C62.9412 32.3438 63.4091 33.2156 64.0947 33.8992C64.7803 34.5827 65.6529 35.0472 66.6022 35.234C67.5514 35.4208 68.5346 35.3215 69.4274 34.9486C70.3203 34.5757 71.0827 33.946 71.6183 33.1391C72.1538 32.3322 72.4385 31.3844 72.4362 30.4154C72.4456 29.7691 72.325 29.1274 72.0816 28.5287C71.8383 27.93 71.4771 27.3864 71.0197 26.9304C70.5622 26.4743 70.0179 26.1152 69.419 25.8742C68.8201 25.6333 68.1789 25.5155 67.5336 25.5279ZM67.5336 33.3824C66.9407 33.424 66.349 33.2859 65.8355 32.9861C65.3219 32.6864 64.9103 32.2388 64.6541 31.7016C64.3979 31.1645 64.3089 30.5625 64.3988 29.974C64.4887 29.3855 64.7532 28.8377 65.1581 28.4018C65.5629 27.9659 66.0893 27.6621 66.6688 27.5298C67.2483 27.3976 67.8541 27.443 68.4076 27.6601C68.961 27.8773 69.4364 28.2562 69.7719 28.7476C70.1075 29.239 70.2877 29.8201 70.2892 30.4154C70.3077 30.7927 70.2506 31.1698 70.1212 31.5245C69.9919 31.8793 69.793 32.2045 69.5361 32.481C69.2793 32.7576 68.9698 32.9798 68.6259 33.1346C68.282 33.2894 67.9106 33.3737 67.5336 33.3824ZM54.8121 27.0344V29.1044H59.7721C59.6944 30.0794 59.2897 30.9994 58.624 31.7149C58.1264 32.2227 57.528 32.6201 56.8674 32.8816C56.2069 33.1431 55.4988 33.2628 54.7892 33.2329C53.3275 33.2329 51.9258 32.6514 50.8922 31.6162C49.8587 30.581 49.2781 29.1769 49.2781 27.7129C49.2781 26.2489 49.8587 24.8449 50.8922 23.8097C51.9258 22.7745 53.3275 22.1929 54.7892 22.1929C56.1904 22.1721 57.5435 22.7051 58.5551 23.6764L60.0132 22.2159C59.3289 21.538 58.5164 21.0037 57.6233 20.6443C56.7302 20.2849 55.7745 20.1077 54.8121 20.1229C53.7914 20.0832 52.7732 20.2502 51.8185 20.614C50.8637 20.9778 49.9922 21.5308 49.256 22.2401C48.5198 22.9494 47.9341 23.8002 47.534 24.7416C47.1339 25.683 46.9277 26.6956 46.9277 27.7187C46.9277 28.7418 47.1339 29.7544 47.534 30.6958C47.9341 31.6372 48.5198 32.488 49.256 33.1973C49.9922 33.9065 50.8637 34.4596 51.8185 34.8234C52.7732 35.1872 53.7914 35.3542 54.8121 35.3144C55.7943 35.3537 56.7736 35.1845 57.6858 34.8178C58.5981 34.4512 59.4225 33.8954 60.1051 33.1869C61.3108 31.8603 61.9532 30.1155 61.8962 28.3224C61.9003 27.8909 61.8657 27.4598 61.7929 27.0344H54.8121ZM106.835 28.6444C106.535 27.7621 105.975 26.9916 105.229 26.4351C104.483 25.8786 103.585 25.5622 102.655 25.5279C102.027 25.5267 101.406 25.6545 100.829 25.9035C100.252 26.1524 99.7326 26.5172 99.3022 26.9753C98.8717 27.4333 98.5396 27.975 98.3265 28.5667C98.1133 29.1584 98.0236 29.7876 98.0629 30.4154C98.0531 31.4652 98.3826 32.49 99.0022 33.3367C99.6218 34.1835 100.498 34.8067 101.501 35.1134C102.503 35.42 103.578 35.3936 104.564 35.0381C105.55 34.6826 106.395 34.0171 106.972 33.1409L105.308 31.9909C105.06 32.4053 104.707 32.7474 104.287 32.9834C103.866 33.2194 103.39 33.3411 102.908 33.3364C102.41 33.357 101.918 33.2263 101.496 32.9616C101.074 32.6968 100.742 32.3103 100.543 31.8529L107.076 29.1504L106.835 28.6444ZM100.175 30.2774C100.152 29.9202 100.2 29.562 100.317 29.2236C100.434 28.8852 100.617 28.5736 100.855 28.3069C101.093 28.0403 101.383 27.8239 101.706 27.6706C102.029 27.5173 102.379 27.43 102.736 27.4139C103.106 27.3913 103.474 27.4786 103.795 27.6647C104.115 27.8509 104.374 28.1277 104.538 28.4604L100.175 30.2774ZM94.871 35.0154H97.0181V20.6404H94.871V35.0154ZM91.3577 26.6204H91.2773C90.9566 26.2546 90.5607 25.9624 90.1169 25.7639C89.673 25.5655 89.1915 25.4653 88.7055 25.4704C87.4507 25.5314 86.2675 26.0735 85.4011 26.9845C84.5346 27.8955 84.0513 29.1055 84.0513 30.3637C84.0513 31.6219 84.5346 32.8319 85.4011 33.7429C86.2675 34.6539 87.4507 35.196 88.7055 35.2569C89.1922 35.2667 89.6752 35.1687 90.1197 34.9699C90.5643 34.7711 90.9596 34.4764 91.2773 34.1069H91.3577V34.8084C91.3577 36.6829 90.3588 37.6834 88.7514 37.6834C88.2144 37.6716 87.6931 37.5002 87.2536 37.1911C86.814 36.8819 86.4762 36.4488 86.2829 35.9469L84.4229 36.7174C84.7667 37.5825 85.3646 38.3227 86.1375 38.8402C86.9104 39.3576 87.8218 39.6279 88.7514 39.6154C91.2658 39.6154 93.344 38.1319 93.344 34.5209V25.8154H91.3577V26.6204ZM88.8892 33.3824C88.1369 33.3355 87.4308 33.003 86.9147 32.4529C86.3986 31.9027 86.1113 31.1761 86.1113 30.4212C86.1113 29.6663 86.3986 28.9397 86.9147 28.3895C87.4308 27.8393 88.1369 27.5069 88.8892 27.4599C89.2568 27.4758 89.6176 27.5656 89.9499 27.724C90.2822 27.8824 90.5793 28.1061 90.8236 28.3819C91.0678 28.6576 91.2542 28.9797 91.3716 29.3291C91.489 29.6785 91.535 30.0479 91.5069 30.4154C91.5383 30.7842 91.4946 31.1556 91.3785 31.507C91.2625 31.8584 91.0765 32.1825 90.8318 32.4599C90.5871 32.7372 90.2888 32.962 89.9549 33.1206C89.621 33.2791 89.2584 33.3682 88.8892 33.3824ZM116.892 20.6404H111.749V35.0154H113.896V29.5644H116.892C117.504 29.6085 118.119 29.5258 118.697 29.3215C119.276 29.1172 119.806 28.7957 120.255 28.3771C120.704 27.9584 121.063 27.4516 121.308 26.8882C121.552 26.3248 121.679 25.7169 121.679 25.1024C121.679 24.488 121.552 23.8801 121.308 23.3167C121.063 22.7533 120.704 22.2465 120.255 21.8278C119.806 21.4092 119.276 21.0877 118.697 20.8834C118.119 20.6791 117.504 20.5964 116.892 20.6404ZM116.892 27.5404H113.896V22.6414H116.938C117.261 22.6414 117.581 22.7051 117.879 22.8288C118.177 22.9524 118.448 23.1337 118.676 23.3622C118.904 23.5908 119.085 23.8621 119.208 24.1607C119.332 24.4592 119.395 24.7793 119.395 25.1024C119.395 25.4256 119.332 25.7456 119.208 26.0442C119.085 26.3428 118.904 26.6141 118.676 26.8426C118.448 27.0712 118.177 27.2524 117.879 27.3761C117.581 27.4998 117.261 27.5634 116.938 27.5634L116.892 27.5404ZM130.142 25.4819C129.36 25.4336 128.581 25.616 127.902 26.0064C127.222 26.3967 126.672 26.9781 126.319 27.6784L128.213 28.4719C128.405 28.1263 128.692 27.8435 129.04 27.6578C129.389 27.4721 129.783 27.3914 130.177 27.4254C130.449 27.3936 130.725 27.4164 130.989 27.4925C131.253 27.5687 131.498 27.6967 131.712 27.869C131.926 28.0414 132.103 28.2546 132.234 28.4963C132.365 28.7381 132.446 29.0034 132.473 29.2769V29.4149C131.782 29.0514 131.014 28.862 130.234 28.8629C128.19 28.8629 126.101 30.0129 126.101 32.1059C126.121 32.5508 126.23 32.9871 126.422 33.3888C126.614 33.7906 126.884 34.1496 127.217 34.4446C127.55 34.7396 127.939 34.9645 128.361 35.1061C128.782 35.2476 129.228 35.3028 129.671 35.2684C130.21 35.2983 130.747 35.1841 131.227 34.9375C131.708 34.691 132.114 34.321 132.404 33.8654H132.473V35.0154H134.54V29.4839C134.54 26.9654 132.634 25.5049 130.188 25.5049L130.142 25.4819ZM129.878 33.3594C129.178 33.3594 128.202 33.0029 128.202 32.1404C128.202 30.9904 129.419 30.5994 130.498 30.5994C131.18 30.5826 131.854 30.7494 132.45 31.0824C132.378 31.707 132.082 32.2842 131.618 32.7071C131.153 33.13 130.552 33.3699 129.924 33.3824L129.878 33.3594ZM142.071 25.8154L139.614 32.0484H139.545L136.997 25.8154H134.7L138.524 34.5324L136.342 39.3739H138.581L144.46 25.8154H142.071ZM122.782 35.0154H124.918V20.6404H122.782V35.0154Z" fill="white"/>
<path d="M11.986 9.18792C11.6076 9.63599 11.4146 10.212 11.4463 10.7979V36.2359C11.4073 36.8229 11.6012 37.4015 11.986 37.8459L12.0663 37.9379L26.2919 23.6894V23.3444L12.0663 9.10742L11.986 9.18792Z" fill="url(#paint0_linear_4_9195)"/>
<path d="M31.0004 28.4377L26.293 23.6883V23.3433L31.0004 18.5938L31.1037 18.6628L36.7411 21.8598C38.3485 22.7683 38.3485 24.2633 36.7411 25.1833L31.1267 28.3803L31.0004 28.4377Z" fill="url(#paint1_linear_4_9195)"/>
<path d="M31.1374 28.3686L26.2923 23.5156L11.9863 37.8446C12.3108 38.1339 12.726 38.3003 13.1601 38.315C13.5942 38.3297 14.0198 38.1918 14.363 37.9251L31.1374 28.3686Z" fill="url(#paint2_linear_4_9195)"/>
<path d="M31.1374 18.6616L14.363 9.11659C14.022 8.84624 13.5968 8.70495 13.1621 8.71757C12.7274 8.73019 12.3111 8.89591 11.9863 9.18559L26.2923 23.5146L31.1374 18.6616Z" fill="url(#paint3_linear_4_9195)"/>
<path opacity="0.2" d="M30.9997 28.2676L14.363 37.7551C14.0323 38.0051 13.6292 38.1403 13.2148 38.1403C12.8005 38.1403 12.3974 38.0051 12.0667 37.7551L11.9863 37.8356L12.0667 37.9276C12.3974 38.1776 12.8005 38.3128 13.2148 38.3128C13.6292 38.3128 14.0323 38.1776 14.363 37.9276L31.1374 28.3711L30.9997 28.2676Z" fill="#07080C"/>
<path opacity="0.12" d="M11.9864 37.684C11.6176 37.2279 11.4369 36.6478 11.4812 36.0625V36.235C11.4421 36.8219 11.6361 37.4006 12.0208 37.845L12.1012 37.7645L11.9864 37.684Z" fill="#07080C"/>
<path opacity="0.12" d="M36.7407 25.0106L31 28.2651L31.1033 28.3686L36.7407 25.1716C37.0735 25.0307 37.3622 24.8025 37.5764 24.5111C37.7905 24.2196 37.9223 23.8758 37.9578 23.5156C37.886 23.8429 37.7385 24.1487 37.5271 24.4083C37.3157 24.668 37.0463 24.8743 36.7407 25.0106Z" fill="#07080C"/>
<path opacity="0.25" d="M14.3636 9.27894L36.741 22.0209C37.0466 22.1572 37.3159 22.3636 37.5273 22.6232C37.7387 22.8829 37.8862 23.1887 37.958 23.5159C37.9225 23.1558 37.7908 22.8119 37.5766 22.5205C37.3624 22.2291 37.0737 22.0009 36.741 21.8599L14.3636 9.11794C12.7676 8.19794 11.4473 8.95694 11.4473 10.7969V10.9694C11.4817 9.12944 12.7676 8.37044 14.3636 9.27894Z" fill="white"/>
</g>
<defs>
<linearGradient id="paint0_linear_4_9195" x1="25.0289" y1="10.5334" x2="5.73196" y2="29.7993" gradientUnits="userSpaceOnUse">
<stop stop-color="#00A0FF"/>
<stop offset="0.01" stop-color="#00A1FF"/>
<stop offset="0.26" stop-color="#00BEFF"/>
<stop offset="0.51" stop-color="#00D2FF"/>
<stop offset="0.76" stop-color="#00DFFF"/>
<stop offset="1" stop-color="#00E3FF"/>
</linearGradient>
<linearGradient id="paint1_linear_4_9195" x1="38.8422" y1="23.5157" x2="11.0685" y2="23.5157" gradientUnits="userSpaceOnUse">
<stop stop-color="#FFE000"/>
<stop offset="0.41" stop-color="#FFBD00"/>
<stop offset="0.78" stop-color="#FFA500"/>
<stop offset="1" stop-color="#FF9C00"/>
</linearGradient>
<linearGradient id="paint2_linear_4_9195" x1="28.5082" y1="26.1606" x2="2.33422" y2="52.2809" gradientUnits="userSpaceOnUse">
<stop stop-color="#FF3A44"/>
<stop offset="1" stop-color="#C31162"/>
</linearGradient>
<linearGradient id="paint3_linear_4_9195" x1="8.38114" y1="0.72159" x2="20.0651" y2="12.3868" gradientUnits="userSpaceOnUse">
<stop stop-color="#32A071"/>
<stop offset="0.07" stop-color="#2DA771"/>
<stop offset="0.48" stop-color="#15CF74"/>
<stop offset="0.8" stop-color="#06E775"/>
<stop offset="1" stop-color="#00F076"/>
</linearGradient>
<clipPath id="clip0_4_9195">
<rect width="155" height="46" fill="white" transform="translate(0 0.515625)"/>
</clipPath>
</defs>
</svg>
