<svg width="206" height="82" viewBox="0 0 206 82" fill="none" xmlns="http://www.w3.org/2000/svg">
<g filter="url(#filter0_b_4_9503)">
<path d="M0.998047 40.8029C0.998047 18.5529 19.0353 0.515625 41.2853 0.515625H81.5726V25.1259H73.7847C71.9293 25.1259 70.4253 26.63 70.4253 28.4853C70.4253 30.3407 71.9293 31.8447 73.7847 31.8447H81.5726V50.3056H73.7847C71.9293 50.3056 70.4253 51.8096 70.4253 53.665C70.4253 55.5203 71.9293 57.0244 73.7847 57.0244H81.5726V81.0902H41.2853C19.0353 81.0902 0.998047 63.053 0.998047 40.8029Z" fill="#015DFA"/>
</g>
<path d="M26.9902 43.0993C26.9902 43.8279 26.8422 44.4313 26.5576 44.9208C26.273 45.4104 25.8859 45.8088 25.4191 46.1048C24.941 46.4008 24.4059 46.6171 23.8025 46.7538C23.1991 46.879 22.573 46.9473 21.9468 46.9473H16.6758V33.707H21.9468C22.4591 33.707 22.9828 33.764 23.5179 33.8664C24.053 33.9689 24.5425 34.151 24.9751 34.4129C25.4078 34.6747 25.7607 35.0163 26.0453 35.4489C26.3185 35.8815 26.4551 36.4393 26.4551 37.111C26.4551 37.851 26.2616 38.4544 25.8518 38.9326C25.4533 39.4107 24.9296 39.7636 24.2807 39.9685V40.0027C24.6564 40.071 25.0093 40.1849 25.3394 40.3556C25.6696 40.5264 25.9542 40.7427 26.1933 41.0045C26.4324 41.2664 26.6259 41.5738 26.7739 41.9267C26.9105 42.2682 26.9902 42.6553 26.9902 43.0993ZM23.3585 37.5436C23.3585 37.0996 23.1878 36.7695 22.8462 36.5646C22.5047 36.3596 21.9924 36.2572 21.3207 36.2572H19.7496V38.9895H21.4687C22.0721 38.9895 22.5275 38.8642 22.8576 38.6252C23.1991 38.3747 23.3585 38.0104 23.3585 37.5436ZM23.7911 42.7919C23.7911 42.2455 23.5862 41.8584 23.1764 41.6535C22.7665 41.4372 22.2201 41.3347 21.5256 41.3347H19.7496V44.363H21.5484C21.7988 44.363 22.0607 44.3402 22.3225 44.2947C22.5844 44.2491 22.8348 44.1695 23.0511 44.067C23.2675 43.9531 23.4496 43.7938 23.5862 43.5888C23.7228 43.3839 23.7911 43.1221 23.7911 42.7919Z" fill="white"/>
<path d="M31.6158 34.6631C31.6158 34.9022 31.5703 35.1185 31.4792 35.3234C31.3881 35.5283 31.2629 35.7105 31.1035 35.8585C30.9441 36.0065 30.762 36.1203 30.5457 36.2114C30.3294 36.3025 30.1017 36.3366 29.8626 36.3366C29.3617 36.3366 28.9518 36.1772 28.6103 35.8357C28.2688 35.5056 28.1094 35.1071 28.1094 34.6517C28.1094 34.424 28.1549 34.2077 28.246 34.0028C28.3371 33.7979 28.4623 33.6157 28.6217 33.4677C28.7811 33.3197 28.9746 33.1945 29.1795 33.1034C29.3958 33.0123 29.6235 32.9668 29.874 32.9668C30.1131 32.9668 30.3408 33.0123 30.5571 33.092C30.7734 33.1831 30.9669 33.297 31.1149 33.445C31.2743 33.5929 31.3995 33.7751 31.4906 33.98C31.5703 34.1963 31.6158 34.424 31.6158 34.6631ZM28.3257 37.6345H31.3995V46.9471H28.3257V37.6345Z" fill="white"/>
<path d="M37.2219 39.9121V43.4755C37.2219 43.9195 37.3015 44.2382 37.4723 44.4659C37.6431 44.6822 37.9391 44.7961 38.3831 44.7961C38.5311 44.7961 38.6905 44.7847 38.8612 44.7619C39.032 44.7392 39.1686 44.705 39.2825 44.6481L39.3166 46.8908C39.1003 46.9705 38.8385 47.0275 38.5083 47.0844C38.1782 47.1413 37.8594 47.1641 37.5292 47.1641C36.9031 47.1641 36.3794 47.0844 35.9582 46.925C35.5369 46.7656 35.1954 46.5493 34.9335 46.2533C34.6831 45.9573 34.4896 45.6158 34.3757 45.2059C34.2619 44.7961 34.2049 44.3521 34.2049 43.8512V39.9121H32.7363V37.6352H34.2163V35.1875H37.2332V37.6352H39.4191V39.9121H37.2219Z" fill="white"/>
<path d="M50.6486 46.9695C49.7833 47.1858 48.8384 47.2882 47.8138 47.2882C46.755 47.2882 45.776 47.1175 44.888 46.7873C44 46.4458 43.2258 45.979 42.5883 45.3642C41.9507 44.7495 41.4384 44.0209 41.0855 43.167C40.7212 42.3132 40.5391 41.3569 40.5391 40.3095C40.5391 39.2507 40.7212 38.2944 41.0969 37.4292C41.4612 36.564 41.9735 35.8354 42.6224 35.232C43.2714 34.6286 44.0341 34.1618 44.8994 33.8431C45.776 33.5243 46.7095 33.3535 47.7227 33.3535C48.7701 33.3535 49.7378 33.5129 50.6372 33.8317C51.5366 34.1504 52.2652 34.5717 52.823 35.1181L50.808 37.4178C50.5006 37.0535 50.0793 36.7575 49.5784 36.5298C49.0661 36.3021 48.4855 36.1883 47.8366 36.1883C47.2787 36.1883 46.755 36.2907 46.2883 36.4957C45.8101 36.7006 45.4003 36.9852 45.0587 37.3609C44.7058 37.7252 44.4326 38.1692 44.2504 38.6701C44.0569 39.171 43.9544 39.7289 43.9544 40.3209C43.9544 40.9356 44.0455 41.4935 44.2163 42.0058C44.3871 42.5181 44.6489 42.9621 44.9904 43.3264C45.332 43.6907 45.7532 43.9867 46.2655 44.1916C46.7664 44.3966 47.347 44.499 47.996 44.499C48.3717 44.499 48.7246 44.4762 49.0661 44.4193C49.3963 44.3624 49.715 44.2713 49.9996 44.1461V41.7326H47.4723V39.1255H52.9369V46.1384C52.2652 46.4799 51.5138 46.7532 50.6486 46.9695Z" fill="white"/>
<path d="M64.4166 42.256C64.4166 43.0188 64.28 43.7019 64.0068 44.328C63.7335 44.9428 63.3578 45.4665 62.8797 45.8991C62.4015 46.3317 61.8551 46.6619 61.2289 46.9009C60.6028 47.14 59.9425 47.2539 59.2252 47.2539C58.5308 47.2539 57.8591 47.14 57.2329 46.9009C56.6068 46.6619 56.0489 46.3317 55.5822 45.8991C55.1154 45.4665 54.7397 44.9428 54.4665 44.328C54.1933 43.7133 54.0566 43.0188 54.0566 42.256C54.0566 41.4933 54.1933 40.8102 54.4665 40.1954C54.7397 39.5807 55.1154 39.0683 55.5822 38.6471C56.0489 38.2259 56.5954 37.8957 57.2329 37.6794C57.8591 37.4517 58.5308 37.3379 59.2252 37.3379C59.9311 37.3379 60.6028 37.4517 61.2289 37.6794C61.8551 37.9071 62.4015 38.2259 62.8797 38.6471C63.3578 39.0683 63.7221 39.592 64.0068 40.1954C64.28 40.8102 64.4166 41.4933 64.4166 42.256ZM61.468 42.256C61.468 41.96 61.4225 41.664 61.32 41.3794C61.2175 41.0948 61.0809 40.8443 60.8874 40.6167C60.7052 40.4003 60.4662 40.2182 60.1929 40.0816C59.9197 39.945 59.6009 39.8767 59.2366 39.8767C58.8723 39.8767 58.5535 39.945 58.2803 40.0816C58.0071 40.2182 57.7794 40.4003 57.5972 40.6167C57.4151 40.833 57.2785 41.0834 57.1874 41.3794C57.0963 41.664 57.0508 41.96 57.0508 42.256C57.0508 42.552 57.0963 42.848 57.1874 43.1326C57.2785 43.4173 57.4151 43.6791 57.6086 43.9068C57.7908 44.1345 58.0299 44.328 58.3031 44.4646C58.5763 44.6013 58.8951 44.6696 59.2594 44.6696C59.6237 44.6696 59.9425 44.6013 60.2157 44.4646C60.4889 44.328 60.7166 44.1459 60.9102 43.9068C61.0923 43.6791 61.2403 43.4173 61.3314 43.1326C61.4225 42.848 61.468 42.552 61.468 42.256Z" fill="white"/>
<path d="M66.6167 45.125C67.1973 45.125 67.6868 45.5804 67.6868 46.1838C67.6868 46.7985 67.1859 47.2539 66.6167 47.2539C66.0361 47.2539 65.5352 46.7985 65.5352 46.1838C65.5352 45.569 66.0247 45.125 66.6167 45.125ZM66.6167 45.2958C66.1272 45.2958 65.7401 45.6828 65.7401 46.1838C65.7401 46.7075 66.1272 47.0718 66.6167 47.0718C67.1062 47.0718 67.4819 46.6961 67.4819 46.1838C67.4819 45.6715 67.0948 45.2958 66.6167 45.2958ZM66.389 46.7985H66.1955V45.569H66.6622C66.9582 45.569 67.0948 45.6828 67.0948 45.9219C67.0948 46.1382 66.9582 46.2407 66.7761 46.2635L67.129 46.7985H66.9241L66.5939 46.2635H66.3776V46.7985H66.389ZM66.389 46.1155H66.6167C66.8444 46.1155 66.9241 46.0471 66.9241 45.9105C66.9241 45.7967 66.8672 45.7284 66.6509 45.7284H66.4004V46.1155H66.389Z" fill="white"/>
<path fill-rule="evenodd" clip-rule="evenodd" d="M192.271 43.8275C190.725 64.6649 173.328 81.0902 152.096 81.0902L111.808 81.0902L111.808 56.6899H101.73C100.074 56.6899 98.7305 55.3468 98.7305 53.6899C98.7305 52.0331 100.074 50.6899 101.73 50.6899H111.808L111.808 31.5097H101.73C100.074 31.5097 98.7305 30.1665 98.7305 28.5097C98.7305 26.8528 100.074 25.5097 101.73 25.5097H111.808L111.808 0.515625L152.096 0.515629C173.345 0.515631 190.752 16.9668 192.275 37.8275H202.003C203.659 37.8275 205.003 39.1707 205.003 40.8275C205.003 42.4844 203.659 43.8275 202.003 43.8275H192.271Z" fill="#DFE7FF"/>
<path d="M149.316 57.826C149.316 57.826 164.259 52.7515 164.259 34.0902V27.3787C164.259 26.6537 163.698 26.0457 162.973 25.9989C160.26 25.882 153.829 25.3208 149.316 22.9121C144.803 25.3208 138.372 25.882 135.659 25.9989C134.934 26.0457 134.373 26.6537 134.373 27.3787V34.0902C134.373 52.7515 149.316 57.826 149.316 57.826Z" fill="#015DFA"/>
<path d="M155.349 36.5455C155.162 34.511 153.431 33.8095 151.21 33.599V30.746H149.479V33.5055C149.035 33.5055 148.544 33.5055 148.076 33.5055V30.7227H146.346L146.369 33.5522C145.995 33.5522 142.908 33.5756 142.908 33.5756V35.3763H145.106V44.4731H143.165L143.142 46.5543C143.142 46.5543 145.878 46.531 146.276 46.5543V49.4073H147.983V46.5777C148.45 46.6011 148.918 46.6011 149.362 46.6011V49.4073H151.093V46.5543C153.993 46.414 156.004 45.6891 156.284 42.9764C156.495 40.8016 155.489 39.7961 153.852 39.3985C154.858 38.9308 155.489 38.0422 155.349 36.5455ZM152.894 42.6257C152.87 44.7537 149.246 44.4965 148.1 44.4965V40.7081C149.246 40.7081 152.917 40.4041 152.894 42.6257ZM152.122 37.2939C152.099 39.2348 149.082 39.001 148.123 38.9776V35.54C149.082 35.54 152.145 35.2594 152.122 37.2939Z" fill="white"/>
<defs>
<filter id="filter0_b_4_9503" x="-274.002" y="-274.484" width="630.574" height="630.574" filterUnits="userSpaceOnUse" color-interpolation-filters="sRGB">
<feFlood flood-opacity="0" result="BackgroundImageFix"/>
<feGaussianBlur in="BackgroundImageFix" stdDeviation="137.5"/>
<feComposite in2="SourceAlpha" operator="in" result="effect1_backgroundBlur_4_9503"/>
<feBlend mode="normal" in="SourceGraphic" in2="effect1_backgroundBlur_4_9503" result="shape"/>
</filter>
</defs>
</svg>
