<svg width="240" height="105" viewBox="0 0 240 105" fill="none" xmlns="http://www.w3.org/2000/svg">
<circle cx="23.2788" cy="23.6206" r="23.0288" fill="#015DFA"/>
<path d="M30.4499 15.0333L24.4186 12.7743C23.7935 12.544 22.7736 12.544 22.1486 12.7743L16.1172 15.0333C14.9548 15.4719 14.0117 16.8317 14.0117 18.0709V26.9535C14.0117 27.8417 14.5929 29.0151 15.3057 29.5415L21.3371 34.0485C22.4008 34.8491 24.1444 34.8491 25.2081 34.0485L31.2395 29.5415C31.9523 29.0041 32.5335 27.8417 32.5335 26.9535V18.0709C32.5445 16.8317 31.6014 15.4719 30.4499 15.0333ZM24.1005 24.5738V27.4579C24.1005 27.9075 23.7277 28.2804 23.2781 28.2804C22.8285 28.2804 22.4556 27.9075 22.4556 27.4579V24.5738C21.3481 24.2229 20.5366 23.1921 20.5366 21.9749C20.5366 20.4615 21.7648 19.2333 23.2781 19.2333C24.7914 19.2333 26.0196 20.4615 26.0196 21.9749C26.0196 23.2031 25.2081 24.2229 24.1005 24.5738Z" fill="white"/>
<circle cx="87.7593" cy="23.6206" r="23.0288" fill="#DFE7FF"/>
<circle cx="152.24" cy="23.6206" r="20.5288" stroke="#AFEAC6" stroke-width="5"/>
<circle cx="216.72" cy="23.6206" r="23.0288" fill="#DFE7FF"/>
<circle cx="23.0542" cy="81.5347" r="23.0288" fill="#AFEAC6"/>
<circle cx="87.7593" cy="81.191" r="23.0288" fill="#DFE7FF"/>
<circle cx="152.24" cy="81.191" r="23.0288" fill="#34C76C"/>
<path d="M159.18 74.2492L146.306 87.1234C145.824 87.6059 145.012 87.5401 144.617 86.9699C143.258 84.985 142.457 82.6383 142.457 80.2257V75.4116C142.457 74.5124 143.137 73.4925 143.97 73.1526L150.078 70.6523C151.46 70.082 152.995 70.082 154.377 70.6523L158.818 72.4617C159.542 72.7578 159.729 73.7009 159.18 74.2492Z" fill="white"/>
<path d="M160.212 75.752C160.925 75.1488 162.01 75.6642 162.01 76.5964V80.2261C162.01 85.5886 158.117 90.6111 152.799 92.0805C152.437 92.1792 152.042 92.1792 151.669 92.0805C150.112 91.6419 148.665 90.9071 147.426 89.9421C146.899 89.5364 146.844 88.7688 147.305 88.2972C149.696 85.8518 156.692 78.7238 160.212 75.752Z" fill="white"/>
<circle cx="216.72" cy="81.191" r="20.5288" stroke="#DFE7FF" stroke-width="5"/>
</svg>
